<svg width="654" height="381" viewBox="0 0 654 381" fill="none" xmlns="http://www.w3.org/2000/svg">
<g clip-path="url(#clip0_1213_381)">
<path fill-rule="evenodd" clip-rule="evenodd" d="M493.5 -0.5C505.833 -0.5 518.167 -0.5 530.5 -0.5C533.269 0.9722 536.269 2.13887 539.5 3C547.11 4.71317 554.776 6.21317 562.5 7.5C563.749 9.1361 565.416 10.3028 567.5 11C571.621 12.2292 575.621 13.7292 579.5 15.5C580.609 15.5569 581.609 15.8902 582.5 16.5C584.89 18.9266 587.556 21.0932 590.5 23C589.062 23.2189 587.729 23.7189 586.5 24.5C586.667 24.8333 586.833 25.1667 587 25.5C588.458 24.2532 589.958 24.2532 591.5 25.5C591.998 26.6034 592.331 27.6034 592.5 28.5C594.409 27.6518 596.409 27.3184 598.5 27.5C601.944 29.9053 604.61 33.0719 606.5 37C607.9 38.4381 609.567 39.2714 611.5 39.5C612.605 40.6005 613.938 41.2671 615.5 41.5C616.08 43.7488 617.413 45.4154 619.5 46.5C620.757 49.4274 622.757 51.7607 625.5 53.5C628.338 61.1858 632.671 67.8524 638.5 73.5C639.167 73.5 639.5 73.8333 639.5 74.5C639.198 78.3799 640.531 81.3799 643.5 83.5C644.025 87.533 645.358 91.1996 647.5 94.5C649.46 101.347 650.627 108.347 651 115.5C651.377 116.942 652.21 117.942 653.5 118.5C653.5 130.5 653.5 142.5 653.5 154.5C650.169 159.535 648.835 165.202 649.5 171.5C649.44 174.341 648.774 177.007 647.5 179.5C644.455 182.893 642.788 186.893 642.5 191.5C641.5 191.5 640.5 191.5 639.5 191.5C639.492 194.545 639.159 197.545 638.5 200.5C638.167 201.167 637.833 201.833 637.5 202.5C634.017 203.863 632.35 206.53 632.5 210.5C631.079 213.009 629.412 215.343 627.5 217.5C620.64 217.528 617.307 221.028 617.5 228C615.567 228.783 614.067 228.283 613 226.5C612.82 228.488 612.986 230.488 613.5 232.5C611.522 236.478 608.522 239.478 604.5 241.5C602.5 241.5 600.5 241.5 598.5 241.5C598.5 242.5 598.5 243.5 598.5 244.5C597.167 244.5 595.833 244.5 594.5 244.5C594.349 247.718 593.516 248.051 592 245.5C591.51 246.793 591.343 248.127 591.5 249.5C590.5 249.5 589.5 249.5 588.5 249.5C588.567 250.959 588.234 252.292 587.5 253.5C584.834 253.933 582.168 254.433 579.5 255C580.598 255.77 580.598 256.603 579.5 257.5C576.053 260.438 572.053 262.438 567.5 263.5C560.262 265.386 553.262 267.72 546.5 270.5C540.736 270.437 535.07 271.103 529.5 272.5C511.524 273.2 493.69 272.2 476 269.5C472.344 267.294 468.511 265.461 464.5 264C465.167 263.333 465.833 262.667 466.5 262C462.082 261.792 457.749 261.126 453.5 260C453.833 259.667 454.167 259.333 454.5 259C452.833 257.333 451.167 255.667 449.5 254C452.334 253.955 454.834 253.121 457 251.5C456.386 249.46 456.552 247.46 457.5 245.5C459.144 245.286 460.644 245.62 462 246.5C466.144 244.866 467.977 241.866 467.5 237.5C469.57 237.551 471.403 236.885 473 235.5C473.772 235.645 474.439 235.978 475 236.5C475.837 234.649 476.671 232.816 477.5 231C478.784 230.316 479.951 230.483 481 231.5C483.516 227.12 485.35 222.453 486.5 217.5C488.098 215.302 489.431 212.969 490.5 210.5C493.883 206.447 496.883 202.114 499.5 197.5C501.527 196.139 503.194 194.473 504.5 192.5C505.721 191.972 506.887 191.305 508 190.5C509.502 187.982 511.002 185.482 512.5 183C513.766 182.691 514.933 182.191 516 181.5C516.407 177.715 517.241 174.048 518.5 170.5C520.234 166.7 522.234 163.034 524.5 159.5C526.104 158.713 526.771 157.38 526.5 155.5C530.853 150.473 534.853 145.14 538.5 139.5C542.412 135.321 546.079 130.988 549.5 126.5C553.708 123.109 557.708 119.443 561.5 115.5C569.025 108.737 577.692 104.07 587.5 101.5C592.594 100.349 597.594 99.0156 602.5 97.5C603.167 97.1667 603.833 96.8333 604.5 96.5C607.85 96.665 611.183 96.4983 614.5 96C613.09 94.6283 611.423 93.795 609.5 93.5C608.694 92.2719 607.694 91.2719 606.5 90.5C605.726 87.6747 604.059 85.508 601.5 84C597.159 83.9068 592.826 83.9068 588.5 84C590.481 83.3946 590.815 82.3946 589.5 81C586.688 79.4511 583.688 78.6178 580.5 78.5C580.389 77.8826 580.056 77.3826 579.5 77C574.833 76.6667 570.167 76.3333 565.5 76C566.993 74.8438 566.826 74.0104 565 73.5C554.129 69.9092 543.295 69.5759 532.5 72.5C531.508 72.3284 530.842 72.6618 530.5 73.5C528.027 73.0882 526.694 74.0882 526.5 76.5C524.589 77.075 522.922 78.075 521.5 79.5C519.973 79.573 518.973 78.9063 518.5 77.5C518.953 76.5416 519.619 75.7083 520.5 75C519.667 74.8333 518.833 74.6667 518 74.5C514.888 75.4831 511.722 76.1497 508.5 76.5C507.614 75.2241 506.614 75.2241 505.5 76.5C504.902 77.7946 504.402 79.1279 504 80.5C500.38 78.8166 496.546 78.1499 492.5 78.5C492.5 79.5 492.5 80.5 492.5 81.5C490.5 81.5 489.5 82.5 489.5 84.5C477.455 100.011 467.455 116.677 459.5 134.5C455.264 141.297 451.264 148.297 447.5 155.5C444.884 158.455 442.218 161.455 439.5 164.5C439.667 164.833 439.833 165.167 440 165.5C441.329 164.506 442.662 163.506 444 162.5C444.772 162.645 445.439 162.978 446 163.5C446.49 162.207 446.657 160.873 446.5 159.5C447.873 159.343 449.207 159.51 450.5 160C449.748 160.671 449.414 161.504 449.5 162.5C447.2 164.637 445.033 166.97 443 169.5C442.312 170.332 442.479 170.998 443.5 171.5C447.532 168.41 450.865 164.743 453.5 160.5C460.088 152.308 466.421 143.974 472.5 135.5C473.496 135.586 474.329 135.252 475 134.5C475.471 132.754 476.138 131.087 477 129.5C479.326 127.545 481.659 125.545 484 123.5C484.167 124.333 484.333 125.167 484.5 126C482.412 130.53 480.079 135.03 477.5 139.5C476.548 141.045 476.215 142.712 476.5 144.5C475.244 148.687 473.244 152.354 470.5 155.5C468.801 155.34 467.134 155.506 465.5 156C466.574 156.739 467.241 157.739 467.5 159C465.134 163.565 462.634 168.065 460 172.5C457.562 171.134 457.062 171.634 458.5 174C455.189 177.31 452.689 181.143 451 185.5C450.282 184.549 449.449 184.383 448.5 185C448.393 188.6 446.393 191.1 442.5 192.5C442.977 193.478 443.643 194.311 444.5 195C442.993 195.837 442.493 197.004 443 198.5C446.105 196.306 448.772 193.64 451 190.5C451.333 191.167 451.667 191.833 452 192.5C454.346 189.682 456.346 186.682 458 183.5C458.333 184.5 458.667 185.5 459 186.5C459.219 185.062 459.719 183.729 460.5 182.5C460.833 183.167 461.167 183.833 461.5 184.5C460.033 187.266 459.2 190.266 459 193.5C454.892 199.319 451.059 205.319 447.5 211.5C447.938 212.506 448.604 212.506 449.5 211.5C451.278 209.736 452.611 207.736 453.5 205.5C455.861 203.806 457.861 201.806 459.5 199.5C461.331 198.948 462.997 198.948 464.5 199.5C466.388 196.391 467.721 193.057 468.5 189.5C469.705 187.862 471.038 187.529 472.5 188.5C470.21 191.981 469.376 195.648 470 199.5C469.086 198.346 468.253 198.513 467.5 200C468.337 201.011 468.67 202.178 468.5 203.5C467.5 203.5 466.5 203.5 465.5 203.5C465.5 204.833 465.5 206.167 465.5 207.5C461.242 208.972 458.576 211.972 457.5 216.5C456.808 215.975 456.308 215.308 456 214.5C455.798 216.256 455.298 217.922 454.5 219.5C450.901 218.908 447.401 219.575 444 221.5C440.567 218.854 438.734 215.688 438.5 212C439.022 211.05 439.689 210.216 440.5 209.5C440.167 209.167 439.833 208.833 439.5 208.5C437.556 209.801 435.556 210.801 433.5 211.5C430.615 210.618 427.948 209.284 425.5 207.5C424.71 206.599 423.71 205.932 422.5 205.5C421.5 205.167 420.833 204.5 420.5 203.5C419.415 201.413 417.749 200.08 415.5 199.5C414.19 197.852 412.857 196.186 411.5 194.5C413.993 192.752 413.827 191.086 411 189.5C410.517 190.448 410.351 191.448 410.5 192.5C408.784 192.371 407.117 192.038 405.5 191.5C404.989 189.805 404.322 188.139 403.5 186.5C399.478 184.325 395.478 182.325 391.5 180.5C389.17 178.416 388.003 175.749 388 172.5C382.733 170.899 379.067 167.565 377 162.5C375.644 163.38 374.144 163.714 372.5 163.5C372.003 157.619 371.003 151.953 369.5 146.5C369.334 137.827 369.5 129.16 370 120.5C371.798 115.311 372.631 109.978 372.5 104.5C377.608 97.0313 380.608 88.698 381.5 79.5C382.239 79.631 382.906 79.4643 383.5 79C386.844 73.4646 389.511 67.6312 391.5 61.5C392.397 60.4019 393.23 60.4019 394 61.5C394.471 59.7536 395.138 58.087 396 56.5C398.292 55.2101 400.292 53.5435 402 51.5C403.109 48.5585 404.609 45.8918 406.5 43.5C408.5 42.1667 410.167 40.5 411.5 38.5C411.5 37.8333 411.833 37.5 412.5 37.5C414.167 36.5 415.5 35.1667 416.5 33.5C420.207 31.3115 423.54 28.6448 426.5 25.5C429.198 25.1551 431.198 23.8218 432.5 21.5C434.223 19.7819 436.223 18.4486 438.5 17.5C444.813 16.1766 450.479 13.5099 455.5 9.5C460.216 8.99171 464.882 8.15838 469.5 7C477.552 3.9813 485.552 1.4813 493.5 -0.5Z" fill="white"/>
<path opacity="0.875" fill-rule="evenodd" clip-rule="evenodd" d="M530.5 -0.5C532.833 -0.5 535.167 -0.5 537.5 -0.5C545.972 1.76867 554.306 4.43534 562.5 7.5C554.776 6.21317 547.11 4.71317 539.5 3C536.269 2.13887 533.269 0.9722 530.5 -0.5Z" fill="white"/>
<path opacity="0.925" fill-rule="evenodd" clip-rule="evenodd" d="M486.5 -0.5C488.833 -0.5 491.167 -0.5 493.5 -0.5C485.552 1.4813 477.552 3.9813 469.5 7C464.882 8.15838 460.216 8.99171 455.5 9.5C458.625 7.77548 461.958 6.27548 465.5 5C472.66 3.29477 479.66 1.46144 486.5 -0.5Z" fill="white"/>
<path opacity="0.561" fill-rule="evenodd" clip-rule="evenodd" d="M455.5 9.5C450.479 13.5099 444.813 16.1766 438.5 17.5C443.704 14.067 449.371 11.4003 455.5 9.5Z" fill="white"/>
<path opacity="0.118" fill-rule="evenodd" clip-rule="evenodd" d="M562.5 7.5C565.934 8.44718 569.267 9.61385 572.5 11C575.239 12.0259 577.572 13.5259 579.5 15.5C575.621 13.7292 571.621 12.2292 567.5 11C565.416 10.3028 563.749 9.1361 562.5 7.5Z" fill="white"/>
<path opacity="0.224" fill-rule="evenodd" clip-rule="evenodd" d="M432.5 21.5C431.198 23.8218 429.198 25.1551 426.5 25.5C428.147 23.6736 430.147 22.3403 432.5 21.5Z" fill="white"/>
<path fill-rule="evenodd" clip-rule="evenodd" d="M582.5 16.5C588.537 19.1819 593.871 22.8486 598.5 27.5C596.409 27.3184 594.409 27.6518 592.5 28.5C592.331 27.6034 591.998 26.6034 591.5 25.5C589.958 24.2532 588.458 24.2532 587 25.5C586.833 25.1667 586.667 24.8333 586.5 24.5C587.729 23.7189 589.062 23.2189 590.5 23C587.556 21.0932 584.89 18.9266 582.5 16.5Z" fill="white"/>
<path opacity="0.169" fill-rule="evenodd" clip-rule="evenodd" d="M426.5 25.5C423.54 28.6448 420.207 31.3115 416.5 33.5C419.095 29.8743 422.428 27.2076 426.5 25.5Z" fill="white"/>
<path opacity="0.133" fill-rule="evenodd" clip-rule="evenodd" d="M416.5 33.5C415.5 35.1667 414.167 36.5 412.5 37.5C412.833 35.1667 414.167 33.8333 416.5 33.5Z" fill="white"/>
<path opacity="0.878" fill-rule="evenodd" clip-rule="evenodd" d="M598.5 27.5C602.708 29.3681 606.375 32.0347 609.5 35.5C609.733 37.0618 610.4 38.3951 611.5 39.5C609.567 39.2714 607.9 38.4381 606.5 37C604.61 33.0719 601.944 29.9053 598.5 27.5Z" fill="white"/>
<path opacity="0.212" fill-rule="evenodd" clip-rule="evenodd" d="M609.5 35.5C611.833 37.1667 613.833 39.1667 615.5 41.5C613.938 41.2671 612.605 40.6005 611.5 39.5C610.4 38.3951 609.733 37.0618 609.5 35.5Z" fill="white"/>
<path opacity="0.251" fill-rule="evenodd" clip-rule="evenodd" d="M411.5 38.5C410.167 40.5 408.5 42.1667 406.5 43.5C407.167 40.8333 408.833 39.1667 411.5 38.5Z" fill="white"/>
<path opacity="0.255" fill-rule="evenodd" clip-rule="evenodd" d="M615.5 41.5C617.587 42.5846 618.92 44.2512 619.5 46.5C617.413 45.4154 616.08 43.7488 615.5 41.5Z" fill="white"/>
<path opacity="0.353" fill-rule="evenodd" clip-rule="evenodd" d="M619.5 46.5C622.243 48.2393 624.243 50.5726 625.5 53.5C622.757 51.7607 620.757 49.4274 619.5 46.5Z" fill="white"/>
<path opacity="0.957" fill-rule="evenodd" clip-rule="evenodd" d="M406.5 43.5C404.609 45.8918 403.109 48.5585 402 51.5C400.292 53.5435 398.292 55.2101 396 56.5C395.138 58.087 394.471 59.7536 394 61.5C393.23 60.4019 392.397 60.4019 391.5 61.5C395.089 54.2509 400.089 48.2509 406.5 43.5Z" fill="white"/>
<path opacity="0.973" fill-rule="evenodd" clip-rule="evenodd" d="M625.5 53.5C631.324 59.1348 635.657 65.8015 638.5 73.5C632.671 67.8524 628.338 61.1858 625.5 53.5Z" fill="white"/>
<path fill-rule="evenodd" clip-rule="evenodd" d="M391.5 61.5C389.511 67.6312 386.844 73.4646 383.5 79C382.906 79.4643 382.239 79.631 381.5 79.5C383.639 72.7298 386.972 66.7298 391.5 61.5Z" fill="white"/>
<path fill-rule="evenodd" clip-rule="evenodd" d="M530.5 73.5006C533.247 73.1872 535.914 73.5206 538.5 74.5006C537.995 75.9191 536.995 76.5858 535.5 76.5006C535.38 75.4144 534.713 74.7478 533.5 74.5006C531.149 75.174 528.816 75.8407 526.5 76.5006C526.694 74.0888 528.027 73.0888 530.5 73.5006Z" fill="#625119"/>
<path fill-rule="evenodd" clip-rule="evenodd" d="M547.5 85.4994C547.414 84.5035 547.748 83.6702 548.5 82.9994C551.891 81.3104 554.891 79.1437 557.5 76.4994C557.291 75.9134 556.957 75.4134 556.5 74.9994C553.833 74.3327 551.167 74.3327 548.5 74.9994C544.797 78.1344 540.797 80.8011 536.5 82.9994C529.325 90.0078 522.325 97.1744 515.5 104.499C515.709 103.077 516.209 101.744 517 100.499C521.035 96.7992 524.702 92.7992 528 88.4994C532.026 85.301 535.859 81.9677 539.5 78.4994C541.23 77.9738 542.564 76.9738 543.5 75.4994C546.703 73.9134 550.203 73.2467 554 73.4994C557.62 73.4152 561.12 73.9152 564.5 74.9994C558.805 78.5104 553.139 82.0104 547.5 85.4994Z" fill="#64511B"/>
<path fill-rule="evenodd" clip-rule="evenodd" d="M530.5 73.5008C530.842 72.6626 531.508 72.3292 532.5 72.5008C535.518 72.3362 538.518 72.5028 541.5 73.0008C540.391 74.8138 541.058 75.6471 543.5 75.5008C542.564 76.9752 541.23 77.9752 539.5 78.5008C539.631 77.7619 539.464 77.0952 539 76.5008C536.749 77.4131 534.583 78.4131 532.5 79.5008C533.167 78.1675 534.167 77.1675 535.5 76.5008C536.995 76.586 537.995 75.9193 538.5 74.5008C535.914 73.5208 533.247 73.1874 530.5 73.5008Z" fill="white"/>
<path fill-rule="evenodd" clip-rule="evenodd" d="M494.5 85.5007C493.393 83.1541 491.726 82.8207 489.5 84.5007C489.5 82.5007 490.5 81.5007 492.5 81.5007C500.895 78.7066 501.561 80.0399 494.5 85.5007Z" fill="#7E6214"/>
<path fill-rule="evenodd" clip-rule="evenodd" d="M518.5 77.5C516.938 77.7329 515.605 78.3995 514.5 79.5C514.209 78.3509 513.376 77.6842 512 77.5C508.368 80.2946 504.868 83.2946 501.5 86.5C503.833 83.1667 506.167 79.8333 508.5 76.5C511.722 76.1497 514.888 75.4831 518 74.5C518.833 74.6667 519.667 74.8333 520.5 75C519.619 75.7083 518.953 76.5416 518.5 77.5Z" fill="#7B6113"/>
<path fill-rule="evenodd" clip-rule="evenodd" d="M532.5 79.5C531.421 81.543 529.754 82.8763 527.5 83.5C528.539 81.4689 530.205 80.1355 532.5 79.5Z" fill="#9D7F21"/>
<path fill-rule="evenodd" clip-rule="evenodd" d="M577.5 84.5C574.382 85.5587 571.382 86.8921 568.5 88.5C566.473 88.6621 564.473 88.4955 562.5 88C562.112 86.3986 561.445 84.5652 560.5 82.5C564.318 82.1076 567.985 81.1076 571.5 79.5C574.826 80.0466 578.16 80.5466 581.5 81C579.907 81.9487 578.574 83.1154 577.5 84.5Z" fill="#4D473B"/>
<path opacity="0.957" fill-rule="evenodd" clip-rule="evenodd" d="M639.5 74.5C641.592 77.0884 642.925 80.0884 643.5 83.5C640.531 81.3799 639.198 78.3799 639.5 74.5Z" fill="white"/>
<path fill-rule="evenodd" clip-rule="evenodd" d="M514.5 79.5C505.438 87.8973 497.438 97.2307 490.5 107.5C489.185 108.476 487.852 109.476 486.5 110.5C485.702 110.043 485.369 109.376 485.5 108.5C487.261 103.854 489.928 99.8538 493.5 96.5C497.3 94.0374 499.967 90.704 501.5 86.5C504.868 83.2946 508.368 80.2946 512 77.5C513.376 77.6842 514.209 78.3509 514.5 79.5Z" fill="#584A27"/>
<path opacity="0.529" fill-rule="evenodd" clip-rule="evenodd" d="M643.5 83.5C645.642 86.8004 646.975 90.467 647.5 94.5C645.358 91.1996 644.025 87.533 643.5 83.5Z" fill="white"/>
<path fill-rule="evenodd" clip-rule="evenodd" d="M580.5 78.5C582.406 79.4824 584.406 80.4824 586.5 81.5C583.653 82.9617 580.653 83.9617 577.5 84.5C578.574 83.1154 579.907 81.9487 581.5 81C578.16 80.5466 574.826 80.0466 571.5 79.5C567.985 81.1076 564.318 82.1076 560.5 82.5C561.445 84.5652 562.112 86.3986 562.5 88C564.473 88.4955 566.473 88.6621 568.5 88.5C565.167 90.8333 561.833 93.1667 558.5 95.5C557.391 95.5569 556.391 95.8902 555.5 96.5C556.755 93.7744 558.922 92.1077 562 91.5C562.188 89.9387 561.355 89.272 559.5 89.5C559.762 88.0222 559.429 86.6888 558.5 85.5C556.931 86.714 556.098 88.3807 556 90.5C554.324 91.0611 552.991 92.0611 552 93.5C550.989 92.6634 549.822 92.33 548.5 92.5C550.527 89.8061 552.861 87.4728 555.5 85.5C562.402 78.2239 570.735 75.8906 580.5 78.5Z" fill="#584B2B"/>
<path fill-rule="evenodd" clip-rule="evenodd" d="M546.5 85.5C543.73 89.6046 540.063 92.6046 535.5 94.5C535.414 93.5041 535.748 92.6708 536.5 92C540.039 89.9246 543.373 87.7579 546.5 85.5Z" fill="#7E6419"/>
<path fill-rule="evenodd" clip-rule="evenodd" d="M587.5 87.5C584.001 90.2461 580.001 91.9127 575.5 92.5C578.999 89.7539 582.999 88.0873 587.5 87.5Z" fill="#6E5A14"/>
<path fill-rule="evenodd" clip-rule="evenodd" d="M523.5 86.5C520.833 89.5 518.167 92.5 515.5 95.5C516.816 91.1901 519.482 88.1901 523.5 86.5Z" fill="#7A6318"/>
<path fill-rule="evenodd" clip-rule="evenodd" d="M501.5 86.5C499.967 90.704 497.3 94.0374 493.5 96.5C495.794 92.8726 498.46 89.5393 501.5 86.5Z" fill="#755E10"/>
<path fill-rule="evenodd" clip-rule="evenodd" d="M555.5 85.5C552.861 87.4728 550.527 89.8061 548.5 92.5C546.999 93.7515 545.332 94.7515 543.5 95.5C546.574 91.0963 550.574 87.7629 555.5 85.5Z" fill="#715B16"/>
<path fill-rule="evenodd" clip-rule="evenodd" d="M599.5 87.5C600.167 87.5 600.833 87.5 601.5 87.5C602.899 88.8897 604.566 89.8897 606.5 90.5C607.694 91.2719 608.694 92.2719 609.5 93.5C608.198 95.0276 606.531 96.0276 604.5 96.5C603.833 96.8333 603.167 97.1667 602.5 97.5C598.846 97.9422 595.179 98.2756 591.5 98.5C593.928 97.2809 596.261 95.7809 598.5 94C600.5 93.6667 602.5 93.3333 604.5 93C602.314 91.5883 600.648 89.755 599.5 87.5Z" fill="#544832"/>
<path fill-rule="evenodd" clip-rule="evenodd" d="M518.5 77.5C518.973 78.9063 519.973 79.573 521.5 79.5C515.06 85.5987 509.394 92.2654 504.5 99.5C501.723 101.951 499.723 104.951 498.5 108.5C492.986 114.7 488.653 121.7 485.5 129.5C482.248 134.334 479.248 139.334 476.5 144.5C476.215 142.712 476.548 141.045 477.5 139.5C480.079 135.03 482.412 130.53 484.5 126C484.333 125.167 484.167 124.333 484 123.5C481.659 125.545 479.326 127.545 477 129.5C476.138 131.087 475.471 132.754 475 134.5C474.329 135.252 473.496 135.586 472.5 135.5C472.893 133.716 473.559 132.05 474.5 130.5C479.826 122.839 485.159 115.172 490.5 107.5C497.438 97.2307 505.438 87.8973 514.5 79.5C515.605 78.3995 516.938 77.7329 518.5 77.5Z" fill="white"/>
<path fill-rule="evenodd" clip-rule="evenodd" d="M547.5 85.5C547.167 85.5 546.833 85.5 546.5 85.5C543.373 87.7579 540.039 89.9246 536.5 92C535.748 92.6708 535.414 93.5041 535.5 94.5C532.167 97.1667 529.167 100.167 526.5 103.5C524.167 104.167 521.833 104.833 519.5 105.5C519.167 107.5 518.833 109.5 518.5 111.5C516.833 111.5 515.167 111.5 513.5 111.5C513.767 109.035 514.434 106.701 515.5 104.5C522.325 97.175 529.325 90.0084 536.5 83C540.797 80.8017 544.797 78.135 548.5 75C551.167 74.3333 553.833 74.3333 556.5 75C556.957 75.414 557.291 75.914 557.5 76.5C554.891 79.1443 551.891 81.311 548.5 83C547.748 83.6708 547.414 84.5041 547.5 85.5Z" fill="#4D473A"/>
<path fill-rule="evenodd" clip-rule="evenodd" d="M575.5 92.5C573.566 95.0582 570.899 96.3915 567.5 96.5C569.465 93.9881 572.132 92.6548 575.5 92.5Z" fill="#6C581E"/>
<path opacity="0.992" fill-rule="evenodd" clip-rule="evenodd" d="M381.5 79.5C380.608 88.698 377.608 97.0313 372.5 104.5C374.144 97.0621 376.311 89.7288 379 82.5C379.377 81.0577 380.21 80.0577 381.5 79.5Z" fill="white"/>
<path fill-rule="evenodd" clip-rule="evenodd" d="M526.5 76.5C519.139 84.1931 511.806 91.8598 504.5 99.5C509.394 92.2654 515.06 85.5987 521.5 79.5C522.922 78.075 524.589 77.075 526.5 76.5Z" fill="#736015"/>
<path fill-rule="evenodd" clip-rule="evenodd" d="M609.5 93.5C611.423 93.795 613.09 94.6283 614.5 96C611.183 96.4983 607.85 96.665 604.5 96.5C606.531 96.0276 608.198 95.0276 609.5 93.5Z" fill="#684E0E"/>
<path fill-rule="evenodd" clip-rule="evenodd" d="M543.5 95.5C540.167 99.5 536.5 103.167 532.5 106.5C535.167 101.833 538.833 98.1667 543.5 95.5Z" fill="#745D17"/>
<path fill-rule="evenodd" clip-rule="evenodd" d="M535.5 76.5C534.167 77.1667 533.167 78.1667 532.5 79.5C530.205 80.1355 528.539 81.4689 527.5 83.5C525.77 84.0256 524.436 85.0256 523.5 86.5C519.482 88.1901 516.816 91.1901 515.5 95.5C512.833 97.5 510.5 99.8333 508.5 102.5C505.463 104.186 504.13 103.186 504.5 99.5C511.806 91.8598 519.139 84.1931 526.5 76.5C528.816 75.8401 531.149 75.1734 533.5 74.5C534.713 74.7472 535.38 75.4138 535.5 76.5Z" fill="#514730"/>
<path fill-rule="evenodd" clip-rule="evenodd" d="M558.5 95.5C555.883 98.3642 552.883 100.697 549.5 102.5C550.633 99.5121 552.633 97.5121 555.5 96.5C556.391 95.8902 557.391 95.5569 558.5 95.5Z" fill="white"/>
<path fill-rule="evenodd" clip-rule="evenodd" d="M602.5 97.5C597.594 99.0156 592.594 100.349 587.5 101.5C589.076 100.857 590.41 99.8571 591.5 98.5C595.179 98.2756 598.846 97.9422 602.5 97.5Z" fill="white"/>
<path fill-rule="evenodd" clip-rule="evenodd" d="M567.5 96.5C566.039 99.255 563.705 101.088 560.5 102C554.063 107.525 547.73 113.025 541.5 118.5C548.669 109.325 557.336 101.992 567.5 96.5Z" fill="#725D1B"/>
<path fill-rule="evenodd" clip-rule="evenodd" d="M504.5 99.5C504.13 103.186 505.463 104.186 508.5 102.5C506.397 105.72 504.064 108.72 501.5 111.5C502.63 109.685 503.296 107.685 503.5 105.5C501.336 105.721 499.67 106.721 498.5 108.5C499.723 104.951 501.723 101.951 504.5 99.5Z" fill="#6A5921"/>
<path fill-rule="evenodd" clip-rule="evenodd" d="M494.5 85.5006C482.905 102.366 471.572 119.366 460.5 136.501C459.662 136.159 459.328 135.493 459.5 134.501C467.455 116.678 477.455 100.012 489.5 84.5006C491.726 82.8206 493.393 83.154 494.5 85.5006Z" fill="#615121"/>
<path fill-rule="evenodd" clip-rule="evenodd" d="M555.5 96.5C552.633 97.5121 550.633 99.5121 549.5 102.5C542.515 107.153 536.515 112.82 531.5 119.5C529.433 120.263 527.766 121.596 526.5 123.5C525.914 123.291 525.414 122.957 525 122.5C524.51 123.793 524.343 125.127 524.5 126.5C523.5 126.5 522.5 126.5 521.5 126.5C521.5 128.167 521.5 129.833 521.5 131.5C519.817 132.853 518.484 134.52 517.5 136.5C515.561 135.986 514.561 134.653 514.5 132.5C515.187 130.823 515.854 129.156 516.5 127.5C517.708 126.766 519.041 126.433 520.5 126.5C520.351 125.448 520.517 124.448 521 123.5C524.961 118.416 528.461 113.082 531.5 107.5C531.5 106.833 531.833 106.5 532.5 106.5C536.5 103.167 540.167 99.5 543.5 95.5C545.332 94.7515 546.999 93.7515 548.5 92.5C549.822 92.33 550.989 92.6634 552 93.5C552.991 92.0611 554.324 91.0611 556 90.5C556.098 88.3807 556.931 86.714 558.5 85.5C559.429 86.6888 559.762 88.0222 559.5 89.5C561.355 89.272 562.188 89.9387 562 91.5C558.922 92.1077 556.755 93.7744 555.5 96.5Z" fill="#4E4739"/>
<path fill-rule="evenodd" clip-rule="evenodd" d="M591.5 98.5C590.41 99.8571 589.076 100.857 587.5 101.5C577.692 104.07 569.025 108.737 561.5 115.5C560.167 115.833 558.833 116.167 557.5 116.5C557.389 115.883 557.056 115.383 556.5 115C557.833 114.667 559.167 114.333 560.5 114C559.376 113.751 558.376 113.251 557.5 112.5C563.763 110.713 569.596 108.046 575 104.5C575.483 103.552 575.649 102.552 575.5 101.5C580.708 99.8649 586.042 98.8649 591.5 98.5Z" fill="#564B2C"/>
<path fill-rule="evenodd" clip-rule="evenodd" d="M526.5 103.5C521.56 109.778 516.227 115.778 510.5 121.5C506.395 128.724 502.062 135.724 497.5 142.5C495.808 144.205 494.475 146.205 493.5 148.5C491.178 149.802 489.845 151.802 489.5 154.5C488.542 154.953 487.708 155.619 487 156.5C485.962 159.815 484.462 162.815 482.5 165.5C480.336 167.822 478.669 170.489 477.5 173.5C476.624 173.631 475.957 173.298 475.5 172.5C476.456 170.925 477.123 169.258 477.5 167.5C483.552 155.564 489.718 143.564 496 131.5C499.557 124.451 504.057 118.118 509.5 112.5C510.551 109.039 512.551 106.373 515.5 104.5C514.434 106.701 513.767 109.035 513.5 111.5C515.167 111.5 516.833 111.5 518.5 111.5C518.833 109.5 519.167 107.5 519.5 105.5C521.833 104.833 524.167 104.167 526.5 103.5Z" fill="#5C4E28"/>
<path fill-rule="evenodd" clip-rule="evenodd" d="M580.5 78.4999C570.735 75.8905 562.402 78.2238 555.5 85.4999C550.574 87.7628 546.574 91.0962 543.5 95.4999C538.833 98.1666 535.167 101.833 532.5 106.5C531.833 106.5 531.5 106.833 531.5 107.5C528.375 110.39 525.708 113.723 523.5 117.5C521.413 118.585 520.08 120.251 519.5 122.5C518.11 123.899 517.11 125.566 516.5 127.5C514.263 129.647 512.263 131.98 510.5 134.5C510.229 132.688 509.562 131.022 508.5 129.5C506 133.167 503.5 136.833 501 140.5C499.887 141.305 498.721 141.972 497.5 142.5C502.062 135.724 506.395 128.724 510.5 121.5C516.227 115.778 521.56 109.778 526.5 103.5C529.167 100.167 532.167 97.1666 535.5 94.4999C540.063 92.6045 543.73 89.6045 546.5 85.4999C546.833 85.4999 547.167 85.4999 547.5 85.4999C553.139 82.0109 558.805 78.5109 564.5 74.9999C561.12 73.9157 557.62 73.4157 554 73.4999C550.203 73.2472 546.703 73.9139 543.5 75.4999C541.058 75.6462 540.391 74.8129 541.5 72.9999C538.518 72.5019 535.518 72.3353 532.5 72.4999C543.295 69.5758 554.129 69.9091 565 73.4999C566.826 74.0103 566.993 74.8437 565.5 75.9999C570.167 76.3332 574.833 76.6666 579.5 76.9999C580.056 77.3825 580.389 77.8825 580.5 78.4999Z" fill="#F5F5F5"/>
<path opacity="0.914" fill-rule="evenodd" clip-rule="evenodd" d="M647.5 94.5C649.809 100.404 651.809 106.404 653.5 112.5C653.5 114.5 653.5 116.5 653.5 118.5C652.21 117.942 651.377 116.942 651 115.5C650.627 108.347 649.46 101.347 647.5 94.5Z" fill="white"/>
<path fill-rule="evenodd" clip-rule="evenodd" d="M509.5 112.5C511.167 112.5 512.833 112.5 514.5 112.5C514.785 116.717 512.785 118.883 508.5 119C509.336 120.243 509.003 121.41 507.5 122.5C507.167 121.667 506.833 120.833 506.5 120C507.109 117.292 508.109 114.792 509.5 112.5Z" fill="#4E453C"/>
<path fill-rule="evenodd" clip-rule="evenodd" d="M523.5 117.5C522.92 119.749 521.587 121.415 519.5 122.5C520.08 120.251 521.413 118.585 523.5 117.5Z" fill="#8A711B"/>
<path fill-rule="evenodd" clip-rule="evenodd" d="M531.5 107.5C528.461 113.082 524.961 118.416 521 123.5C520.517 124.448 520.351 125.448 520.5 126.5C519.041 126.433 517.708 126.766 516.5 127.5C517.11 125.566 518.11 123.899 519.5 122.5C521.587 121.415 522.92 119.749 523.5 117.5C525.708 113.723 528.375 110.39 531.5 107.5Z" fill="#625025"/>
<path fill-rule="evenodd" clip-rule="evenodd" d="M490.5 107.5C485.159 115.172 479.826 122.839 474.5 130.5C473.662 130.158 473.328 129.492 473.5 128.5C475.44 124.058 477.607 119.725 480 115.5C481.853 113.097 483.686 110.764 485.5 108.5C485.369 109.376 485.702 110.043 486.5 110.5C487.852 109.476 489.185 108.476 490.5 107.5Z" fill="#675515"/>
<path fill-rule="evenodd" clip-rule="evenodd" d="M541.5 118.5C541.649 119.552 541.483 120.552 541 121.5C537.968 125.359 534.802 129.026 531.5 132.5C534.345 127.473 537.679 122.806 541.5 118.5Z" fill="#7D6518"/>
<path fill-rule="evenodd" clip-rule="evenodd" d="M561.5 115.5C557.708 119.443 553.708 123.109 549.5 126.5C552.547 123.455 555.213 120.122 557.5 116.5C558.833 116.167 560.167 115.833 561.5 115.5Z" fill="#9A7F20"/>
<path fill-rule="evenodd" clip-rule="evenodd" d="M501.5 111.5C496.264 119.769 490.93 128.102 485.5 136.5C484.503 136.53 483.836 136.03 483.5 135C484.856 133.433 485.523 131.6 485.5 129.5C488.653 121.7 492.986 114.7 498.5 108.5C499.67 106.721 501.336 105.721 503.5 105.5C503.296 107.685 502.63 109.685 501.5 111.5Z" fill="#635223"/>
<path fill-rule="evenodd" clip-rule="evenodd" d="M531.5 119.5C529.518 122.81 527.185 125.81 524.5 128.5C523.1 129.1 522.1 130.1 521.5 131.5C521.5 129.833 521.5 128.167 521.5 126.5C522.5 126.5 523.5 126.5 524.5 126.5C524.343 125.127 524.51 123.793 525 122.5C525.414 122.957 525.914 123.291 526.5 123.5C527.766 121.596 529.433 120.263 531.5 119.5Z" fill="#584C25"/>
<path fill-rule="evenodd" clip-rule="evenodd" d="M508.5 76.4999C506.167 79.8332 503.833 83.1666 501.5 86.4999C498.46 89.5392 495.794 92.8725 493.5 96.4999C489.928 99.8537 487.261 103.854 485.5 108.5C483.686 110.764 481.853 113.097 480 115.5C477.607 119.725 475.44 124.058 473.5 128.5C466.866 139.39 459.866 150.057 452.5 160.5C451.5 161.167 450.5 161.833 449.5 162.5C449.414 161.504 449.748 160.671 450.5 160C449.207 159.51 447.873 159.343 446.5 159.5C446.657 160.873 446.49 162.207 446 163.5C445.439 162.978 444.772 162.645 444 162.5C442.662 163.506 441.329 164.506 440 165.5C439.833 165.167 439.667 164.833 439.5 164.5C442.218 161.455 444.884 158.455 447.5 155.5C452.572 149.696 456.905 143.362 460.5 136.5C471.572 119.365 482.905 102.365 494.5 85.4999C501.561 80.0391 500.895 78.7058 492.5 81.4999C492.5 80.4999 492.5 79.4999 492.5 78.4999C496.546 78.1498 500.38 78.8165 504 80.4999C504.402 79.1278 504.902 77.7945 505.5 76.4999C506.614 75.224 507.614 75.224 508.5 76.4999Z" fill="white"/>
<path opacity="0.208" fill-rule="evenodd" clip-rule="evenodd" d="M346.5 130.501C344.366 129.298 343.032 127.464 342.5 125.001C341.833 124.334 341.167 124.334 340.5 125.001C339.544 128.395 339.211 131.895 339.5 135.501C338.353 131.355 338.186 127.021 339 122.501C339.71 121.028 340.876 120.361 342.5 120.501C343.634 123.902 344.968 127.235 346.5 130.501Z" fill="#76B08E"/>
<path fill-rule="evenodd" clip-rule="evenodd" d="M524.5 128.5C523.89 129.391 523.557 130.391 523.5 131.5C521.5 133.5 519.5 135.5 517.5 137.5C517.5 137.167 517.5 136.833 517.5 136.5C518.484 134.52 519.817 132.853 521.5 131.5C522.1 130.1 523.1 129.1 524.5 128.5Z" fill="#866D1B"/>
<path fill-rule="evenodd" clip-rule="evenodd" d="M549.5 126.5C546.079 130.988 542.412 135.321 538.5 139.5C540.979 134.24 544.645 129.907 549.5 126.5Z" fill="#7B641A"/>
<path fill-rule="evenodd" clip-rule="evenodd" d="M516.5 127.5C515.854 129.156 515.187 130.823 514.5 132.5C514.561 134.653 515.561 135.986 517.5 136.5C517.5 136.833 517.5 137.167 517.5 137.5C516.66 139.853 515.326 141.853 513.5 143.5C513.167 143.5 512.833 143.5 512.5 143.5C512.318 141.409 512.652 139.409 513.5 137.5C513.062 136.494 512.396 136.494 511.5 137.5C508.546 143.463 504.879 148.796 500.5 153.5C501.583 149.237 503.75 145.57 507 142.5C508.396 139.936 509.563 137.269 510.5 134.5C512.263 131.98 514.263 129.647 516.5 127.5Z" fill="#605127"/>
<path fill-rule="evenodd" clip-rule="evenodd" d="M346.5 130.5C349.497 135.159 352.497 139.825 355.5 144.5C355.343 145.873 355.51 147.207 356 148.5C359.356 150.219 360.022 152.552 358 155.5C353.033 149.937 348.2 144.27 343.5 138.5C342.675 137.614 341.675 137.281 340.5 137.5C339.662 137.158 339.328 136.492 339.5 135.5C339.211 131.894 339.544 128.394 340.5 125C341.167 124.333 341.833 124.333 342.5 125C343.032 127.463 344.366 129.297 346.5 130.5Z" fill="#1B9048"/>
<path opacity="0.365" fill-rule="evenodd" clip-rule="evenodd" d="M372.5 104.5C372.631 109.978 371.798 115.311 370 120.5C369.5 129.16 369.334 137.827 369.5 146.5C369.5 148.833 369.5 151.167 369.5 153.5C368.357 149.043 367.69 144.376 367.5 139.5C367.611 127.467 369.278 115.8 372.5 104.5Z" fill="white"/>
<path fill-rule="evenodd" clip-rule="evenodd" d="M473.5 128.5C473.328 129.492 473.662 130.158 474.5 130.5C473.559 132.05 472.893 133.716 472.5 135.5C466.421 143.974 460.088 152.308 453.5 160.5C453.167 160.5 452.833 160.5 452.5 160.5C459.866 150.057 466.866 139.39 473.5 128.5Z" fill="#806207"/>
<path fill-rule="evenodd" clip-rule="evenodd" d="M459.5 134.5C459.328 135.492 459.662 136.158 460.5 136.5C456.905 143.362 452.572 149.696 447.5 155.5C451.264 148.297 455.264 141.297 459.5 134.5Z" fill="#7F6202"/>
<path fill-rule="evenodd" clip-rule="evenodd" d="M531.5 132.5C531.081 136.089 529.914 139.423 528 142.5C525.852 143.977 524.518 145.977 524 148.5C523.184 149.823 522.017 150.489 520.5 150.5C523.349 143.988 527.016 137.988 531.5 132.5Z" fill="#645424"/>
<path fill-rule="evenodd" clip-rule="evenodd" d="M538.5 139.5C534.853 145.14 530.853 150.473 526.5 155.5C529.441 149.246 533.441 143.912 538.5 139.5Z" fill="#69551A"/>
<path fill-rule="evenodd" clip-rule="evenodd" d="M580.5 78.5C583.688 78.6178 586.688 79.4511 589.5 81C590.815 82.3946 590.481 83.3946 588.5 84C592.826 83.9068 597.159 83.9068 601.5 84C604.059 85.508 605.726 87.6747 606.5 90.5C604.566 89.8897 602.899 88.8897 601.5 87.5C601.389 86.8826 601.056 86.3826 600.5 86C597.304 85.1955 594.304 85.3622 591.5 86.5C590.432 87.4345 589.099 87.7678 587.5 87.5C582.999 88.0873 578.999 89.7539 575.5 92.5C572.132 92.6548 569.465 93.9881 567.5 96.5C557.336 101.992 548.669 109.325 541.5 118.5C537.679 122.806 534.345 127.473 531.5 132.5C527.016 137.988 523.349 143.988 520.5 150.5C518.484 152.249 516.818 154.249 515.5 156.5C515.337 154.143 515.503 151.81 516 149.5C516.414 149.957 516.914 150.291 517.5 150.5C519.167 148 520.833 145.5 522.5 143C522.903 140.113 524.236 137.779 526.5 136C525.159 132.738 525.492 132.238 527.5 134.5C528.429 133.311 528.762 131.978 528.5 130.5C526.784 130.629 525.117 130.962 523.5 131.5C523.557 130.391 523.89 129.391 524.5 128.5C527.185 125.81 529.518 122.81 531.5 119.5C536.515 112.82 542.515 107.153 549.5 102.5C552.883 100.697 555.883 98.3642 558.5 95.5C561.833 93.1667 565.167 90.8333 568.5 88.5C571.382 86.8921 574.382 85.5587 577.5 84.5C580.653 83.9617 583.653 82.9617 586.5 81.5C584.406 80.4824 582.406 79.4824 580.5 78.5Z" fill="white"/>
<path fill-rule="evenodd" clip-rule="evenodd" d="M591.5 86.4998C594.304 85.362 597.304 85.1953 600.5 85.9998C601.056 86.3824 601.389 86.8824 601.5 87.4998C600.833 87.4998 600.167 87.4998 599.5 87.4998C597.052 86.5267 594.385 86.1934 591.5 86.4998Z" fill="white"/>
<path opacity="0.757" fill-rule="evenodd" clip-rule="evenodd" d="M346.5 151.501C344.868 150.555 343.201 149.555 341.5 148.501C339.689 152.214 340.689 154.547 344.5 155.501C345.448 158.141 346.448 160.808 347.5 163.501C344.531 160.359 341.698 157.026 339 153.501C338.501 149.515 338.334 145.515 338.5 141.501C339.675 141.282 340.675 141.615 341.5 142.501C342.937 145.717 344.604 148.717 346.5 151.501Z" fill="#5AA778"/>
<path fill-rule="evenodd" clip-rule="evenodd" d="M512.5 143.5C512.833 143.5 513.167 143.5 513.5 143.5C512.241 147.025 510.241 150.025 507.5 152.5C508.921 149.322 510.587 146.322 512.5 143.5Z" fill="#786414"/>
<path opacity="0.325" fill-rule="evenodd" clip-rule="evenodd" d="M362.5 152.5C364.89 153.891 366.557 155.891 367.5 158.5C366.833 158.5 366.167 158.5 365.5 158.5C364.5 156.5 363.5 154.5 362.5 152.5Z" fill="#8FCAB2"/>
<path fill-rule="evenodd" clip-rule="evenodd" d="M493.5 148.5C492.66 150.853 491.326 152.853 489.5 154.5C489.845 151.802 491.178 149.802 493.5 148.5Z" fill="#AC8C26"/>
<path fill-rule="evenodd" clip-rule="evenodd" d="M346.5 151.5C348.737 153.647 350.737 155.98 352.5 158.5C353.519 160.54 353.519 162.54 352.5 164.5C350.929 163.691 349.262 163.357 347.5 163.5C346.448 160.807 345.448 158.14 344.5 155.5C340.689 154.546 339.689 152.213 341.5 148.5C343.201 149.554 344.868 150.554 346.5 151.5Z" fill="#178F47"/>
<path fill-rule="evenodd" clip-rule="evenodd" d="M340.5 137.501C341.675 137.282 342.675 137.615 343.5 138.501C348.2 144.271 353.033 149.938 358 155.501C360.022 152.553 359.356 150.22 356 148.501C355.51 147.208 355.343 145.874 355.5 144.501C358.077 146.956 360.411 149.623 362.5 152.501C363.5 154.501 364.5 156.501 365.5 158.501C363.989 157.499 362.322 156.832 360.5 156.501C360.783 160.293 362.783 162.793 366.5 164.001C367.252 164.672 367.586 165.505 367.5 166.501C366.833 166.501 366.167 166.501 365.5 166.501C355.729 158.064 347.396 148.398 340.5 137.501Z" fill="#359359"/>
<path opacity="0.827" fill-rule="evenodd" clip-rule="evenodd" d="M369.5 146.5C371.003 151.953 372.003 157.619 372.5 163.5C371.026 162.564 370.026 161.23 369.5 159.5C369.5 157.5 369.5 155.5 369.5 153.5C369.5 151.167 369.5 148.833 369.5 146.5Z" fill="white"/>
<path fill-rule="evenodd" clip-rule="evenodd" d="M512.5 143.501C510.587 146.323 508.921 149.323 507.5 152.501C507.573 154.028 506.906 155.028 505.5 155.501C503.903 156.091 502.569 157.091 501.5 158.501C500.548 156.956 500.215 155.289 500.5 153.501C504.879 148.797 508.546 143.464 511.5 137.501C512.396 136.495 513.062 136.495 513.5 137.501C512.652 139.41 512.318 141.41 512.5 143.501Z" fill="#514835"/>
<path fill-rule="evenodd" clip-rule="evenodd" d="M520.5 150.5C519.564 153.671 517.897 156.338 515.5 158.5C515.5 157.833 515.5 157.167 515.5 156.5C516.818 154.249 518.484 152.249 520.5 150.5Z" fill="#7F6917"/>
<path fill-rule="evenodd" clip-rule="evenodd" d="M485.5 129.5C485.523 131.6 484.856 133.433 483.5 135C483.836 136.03 484.503 136.53 485.5 136.5C477.865 149.146 470.198 161.813 462.5 174.5C461.833 174.5 461.5 174.167 461.5 173.5C464.513 167.473 467.513 161.473 470.5 155.5C473.244 152.354 475.244 148.687 476.5 144.5C479.248 139.334 482.248 134.334 485.5 129.5Z" fill="#745A0C"/>
<path fill-rule="evenodd" clip-rule="evenodd" d="M500.5 153.5C500.215 155.288 500.548 156.955 501.5 158.5C502.569 157.09 503.903 156.09 505.5 155.5C504.011 158.478 502.511 161.478 501 164.5C499.961 165.71 498.794 166.71 497.5 167.5C497.5 165.833 497.5 164.167 497.5 162.5C498.5 162.5 499.5 162.5 500.5 162.5C500.719 161.325 500.386 160.325 499.5 159.5C497.333 161.453 495.333 163.453 493.5 165.5C495.043 160.976 497.377 156.976 500.5 153.5Z" fill="#645223"/>
<path opacity="0.714" fill-rule="evenodd" clip-rule="evenodd" d="M653.5 154.5C653.5 156.5 653.5 158.5 653.5 160.5C652.167 164.167 650.833 167.833 649.5 171.5C648.835 165.202 650.169 159.535 653.5 154.5Z" fill="white"/>
<path fill-rule="evenodd" clip-rule="evenodd" d="M489.5 154.5C488.424 158.988 486.091 162.655 482.5 165.5C484.462 162.815 485.962 159.815 487 156.5C487.708 155.619 488.542 154.953 489.5 154.5Z" fill="white"/>
<path fill-rule="evenodd" clip-rule="evenodd" d="M391.5 180.5C384.6 175.941 378.267 170.608 372.5 164.5C372.5 164.167 372.5 163.833 372.5 163.5C374.144 163.714 375.644 163.38 377 162.5C379.067 167.565 382.733 170.899 388 172.5C388.003 175.749 389.17 178.416 391.5 180.5Z" fill="white"/>
<path fill-rule="evenodd" clip-rule="evenodd" d="M352.5 158.5C355.725 161.955 358.725 165.622 361.5 169.5C360.143 168.315 358.643 167.315 357 166.5C356.5 166.667 356 166.833 355.5 167C358.595 171.185 361.928 175.185 365.5 179C366.793 179.49 368.127 179.657 369.5 179.5C369.5 180.833 369.5 182.167 369.5 183.5C361.238 177.907 353.904 171.24 347.5 163.5C349.262 163.357 350.929 163.691 352.5 164.5C353.519 162.54 353.519 160.54 352.5 158.5Z" fill="#449C65"/>
<path fill-rule="evenodd" clip-rule="evenodd" d="M515.5 159.5C515.477 161.927 514.977 164.26 514 166.5C510.561 170.429 507.395 174.429 504.5 178.5C507.026 172.771 509.86 167.104 513 161.5C513.708 160.619 514.542 159.953 515.5 159.5Z" fill="#685222"/>
<path opacity="0.31" fill-rule="evenodd" clip-rule="evenodd" d="M365.5 166.5C366.167 166.5 366.833 166.5 367.5 166.5C368.5 167.833 369.5 169.167 370.5 170.5C368.251 169.92 366.585 168.587 365.5 166.5Z" fill="#AADCC8"/>
<path fill-rule="evenodd" clip-rule="evenodd" d="M365.5 158.5C366.167 158.5 366.833 158.5 367.5 158.5C368.167 158.833 368.833 159.167 369.5 159.5C370.026 161.23 371.026 162.564 372.5 163.5C372.5 163.833 372.5 164.167 372.5 164.5C373.372 166.948 374.705 169.115 376.5 171C375.244 171.417 374.577 172.25 374.5 173.5C373.833 173.5 373.167 173.5 372.5 173.5C371.833 172.5 371.167 171.5 370.5 170.5C369.5 169.167 368.5 167.833 367.5 166.5C367.586 165.504 367.252 164.671 366.5 164C362.783 162.792 360.783 160.292 360.5 156.5C362.322 156.831 363.989 157.498 365.5 158.5Z" fill="#23903F"/>
<path fill-rule="evenodd" clip-rule="evenodd" d="M452.5 160.5C452.833 160.5 453.167 160.5 453.5 160.5C450.865 164.743 447.532 168.41 443.5 171.5C442.479 170.998 442.312 170.332 443 169.5C445.033 166.97 447.2 164.637 449.5 162.5C450.5 161.833 451.5 161.167 452.5 160.5Z" fill="white"/>
<path opacity="0.549" fill-rule="evenodd" clip-rule="evenodd" d="M352.5 173.5C349.306 172.319 346.639 170.319 344.5 167.5C343.488 169.837 343.655 172.17 345 174.5C347.072 175.734 348.572 177.401 349.5 179.5C342.715 176 339.715 170.334 340.5 162.5C341.552 162.351 342.552 162.517 343.5 163C346.336 166.667 349.336 170.167 352.5 173.5Z" fill="#52A273"/>
<path opacity="0.427" fill-rule="evenodd" clip-rule="evenodd" d="M362.5 169.5C364.5 170.833 366.167 172.5 367.5 174.5C364.833 173.833 363.167 172.167 362.5 169.5Z" fill="#98D1AF"/>
<path fill-rule="evenodd" clip-rule="evenodd" d="M524.5 159.5C522.234 163.034 520.234 166.7 518.5 170.5C516.159 173.506 513.825 176.506 511.5 179.5C512.03 177.076 512.864 174.743 514 172.5C517.059 167.66 520.559 163.327 524.5 159.5Z" fill="#675219"/>
<path fill-rule="evenodd" clip-rule="evenodd" d="M591.5 86.5007C594.385 86.1943 597.052 86.5276 599.5 87.5007C600.648 89.7557 602.314 91.589 604.5 93.0007C602.5 93.334 600.5 93.6674 598.5 94.0007C596.261 95.7816 593.928 97.2816 591.5 98.5007C586.042 98.8656 580.708 99.8656 575.5 101.501C575.649 102.553 575.483 103.553 575 104.501C569.596 108.047 563.763 110.714 557.5 112.501C558.376 113.252 559.376 113.752 560.5 114.001C559.167 114.334 557.833 114.668 556.5 115.001C557.056 115.384 557.389 115.884 557.5 116.501C555.213 120.123 552.547 123.456 549.5 126.501C544.645 129.908 540.979 134.241 538.5 139.501C533.441 143.913 529.441 149.247 526.5 155.501C526.771 157.381 526.104 158.714 524.5 159.501C520.559 163.328 517.059 167.661 514 172.501C512.864 174.744 512.03 177.077 511.5 179.501C511.5 180.168 511.167 180.501 510.5 180.501C509.265 180.722 508.265 181.389 507.5 182.501C504.83 187.52 502.163 192.52 499.5 197.501C496.883 202.115 493.883 206.448 490.5 210.501C489.5 210.501 488.5 210.501 487.5 210.501C487.517 208.436 487.85 206.436 488.5 204.501C492.566 201.366 495.4 197.366 497 192.501C501.301 188.74 503.801 184.073 504.5 178.501C507.395 174.43 510.561 170.43 514 166.501C514.977 164.261 515.477 161.928 515.5 159.501C515.5 159.168 515.5 158.834 515.5 158.501C517.897 156.339 519.564 153.672 520.5 150.501C522.017 150.49 523.184 149.824 524 148.501C524.518 145.978 525.852 143.978 528 142.501C529.914 139.424 531.081 136.09 531.5 132.501C534.802 129.027 537.968 125.36 541 121.501C541.483 120.553 541.649 119.553 541.5 118.501C547.73 113.026 554.063 107.526 560.5 102.001C563.705 101.089 566.039 99.2557 567.5 96.5007C570.899 96.3922 573.566 95.0589 575.5 92.5007C580.001 91.9134 584.001 90.2468 587.5 87.5007C589.099 87.7685 590.432 87.4352 591.5 86.5007Z" fill="#4D473A"/>
<path fill-rule="evenodd" clip-rule="evenodd" d="M493.5 165.5C491.824 170.867 489.157 175.534 485.5 179.5C487.417 175.601 489.251 171.601 491 167.5C491.708 166.619 492.542 165.953 493.5 165.5Z" fill="#78641A"/>
<path fill-rule="evenodd" clip-rule="evenodd" d="M497.5 167.5C493.309 175.363 488.309 182.696 482.5 189.5C482.448 187.097 482.781 184.764 483.5 182.5C483.427 180.973 484.094 179.973 485.5 179.5C489.157 175.534 491.824 170.867 493.5 165.5C495.333 163.453 497.333 161.453 499.5 159.5C500.386 160.325 500.719 161.325 500.5 162.5C499.5 162.5 498.5 162.5 497.5 162.5C497.5 164.167 497.5 165.833 497.5 167.5Z" fill="#54492C"/>
<path fill-rule="evenodd" clip-rule="evenodd" d="M372.5 173.5C373.167 173.5 373.833 173.5 374.5 173.5C376.662 174.128 378.328 175.461 379.5 177.5C378.033 176.708 376.7 176.708 375.5 177.5C376.309 179.071 376.643 180.738 376.5 182.5C375.833 182.5 375.5 182.167 375.5 181.5C374.499 178.828 373.499 176.162 372.5 173.5Z" fill="white"/>
<path opacity="0.125" fill-rule="evenodd" clip-rule="evenodd" d="M370.5 176.5C371.906 176.973 372.573 177.973 372.5 179.5C371.094 179.027 370.427 178.027 370.5 176.5Z" fill="#B4D9C0"/>
<path fill-rule="evenodd" clip-rule="evenodd" d="M539.5 78.5C535.859 81.9683 532.026 85.3016 528 88.5C524.702 92.7998 521.035 96.7998 517 100.5C516.209 101.745 515.709 103.078 515.5 104.5C512.551 106.373 510.551 109.039 509.5 112.5C504.057 118.118 499.557 124.451 496 131.5C489.718 143.564 483.552 155.564 477.5 167.5C469.934 180.408 461.934 193.075 453.5 205.5C452.611 207.736 451.278 209.736 449.5 211.5C448.604 212.506 447.938 212.506 447.5 211.5C451.059 205.319 454.892 199.319 459 193.5C459.2 190.266 460.033 187.266 461.5 184.5C461.167 183.833 460.833 183.167 460.5 182.5C459.719 183.729 459.219 185.062 459 186.5C458.667 185.5 458.333 184.5 458 183.5C456.346 186.682 454.346 189.682 452 192.5C451.667 191.833 451.333 191.167 451 190.5C448.772 193.64 446.105 196.306 443 198.5C442.493 197.004 442.993 195.837 444.5 195C443.643 194.311 442.977 193.478 442.5 192.5C446.393 191.1 448.393 188.6 448.5 185C449.449 184.383 450.282 184.549 451 185.5C452.689 181.143 455.189 177.31 458.5 174C457.062 171.634 457.562 171.134 460 172.5C462.634 168.065 465.134 163.565 467.5 159C467.241 157.739 466.574 156.739 465.5 156C467.134 155.506 468.801 155.34 470.5 155.5C467.513 161.473 464.513 167.473 461.5 173.5C459.956 176.557 457.789 179.224 455 181.5C453.642 183.859 452.642 186.193 452 188.5C456.102 184.239 459.602 179.572 462.5 174.5C470.198 161.813 477.865 149.146 485.5 136.5C490.93 128.102 496.264 119.769 501.5 111.5C504.064 108.72 506.397 105.72 508.5 102.5C510.5 99.8333 512.833 97.5 515.5 95.5C518.167 92.5 520.833 89.5 523.5 86.5C524.436 85.0256 525.77 84.0256 527.5 83.5C529.754 82.8763 531.421 81.543 532.5 79.5C534.583 78.4123 536.749 77.4123 539 76.5C539.464 77.0944 539.631 77.7611 539.5 78.5Z" fill="white"/>
<path fill-rule="evenodd" clip-rule="evenodd" d="M352.5 173.5C354.167 174.5 355.5 175.833 356.5 177.5C356.709 178.922 357.209 180.255 358 181.5C362.002 183.67 365.169 186.67 367.5 190.5C366.833 190.833 366.167 191.167 365.5 191.5C363.711 190.037 361.711 189.037 359.5 188.5C355.518 186.183 352.185 183.183 349.5 179.5C348.572 177.401 347.072 175.734 345 174.5C343.655 172.17 343.488 169.837 344.5 167.5C346.639 170.319 349.306 172.319 352.5 173.5Z" fill="#198E46"/>
<path opacity="0.996" fill-rule="evenodd" clip-rule="evenodd" d="M361.5 169.5C361.833 169.5 362.167 169.5 362.5 169.5C363.167 172.167 364.833 173.833 367.5 174.5C368.5 175.167 369.5 175.833 370.5 176.5C370.427 178.027 371.094 179.027 372.5 179.5C373.5 180.167 374.5 180.833 375.5 181.5C375.5 182.167 375.833 182.5 376.5 182.5C377.167 183.5 377.833 184.5 378.5 185.5C378.5 186.167 378.5 186.833 378.5 187.5C376.565 186.85 374.565 186.517 372.5 186.5C371.167 185.833 370.167 184.833 369.5 183.5C369.5 182.167 369.5 180.833 369.5 179.5C368.127 179.657 366.793 179.49 365.5 179C361.928 175.185 358.595 171.185 355.5 167C356 166.833 356.5 166.667 357 166.5C358.643 167.315 360.143 168.315 361.5 169.5Z" fill="#26904A"/>
<path fill-rule="evenodd" clip-rule="evenodd" d="M518.5 170.5C517.241 174.048 516.407 177.715 516 181.5C514.933 182.191 513.766 182.691 512.5 183C511.002 185.482 509.502 187.982 508 190.5C506.887 191.305 505.721 191.972 504.5 192.5C506.502 188.495 508.502 184.495 510.5 180.5C511.167 180.5 511.5 180.167 511.5 179.5C513.825 176.506 516.159 173.506 518.5 170.5Z" fill="white"/>
<path fill-rule="evenodd" clip-rule="evenodd" d="M504.5 178.5C503.801 184.072 501.301 188.739 497 192.5C495.4 197.365 492.566 201.365 488.5 204.5C493.445 195.564 498.778 186.897 504.5 178.5Z" fill="#6F5A1F"/>
<path fill-rule="evenodd" clip-rule="evenodd" d="M461.5 173.5C461.5 174.167 461.833 174.5 462.5 174.5C459.602 179.572 456.102 184.239 452 188.5C452.642 186.193 453.642 183.859 455 181.5C457.789 179.224 459.956 176.557 461.5 173.5Z" fill="#9F7602"/>
<path fill-rule="evenodd" clip-rule="evenodd" d="M477.5 167.5C477.123 169.258 476.456 170.925 475.5 172.5C475.957 173.298 476.624 173.631 477.5 173.5C471.89 182.442 465.89 191.109 459.5 199.5C457.861 201.806 455.861 203.806 453.5 205.5C461.934 193.075 469.934 180.408 477.5 167.5Z" fill="#7B6009"/>
<path fill-rule="evenodd" clip-rule="evenodd" d="M510.5 134.5C509.563 137.269 508.396 139.936 507 142.5C503.75 145.57 501.583 149.237 500.5 153.5C497.377 156.976 495.043 160.976 493.5 165.5C492.542 165.953 491.708 166.619 491 167.5C489.251 171.601 487.417 175.601 485.5 179.5C484.094 179.973 483.427 180.973 483.5 182.5C476.811 191.87 470.478 201.537 464.5 211.5C459.843 217.823 454.51 223.49 448.5 228.5C445.606 227.118 443.106 225.118 441 222.5C440.482 219.977 439.148 217.977 437 216.5C436.506 214.866 436.34 213.199 436.5 211.5C435.5 211.5 434.5 211.5 433.5 211.5C435.556 210.801 437.556 209.801 439.5 208.5C439.833 208.833 440.167 209.167 440.5 209.5C439.689 210.216 439.022 211.05 438.5 212C438.734 215.688 440.567 218.854 444 221.5C447.401 219.575 450.901 218.908 454.5 219.5C455.298 217.922 455.798 216.256 456 214.5C456.308 215.308 456.808 215.975 457.5 216.5C458.576 211.972 461.242 208.972 465.5 207.5C465.5 206.167 465.5 204.833 465.5 203.5C466.5 203.5 467.5 203.5 468.5 203.5C468.67 202.178 468.337 201.011 467.5 200C468.253 198.513 469.086 198.346 470 199.5C469.376 195.648 470.21 191.981 472.5 188.5C471.038 187.529 469.705 187.862 468.5 189.5C467.721 193.057 466.388 196.391 464.5 199.5C462.997 198.948 461.331 198.948 459.5 199.5C465.89 191.109 471.89 182.442 477.5 173.5C478.669 170.489 480.336 167.822 482.5 165.5C486.091 162.655 488.424 158.988 489.5 154.5C491.326 152.853 492.66 150.853 493.5 148.5C494.475 146.205 495.808 144.205 497.5 142.5C498.721 141.972 499.887 141.305 501 140.5C503.5 136.833 506 133.167 508.5 129.5C509.562 131.022 510.229 132.688 510.5 134.5Z" fill="white"/>
<path fill-rule="evenodd" clip-rule="evenodd" d="M391.5 180.5C395.478 182.325 399.478 184.325 403.5 186.5C404.322 188.139 404.989 189.805 405.5 191.5C400.254 188.589 395.587 184.922 391.5 180.5Z" fill="white"/>
<path opacity="0.973" fill-rule="evenodd" clip-rule="evenodd" d="M372.5 186.5C374.565 186.517 376.565 186.85 378.5 187.5C378.683 189.988 379.683 191.988 381.5 193.5C378.5 191.167 375.5 188.833 372.5 186.5Z" fill="#63AD81"/>
<path opacity="0.875" fill-rule="evenodd" clip-rule="evenodd" d="M647.5 179.5C646.352 183.787 644.685 187.787 642.5 191.5C642.788 186.893 644.455 182.893 647.5 179.5Z" fill="white"/>
<path fill-rule="evenodd" clip-rule="evenodd" d="M510.5 180.5C508.502 184.495 506.502 188.495 504.5 192.5C503.194 194.473 501.527 196.139 499.5 197.5C502.163 192.519 504.83 187.519 507.5 182.5C508.265 181.388 509.265 180.721 510.5 180.5Z" fill="#64511D"/>
<path fill-rule="evenodd" clip-rule="evenodd" d="M379.5 177.5C386.524 182.864 393.524 188.198 400.5 193.5C396.822 192.245 393.322 190.578 390 188.5C387.389 189.5 386.889 191.167 388.5 193.5C384.897 191.237 381.564 188.57 378.5 185.5C377.833 184.5 377.167 183.5 376.5 182.5C376.643 180.738 376.309 179.071 375.5 177.5C376.7 176.708 378.033 176.708 379.5 177.5Z" fill="white"/>
<path opacity="0.576" fill-rule="evenodd" clip-rule="evenodd" d="M367.5 187.5C369.461 188.46 371.127 189.793 372.5 191.5C369.937 191.269 368.27 189.935 367.5 187.5Z" fill="#99CFAD"/>
<path fill-rule="evenodd" clip-rule="evenodd" d="M372.5 164.5C378.267 170.608 384.6 175.941 391.5 180.5C395.587 184.922 400.254 188.589 405.5 191.5C408.539 194.54 411.873 197.206 415.5 199.5C416.585 201.587 418.251 202.92 420.5 203.5C420.833 204.5 421.5 205.167 422.5 205.5C422.672 206.492 422.338 207.158 421.5 207.5C414.5 202.833 407.5 198.167 400.5 193.5C393.524 188.198 386.524 182.864 379.5 177.5C378.328 175.461 376.662 174.128 374.5 173.5C374.577 172.25 375.244 171.417 376.5 171C374.705 169.115 373.372 166.948 372.5 164.5Z" fill="#3E8F1C"/>
<path fill-rule="evenodd" clip-rule="evenodd" d="M415.5 199.5C411.873 197.206 408.539 194.54 405.5 191.5C407.117 192.038 408.784 192.371 410.5 192.5C410.351 191.448 410.517 190.448 411 189.5C413.827 191.086 413.993 192.752 411.5 194.5C412.857 196.186 414.19 197.852 415.5 199.5Z" fill="white"/>
<path fill-rule="evenodd" clip-rule="evenodd" d="M356.5 177.5C360.817 180.152 364.484 183.485 367.5 187.5C368.27 189.935 369.937 191.269 372.5 191.5C376.143 194.135 379.81 196.801 383.5 199.5C383.833 200.167 384.167 200.833 384.5 201.5C383.687 202.653 382.687 202.653 381.5 201.5C380.614 202.325 380.281 203.325 380.5 204.5C372.592 200.377 365.592 195.044 359.5 188.5C361.711 189.037 363.711 190.037 365.5 191.5C366.167 191.167 366.833 190.833 367.5 190.5C365.169 186.67 362.002 183.67 358 181.5C357.209 180.255 356.709 178.922 356.5 177.5Z" fill="#3D995C"/>
<path fill-rule="evenodd" clip-rule="evenodd" d="M378.5 185.5C381.564 188.57 384.897 191.237 388.5 193.5C390.527 196.194 392.861 198.527 395.5 200.5C396.29 201.794 397.29 202.961 398.5 204C397.552 204.483 396.552 204.649 395.5 204.5C394.738 202.738 393.404 201.738 391.5 201.5C388.571 198.364 385.238 195.697 381.5 193.5C379.683 191.988 378.683 189.988 378.5 187.5C378.5 186.833 378.5 186.167 378.5 185.5Z" fill="#438C18"/>
<path opacity="0.082" fill-rule="evenodd" clip-rule="evenodd" d="M642.5 191.5C641.958 194.912 640.625 197.912 638.5 200.5C639.159 197.545 639.492 194.545 639.5 191.5C640.5 191.5 641.5 191.5 642.5 191.5Z" fill="white"/>
<path fill-rule="evenodd" clip-rule="evenodd" d="M483.5 182.5C482.781 184.764 482.448 187.097 482.5 189.5C478.186 198.114 472.852 206.114 466.5 213.5C465.167 213.5 464.5 212.833 464.5 211.5C470.478 201.537 476.811 191.87 483.5 182.5Z" fill="#63521B"/>
<path fill-rule="evenodd" clip-rule="evenodd" d="M381.5 193.5C385.238 195.697 388.571 198.364 391.5 201.5C387.097 199.967 386.431 201.301 389.5 205.5C387.539 204.54 385.873 203.207 384.5 201.5C384.167 200.833 383.833 200.167 383.5 199.5C382.833 197.5 382.167 195.5 381.5 193.5Z" fill="white"/>
<path fill-rule="evenodd" clip-rule="evenodd" d="M415.5 199.5C417.749 200.08 419.415 201.413 420.5 203.5C418.251 202.92 416.585 201.587 415.5 199.5Z" fill="white"/>
<path opacity="0.957" fill-rule="evenodd" clip-rule="evenodd" d="M380.5 204.5C386.553 205.683 390.887 209.017 393.5 214.5C389.143 211.136 384.809 207.802 380.5 204.5Z" fill="#50A167"/>
<path opacity="0.486" fill-rule="evenodd" clip-rule="evenodd" d="M637.5 202.5C636.32 205.54 634.653 208.206 632.5 210.5C632.35 206.53 634.017 203.863 637.5 202.5Z" fill="white"/>
<path fill-rule="evenodd" clip-rule="evenodd" d="M515.5 156.5C515.5 157.167 515.5 157.833 515.5 158.5C515.5 158.833 515.5 159.167 515.5 159.5C514.542 159.953 513.708 160.619 513 161.5C509.86 167.104 507.026 172.771 504.5 178.5C498.778 186.897 493.445 195.564 488.5 204.5C486.546 208.725 483.88 212.392 480.5 215.5C473.485 223.846 466.152 231.846 458.5 239.5C457.833 239.5 457.5 239.833 457.5 240.5C451.184 244.473 444.851 248.473 438.5 252.5C436.435 252.483 434.435 252.15 432.5 251.5C429.86 250.18 427.193 248.847 424.5 247.5C424.5 247.167 424.5 246.833 424.5 246.5C432.093 244.037 438.759 240.037 444.5 234.5C452.476 228.261 459.809 221.261 466.5 213.5C472.852 206.114 478.186 198.114 482.5 189.5C488.309 182.696 493.309 175.363 497.5 167.5C498.794 166.71 499.961 165.71 501 164.5C502.511 161.478 504.011 158.478 505.5 155.5C506.906 155.027 507.573 154.027 507.5 152.5C510.241 150.025 512.241 147.025 513.5 143.5C515.326 141.853 516.66 139.853 517.5 137.5C519.5 135.5 521.5 133.5 523.5 131.5C525.117 130.962 526.784 130.629 528.5 130.5C528.762 131.978 528.429 133.311 527.5 134.5C525.492 132.238 525.159 132.738 526.5 136C524.236 137.779 522.903 140.113 522.5 143C520.833 145.5 519.167 148 517.5 150.5C516.914 150.291 516.414 149.957 516 149.5C515.503 151.81 515.337 154.143 515.5 156.5Z" fill="white"/>
<path fill-rule="evenodd" clip-rule="evenodd" d="M395.5 200.5C403.445 206.776 410.778 213.776 417.5 221.5C417.103 222.525 416.437 222.692 415.5 222C409.505 215.157 402.838 209.323 395.5 204.5C396.552 204.649 397.552 204.483 398.5 204C397.29 202.961 396.29 201.794 395.5 200.5Z" fill="#749608"/>
<path fill-rule="evenodd" clip-rule="evenodd" d="M422.5 205.5C423.71 205.932 424.71 206.599 425.5 207.5C429.86 212.527 434.527 217.194 439.5 221.5C437.745 220.928 436.078 220.094 434.5 219C430.022 215.132 425.689 211.299 421.5 207.5C422.338 207.158 422.672 206.492 422.5 205.5Z" fill="#709507"/>
<path fill-rule="evenodd" clip-rule="evenodd" d="M389.5 205.5C393.1 207.43 396.1 210.097 398.5 213.5C398.167 213.5 397.833 213.5 397.5 213.5C394.5 211.167 391.833 208.5 389.5 205.5Z" fill="white"/>
<path opacity="0.984" fill-rule="evenodd" clip-rule="evenodd" d="M384.5 201.5C385.873 203.207 387.539 204.54 389.5 205.5C391.833 208.5 394.5 211.167 397.5 213.5C397.5 214.167 397.5 214.833 397.5 215.5C397.167 215.5 396.833 215.5 396.5 215.5C395.609 214.89 394.609 214.557 393.5 214.5C390.887 209.017 386.553 205.683 380.5 204.5C380.281 203.325 380.614 202.325 381.5 201.5C382.687 202.653 383.687 202.653 384.5 201.5Z" fill="#338B2A"/>
<path fill-rule="evenodd" clip-rule="evenodd" d="M425.5 207.5C427.948 209.284 430.615 210.618 433.5 211.5C434.5 211.5 435.5 211.5 436.5 211.5C436.34 213.199 436.506 214.866 437 216.5C439.148 217.977 440.482 219.977 441 222.5C443.106 225.118 445.606 227.118 448.5 228.5C447.833 229.833 446.833 230.833 445.5 231.5C445.649 230.448 445.483 229.448 445 228.5C442.546 226.559 440.713 224.225 439.5 221.5C434.527 217.194 429.86 212.527 425.5 207.5Z" fill="white"/>
<path opacity="0.059" fill-rule="evenodd" clip-rule="evenodd" d="M251.5 215.499C253.898 215.258 255.898 215.925 257.5 217.499C255.214 217.404 253.214 216.737 251.5 215.499Z" fill="white"/>
<path opacity="0.616" fill-rule="evenodd" clip-rule="evenodd" d="M393.5 214.5C394.609 214.557 395.609 214.89 396.5 215.5C396.833 216.833 397.167 218.167 397.5 219.5C395.937 218.055 394.604 216.389 393.5 214.5Z" fill="#B7C372"/>
<path fill-rule="evenodd" clip-rule="evenodd" d="M397.5 213.5C397.833 213.5 398.167 213.5 398.5 213.5C402.837 216.847 406.504 220.847 409.5 225.5C407.772 223.774 405.772 222.441 403.5 221.5C401.5 219.5 399.5 217.5 397.5 215.5C397.5 214.833 397.5 214.167 397.5 213.5Z" fill="#6C9104"/>
<path opacity="0.703" fill-rule="evenodd" clip-rule="evenodd" d="M37.5 218.5C37.5 218.167 37.5 217.833 37.5 217.5C50.5043 217.333 63.5043 217.5 76.5 218C82.3902 218.728 88.0568 219.895 93.5 221.5C74.8526 220.097 56.186 219.097 37.5 218.5Z" fill="white"/>
<path opacity="0.99" fill-rule="evenodd" clip-rule="evenodd" d="M251.5 215.5C253.214 216.738 255.214 217.405 257.5 217.5C267.25 219.378 275.917 223.378 283.5 229.5C273.507 225.987 263.507 222.153 253.5 218C242.272 215.702 230.939 215.035 219.5 216C210.564 218.317 201.564 220.484 192.5 222.5C192.5 222.167 192.5 221.833 192.5 221.5C202.136 216.688 212.47 214.188 223.5 214C232.89 213.415 242.224 213.915 251.5 215.5Z" fill="white"/>
<path opacity="0.992" fill-rule="evenodd" clip-rule="evenodd" d="M354.5 215.5C353.365 216.474 352.365 217.641 351.5 219C345.436 219.266 341.27 222.099 339 227.5C338.047 225.627 336.88 225.294 335.5 226.5C335.859 224.629 336.859 223.129 338.5 222C343.157 218.17 348.491 216.003 354.5 215.5Z" fill="white"/>
<path opacity="0.984" fill-rule="evenodd" clip-rule="evenodd" d="M396.5 215.5C396.833 215.5 397.167 215.5 397.5 215.5C399.5 217.5 401.5 219.5 403.5 221.5C402.624 221.369 401.957 221.702 401.5 222.5C402.526 224.831 403.86 226.831 405.5 228.5C404.279 227.972 403.113 227.305 402 226.5C400.963 223.733 399.463 221.399 397.5 219.5C397.167 218.167 396.833 216.833 396.5 215.5Z" fill="white"/>
<path fill-rule="evenodd" clip-rule="evenodd" d="M627.5 217.5C624.882 221.291 622.049 224.957 619 228.5C617.549 230.464 615.716 231.797 613.5 232.5C612.986 230.488 612.82 228.488 613 226.5C614.067 228.283 615.567 228.783 617.5 228C617.307 221.028 620.64 217.528 627.5 217.5Z" fill="white"/>
<path fill-rule="evenodd" clip-rule="evenodd" d="M394.5 226.499C387.433 223.3 380.433 219.8 373.5 215.999C367.509 215.5 361.509 215.333 355.5 215.499C367.468 212.479 378.801 214.312 389.5 220.999C391.766 222.425 393.432 224.259 394.5 226.499Z" fill="white"/>
<path opacity="0.149" fill-rule="evenodd" clip-rule="evenodd" d="M93.5 221.5C95.153 221.66 96.4863 222.326 97.5 223.5C95.6203 223.771 94.287 223.104 93.5 221.5Z" fill="white"/>
<path opacity="0.114" fill-rule="evenodd" clip-rule="evenodd" d="M192.5 221.5C192.5 221.833 192.5 222.167 192.5 222.5C190.95 223.441 189.284 224.107 187.5 224.5C188.659 222.75 190.326 221.75 192.5 221.5Z" fill="white"/>
<path fill-rule="evenodd" clip-rule="evenodd" d="M391.5 201.5C393.404 201.738 394.738 202.738 395.5 204.5C402.838 209.323 409.505 215.157 415.5 222C416.437 222.692 417.103 222.525 417.5 221.5C419.555 222.948 421.722 224.281 424 225.5C424.26 227.618 425.26 229.284 427 230.5C427.667 232.167 427.667 233.833 427 235.5C424.167 232 421.333 228.5 418.5 225C416.553 224.009 414.553 223.675 412.5 224C419.151 234.678 418.151 235.178 409.5 225.5C406.504 220.847 402.837 216.847 398.5 213.5C396.1 210.097 393.1 207.43 389.5 205.5C386.431 201.301 387.097 199.967 391.5 201.5Z" fill="white"/>
<path fill-rule="evenodd" clip-rule="evenodd" d="M483.5 220.5C480.805 223.526 478.138 226.526 475.5 229.5C476.768 225.233 479.435 222.233 483.5 220.5Z" fill="#796417"/>
<path fill-rule="evenodd" clip-rule="evenodd" d="M400.5 193.5C407.5 198.167 414.5 202.833 421.5 207.5C425.689 211.299 430.022 215.132 434.5 219C436.078 220.094 437.745 220.928 439.5 221.5C440.713 224.225 442.546 226.559 445 228.5C445.483 229.448 445.649 230.448 445.5 231.5C445.167 232.5 444.5 233.167 443.5 233.5C439.675 236.477 435.675 239.311 431.5 242C428.691 243.741 425.691 244.908 422.5 245.5C420.577 242.397 418.41 239.397 416 236.5C414.67 235.418 413.17 234.751 411.5 234.5C411.368 231.203 409.702 229.537 406.5 229.5C405.833 229.5 405.5 229.167 405.5 228.5C403.86 226.831 402.526 224.831 401.5 222.5C401.957 221.702 402.624 221.369 403.5 221.5C405.772 222.441 407.772 223.774 409.5 225.5C418.151 235.178 419.151 234.678 412.5 224C414.553 223.675 416.553 224.009 418.5 225C421.333 228.5 424.167 232 427 235.5C427.667 233.833 427.667 232.167 427 230.5C425.26 229.284 424.26 227.618 424 225.5C421.722 224.281 419.555 222.948 417.5 221.5C410.778 213.776 403.445 206.776 395.5 200.5C392.861 198.527 390.527 196.194 388.5 193.5C386.889 191.167 387.389 189.5 390 188.5C393.322 190.578 396.822 192.245 400.5 193.5Z" fill="white"/>
<path fill-rule="evenodd" clip-rule="evenodd" d="M464.5 211.5C464.5 212.833 465.167 213.5 466.5 213.5C459.809 221.261 452.476 228.261 444.5 234.5C443.833 234.5 443.5 234.167 443.5 233.5C444.5 233.167 445.167 232.5 445.5 231.5C446.833 230.833 447.833 229.833 448.5 228.5C454.51 223.49 459.843 217.823 464.5 211.5Z" fill="#735B06"/>
<path fill-rule="evenodd" clip-rule="evenodd" d="M486.5 217.5C485.35 222.453 483.516 227.12 481 231.5C479.951 230.483 478.784 230.316 477.5 231C476.671 232.816 475.837 234.649 475 236.5C474.439 235.978 473.772 235.645 473 235.5C471.403 236.885 469.57 237.551 467.5 237.5C467.977 241.866 466.144 244.866 462 246.5C460.644 245.62 459.144 245.286 457.5 245.5C463.177 239.824 469.177 234.491 475.5 229.5C478.138 226.526 480.805 223.526 483.5 220.5C484.167 219.167 485.167 218.167 486.5 217.5Z" fill="white"/>
<path fill-rule="evenodd" clip-rule="evenodd" d="M406.5 229.5C409.702 229.537 411.368 231.203 411.5 234.5C408.833 233.833 407.167 232.167 406.5 229.5Z" fill="white"/>
<path opacity="0.992" fill-rule="evenodd" clip-rule="evenodd" d="M395.5 226.5C398.19 228.193 400.19 230.527 401.5 233.5C400.883 233.611 400.383 233.944 400 234.5C397.026 232.618 395.526 229.951 395.5 226.5Z" fill="white"/>
<path fill-rule="evenodd" clip-rule="evenodd" d="M488.5 204.5C487.85 206.435 487.517 208.435 487.5 210.5C488.5 210.5 489.5 210.5 490.5 210.5C489.431 212.969 488.098 215.302 486.5 217.5C485.167 218.167 484.167 219.167 483.5 220.5C479.435 222.233 476.768 225.233 475.5 229.5C469.177 234.491 463.177 239.824 457.5 245.5C455.833 246.167 454.167 246.833 452.5 247.5C451.475 247.103 451.308 246.437 452 245.5C454.191 244.167 456.024 242.5 457.5 240.5C457.5 239.833 457.833 239.5 458.5 239.5C467.614 233.056 474.947 225.056 480.5 215.5C483.88 212.392 486.546 208.725 488.5 204.5Z" fill="#574B29"/>
<path fill-rule="evenodd" clip-rule="evenodd" d="M399.5 245.5C397.683 248.575 395.016 249.741 391.5 249C387.194 243.36 382.194 238.36 376.5 234C374.846 233.392 373.179 232.892 371.5 232.5C367.956 230.431 364.29 230.098 360.5 231.5C359.167 231.5 357.833 231.5 356.5 231.5C362.136 229.956 367.969 228.956 374 228.5C377.187 231.482 381.021 232.816 385.5 232.5C385.881 237.088 387.047 237.422 389 233.5C389.728 236.23 389.562 238.897 388.5 241.5C390.913 246.194 394.58 247.527 399.5 245.5Z" fill="white"/>
<path fill-rule="evenodd" clip-rule="evenodd" d="M480.5 215.5C474.947 225.056 467.614 233.056 458.5 239.5C466.152 231.846 473.485 223.846 480.5 215.5Z" fill="#766117"/>
<path opacity="0.976" fill-rule="evenodd" clip-rule="evenodd" d="M411.5 234.5C413.17 234.751 414.67 235.418 416 236.5C418.41 239.397 420.577 242.397 422.5 245.5C418.446 242.112 414.779 238.446 411.5 234.5Z" fill="white"/>
<path opacity="0.949" fill-rule="evenodd" clip-rule="evenodd" d="M401.5 233.5C408.501 238.152 408.168 242.152 400.5 245.5C400.5 244.5 400.5 243.5 400.5 242.5C401.5 242.5 402.5 242.5 403.5 242.5C403.595 239.308 402.929 236.308 401.5 233.5Z" fill="white"/>
<path opacity="0.667" fill-rule="evenodd" clip-rule="evenodd" d="M23.5 217.5C28.1667 217.5 32.8333 217.5 37.5 217.5C37.5 217.833 37.5 218.167 37.5 218.5C31.7307 217.932 26.3973 218.932 21.5 221.5C20.5011 272.664 20.1678 323.997 20.5 375.5C24.1817 375.665 27.8484 375.499 31.5 375C32 374.5 32.5 374 33 373.5C34.1145 350.038 34.9479 326.704 35.5 303.5C35.5 327.833 35.5 352.167 35.5 376.5C30.1667 376.5 24.8333 376.5 19.5 376.5C19.5 323.833 19.5 271.167 19.5 218.5C21.099 218.768 22.4324 218.434 23.5 217.5Z" fill="white"/>
<path fill-rule="evenodd" clip-rule="evenodd" d="M97.5 223.5C105.503 226.836 111.169 232.503 114.5 240.5C113.009 240.099 111.342 239.932 109.5 240C108.072 235.136 105.406 231.136 101.5 228C100.207 227.51 98.8734 227.343 97.5 227.5C97.5 226.167 97.5 224.833 97.5 223.5Z" fill="white"/>
<path opacity="0.329" fill-rule="evenodd" clip-rule="evenodd" d="M169.5 237.5C168.92 239.749 167.587 241.415 165.5 242.5C166.08 240.251 167.413 238.585 169.5 237.5Z" fill="white"/>
<path fill-rule="evenodd" clip-rule="evenodd" d="M443.5 233.5C443.5 234.167 443.833 234.5 444.5 234.5C438.759 240.037 432.093 244.037 424.5 246.5C423.833 246.5 423.167 246.5 422.5 246.5C422.5 246.167 422.5 245.833 422.5 245.5C425.691 244.908 428.691 243.741 431.5 242C435.675 239.311 439.675 236.477 443.5 233.5Z" fill="#A57E0E"/>
<path fill-rule="evenodd" clip-rule="evenodd" d="M604.5 241.5C599.393 246.27 593.727 250.27 587.5 253.5C588.234 252.292 588.567 250.959 588.5 249.5C589.5 249.5 590.5 249.5 591.5 249.5C591.343 248.127 591.51 246.793 592 245.5C593.516 248.051 594.349 247.718 594.5 244.5C595.833 244.5 597.167 244.5 598.5 244.5C598.5 243.5 598.5 242.5 598.5 241.5C600.5 241.5 602.5 241.5 604.5 241.5Z" fill="white"/>
<path fill-rule="evenodd" clip-rule="evenodd" d="M177.5 231.5C176.24 234.596 174.074 236.929 171 238.5C169.066 240.419 169.233 241.919 171.5 243C169.048 243.29 166.715 243.956 164.5 245C161.279 249.28 158.446 253.78 156 258.5C155.617 257.944 155.117 257.611 154.5 257.5C156.96 251.565 160.627 246.565 165.5 242.5C167.587 241.415 168.92 239.749 169.5 237.5C171.373 234.551 174.039 232.551 177.5 231.5Z" fill="white"/>
<path opacity="0.788" fill-rule="evenodd" clip-rule="evenodd" d="M330.5 232.5C330.414 233.496 330.748 234.329 331.5 235C330.151 235.772 329.318 236.939 329 238.5C327.955 242.632 327.122 246.798 326.5 251C327.721 255.769 328.554 260.602 329 265.5C330.989 267.812 332.156 270.478 332.5 273.5C327.251 267.238 324.917 259.905 325.5 251.5C325.766 247.14 326.266 242.807 327 238.5C327.941 236.273 329.108 234.273 330.5 232.5Z" fill="white"/>
<path fill-rule="evenodd" clip-rule="evenodd" d="M274.5 244.5C278.097 244.697 280.763 246.363 282.5 249.5C282.833 248.833 283.167 248.167 283.5 247.5C285.105 251.79 288.105 254.124 292.5 254.5C290.979 256.529 288.979 257.362 286.5 257C282.97 252.305 278.97 248.138 274.5 244.5Z" fill="white"/>
<path opacity="0.714" fill-rule="evenodd" clip-rule="evenodd" d="M292.5 237.5C296.161 240.165 299.161 243.498 301.5 247.5C298.773 250.232 295.773 252.566 292.5 254.5C292.5 253.5 292.5 252.5 292.5 251.5C294.984 250.766 296.984 249.266 298.5 247C296.265 243.942 294.265 240.775 292.5 237.5Z" fill="white"/>
<path opacity="0.278" fill-rule="evenodd" clip-rule="evenodd" d="M422.5 246.5C423.167 246.5 423.833 246.5 424.5 246.5C424.5 246.833 424.5 247.167 424.5 247.5C421.233 249.732 417.566 250.565 413.5 250C416.309 248.259 419.309 247.092 422.5 246.5Z" fill="#574B29"/>
<path fill-rule="evenodd" clip-rule="evenodd" d="M457.5 245.5C456.552 247.46 456.386 249.46 457 251.5C454.834 253.121 452.334 253.955 449.5 254C451.167 255.667 452.833 257.333 454.5 259C454.167 259.333 453.833 259.667 453.5 260C457.749 261.126 462.082 261.792 466.5 262C465.833 262.667 465.167 263.333 464.5 264C468.511 265.461 472.344 267.294 476 269.5C493.69 272.2 511.524 273.2 529.5 272.5C529.5 272.833 529.5 273.167 529.5 273.5C513.123 275.043 496.79 274.543 480.5 272C476.837 271.428 473.503 270.262 470.5 268.5C466.079 265.488 461.079 263.821 455.5 263.5C452.256 262.537 449.256 261.204 446.5 259.5C444.721 258.33 443.721 256.664 443.5 254.5C446.625 252.307 449.625 249.974 452.5 247.5C454.167 246.833 455.833 246.167 457.5 245.5Z" fill="white"/>
<path opacity="0.698" fill-rule="evenodd" clip-rule="evenodd" d="M432.5 251.5C434.435 252.15 436.435 252.483 438.5 252.5C437.713 254.104 436.38 254.771 434.5 254.5C433.833 253.5 433.167 252.5 432.5 251.5Z" fill="white"/>
<path fill-rule="evenodd" clip-rule="evenodd" d="M457.5 240.5C456.024 242.5 454.191 244.167 452 245.5C451.308 246.437 451.475 247.103 452.5 247.5C449.625 249.974 446.625 252.307 443.5 254.5C441.938 254.733 440.605 255.4 439.5 256.5C437.694 255.976 436.028 255.309 434.5 254.5C436.38 254.771 437.713 254.104 438.5 252.5C444.851 248.473 451.184 244.473 457.5 240.5Z" fill="#67551F"/>
<path opacity="0.996" fill-rule="evenodd" clip-rule="evenodd" d="M587.5 253.5C585.163 255.396 582.496 256.73 579.5 257.5C580.598 256.603 580.598 255.77 579.5 255C582.168 254.433 584.834 253.933 587.5 253.5Z" fill="white"/>
<path opacity="0.976" fill-rule="evenodd" clip-rule="evenodd" d="M443.5 254.5C443.721 256.664 444.721 258.33 446.5 259.5C444.167 258.833 441.833 258.167 439.5 257.5C439.5 257.167 439.5 256.833 439.5 256.5C440.605 255.4 441.938 254.733 443.5 254.5Z" fill="white"/>
<path fill-rule="evenodd" clip-rule="evenodd" d="M195.5 239.5C189.898 243.927 184.398 248.593 179 253.5C174.057 259.726 169.891 266.393 166.5 273.5C166.682 271.409 166.348 269.409 165.5 267.5C166.325 266.614 167.325 266.281 168.5 266.5C168.286 264.856 168.62 263.356 169.5 262C168.288 259.577 166.954 257.244 165.5 255C167.896 250.883 170.229 250.716 172.5 254.5C171.975 255.192 171.308 255.692 170.5 256C171.646 256.645 172.646 257.478 173.5 258.5C174.132 256.263 175.465 254.597 177.5 253.5C176.687 252.186 175.687 251.019 174.5 250C176.9 249.814 179.234 249.314 181.5 248.5C182.309 246.929 182.643 245.262 182.5 243.5C184.144 243.286 185.644 243.62 187 244.5C189.044 241.585 191.877 239.918 195.5 239.5Z" fill="white"/>
<path opacity="0.902" fill-rule="evenodd" clip-rule="evenodd" d="M434.5 254.5C436.028 255.309 437.694 255.976 439.5 256.5C439.5 256.833 439.5 257.167 439.5 257.5C438.167 257.833 436.833 258.167 435.5 258.5C433.847 258.66 432.514 259.326 431.5 260.5C430.432 261.434 429.099 261.768 427.5 261.5C424.615 261.806 421.948 261.473 419.5 260.5C424.383 258.226 429.383 256.226 434.5 254.5Z" fill="#5E5B57"/>
<path opacity="0.059" fill-rule="evenodd" clip-rule="evenodd" d="M435.5 258.5C434.713 260.104 433.38 260.771 431.5 260.5C432.514 259.326 433.847 258.66 435.5 258.5Z" fill="#CBC9C7"/>
<path opacity="0.063" fill-rule="evenodd" clip-rule="evenodd" d="M567.5 263.5C560.943 266.896 553.943 269.229 546.5 270.5C553.262 267.72 560.262 265.386 567.5 263.5Z" fill="white"/>
<path opacity="0.949" fill-rule="evenodd" clip-rule="evenodd" d="M419.5 260.5C421.948 261.473 424.615 261.806 427.5 261.5C415.503 266.757 402.836 269.09 389.5 268.5C386.287 268.81 383.287 268.477 380.5 267.5C385.985 266.673 391.652 266.173 397.5 266C404.921 264.351 412.254 262.518 419.5 260.5Z" fill="#757471"/>
<path opacity="0.631" fill-rule="evenodd" clip-rule="evenodd" d="M455.5 263.5C461.079 263.821 466.079 265.488 470.5 268.5C465.085 267.806 460.085 266.14 455.5 263.5Z" fill="white"/>
<path opacity="0.196" fill-rule="evenodd" clip-rule="evenodd" d="M380.5 267.5C383.287 268.477 386.287 268.81 389.5 268.5C384.32 269.815 378.986 269.815 373.5 268.5C375.743 267.526 378.076 267.192 380.5 267.5Z" fill="#ABAEB0"/>
<path opacity="0.224" fill-rule="evenodd" clip-rule="evenodd" d="M546.5 270.5C541.092 272.224 535.425 273.224 529.5 273.5C529.5 273.167 529.5 272.833 529.5 272.5C535.07 271.103 540.736 270.437 546.5 270.5Z" fill="white"/>
<path opacity="0.867" fill-rule="evenodd" clip-rule="evenodd" d="M154.5 257.5C154.554 262.435 153.054 266.769 150 270.5C149.943 276.474 148.443 281.807 145.5 286.5C146.377 276.056 149.377 266.389 154.5 257.5Z" fill="white"/>
<path opacity="0.998" fill-rule="evenodd" clip-rule="evenodd" d="M332.5 274.5C335.971 276.151 339.305 277.984 342.5 280C343.833 280.667 343.833 281.333 342.5 282C346.542 284.848 349.875 288.348 352.5 292.5C347.452 289.634 342.786 286.134 338.5 282C336.666 279.337 334.666 276.837 332.5 274.5Z" fill="white"/>
<path fill-rule="evenodd" clip-rule="evenodd" d="M354.5 215.5C354.833 215.5 355.167 215.5 355.5 215.5C361.509 215.334 367.509 215.501 373.5 216C380.433 219.801 387.433 223.301 394.5 226.5C394.833 226.5 395.167 226.5 395.5 226.5C395.526 229.951 397.026 232.618 400 234.5C400.383 233.944 400.883 233.611 401.5 233.5C402.929 236.308 403.595 239.308 403.5 242.5C402.5 242.5 401.5 242.5 400.5 242.5C400.5 243.5 400.5 244.5 400.5 245.5C400.167 245.5 399.833 245.5 399.5 245.5C394.58 247.527 390.913 246.194 388.5 241.5C389.562 238.897 389.728 236.23 389 233.5C387.047 237.422 385.881 237.088 385.5 232.5C381.021 232.816 377.187 231.482 374 228.5C367.969 228.956 362.136 229.956 356.5 231.5C351.039 231.581 347.706 234.248 346.5 239.5C340.817 252.892 343.817 264.059 355.5 273C360.269 276.04 364.603 279.54 368.5 283.5C370.498 285.833 371.832 288.5 372.5 291.5C376.241 290.599 378.241 291.932 378.5 295.5C380.288 295.215 381.955 295.548 383.5 296.5C384.993 298.67 386.993 300.004 389.5 300.5C389.833 300.5 390.167 300.5 390.5 300.5C389.843 303.841 391.176 305.841 394.5 306.5C395.309 308.071 395.643 309.738 395.5 311.5C397.292 311.366 398.958 311.699 400.5 312.5C400.999 316.49 401.499 320.49 402 324.5C403 323.167 404 323.167 405 324.5C405.985 326.366 406.485 328.366 406.5 330.5C406.418 337.482 406.085 344.482 405.5 351.5C402.94 355.082 401.273 359.082 400.5 363.5C398.833 363.5 397.167 363.5 395.5 363.5C395.762 364.978 395.429 366.311 394.5 367.5C391.506 369.496 388.339 371.163 385 372.5C384.667 372.167 384.333 371.833 384 371.5C383.167 373 382 374.167 380.5 375C380.833 375.333 381.167 375.667 381.5 376C379.119 376.223 377.453 377.39 376.5 379.5C376.5 379.833 376.5 380.167 376.5 380.5C368.167 380.5 359.833 380.5 351.5 380.5C351.5 380.167 351.5 379.833 351.5 379.5C353.56 377.852 355.893 376.352 358.5 375C355.183 374.502 351.85 374.335 348.5 374.5C348.215 372.712 348.548 371.045 349.5 369.5C352.264 371.608 355.264 371.941 358.5 370.5C356.631 369.376 354.631 368.543 352.5 368C352.833 367.667 353.167 367.333 353.5 367C358.684 366.826 363.684 366.326 368.5 365.5C370.027 365.573 371.027 364.906 371.5 363.5C375.524 362.962 379.524 362.295 383.5 361.5C383.281 362.675 383.614 363.675 384.5 364.5C385.578 362.525 385.245 360.692 383.5 359C386.793 355.553 389.96 352.053 393 348.5C393.172 344.129 393.672 339.796 394.5 335.5C395.895 336.815 396.895 336.481 397.5 334.5C394.898 333.565 392.898 331.898 391.5 329.5C390.114 326.225 388.28 323.225 386 320.5C385.37 318.097 386.203 316.263 388.5 315C385.785 314.125 384.452 312.292 384.5 309.5C381.134 309.788 377.8 309.954 374.5 310C374.04 305.783 371.706 303.949 367.5 304.5C361.898 301.229 356.898 297.229 352.5 292.5C349.875 288.348 346.542 284.848 342.5 282C343.833 281.333 343.833 280.667 342.5 280C339.305 277.984 335.971 276.151 332.5 274.5C332.5 274.167 332.5 273.833 332.5 273.5C332.156 270.478 330.989 267.812 329 265.5C328.554 260.602 327.721 255.769 326.5 251C327.122 246.798 327.955 242.632 329 238.5C329.318 236.939 330.151 235.772 331.5 235C330.748 234.329 330.414 233.496 330.5 232.5C331.256 229.606 332.923 227.606 335.5 226.5C336.88 225.294 338.047 225.627 339 227.5C341.27 222.099 345.436 219.266 351.5 219C352.365 217.641 353.365 216.474 354.5 215.5Z" fill="white"/>
<path opacity="0.961" fill-rule="evenodd" clip-rule="evenodd" d="M356.5 231.5C357.833 231.5 359.167 231.5 360.5 231.5C355.016 232.58 350.349 235.247 346.5 239.5C347.706 234.248 351.039 231.581 356.5 231.5Z" fill="white"/>
<path opacity="0.122" fill-rule="evenodd" clip-rule="evenodd" d="M360.5 231.5C364.29 230.098 367.956 230.431 371.5 232.5C367.865 231.886 364.198 231.552 360.5 231.5Z" fill="white"/>
<path fill-rule="evenodd" clip-rule="evenodd" d="M37.5 218.5C56.186 219.097 74.8526 220.097 93.5 221.5C94.287 223.104 95.6203 223.771 97.5 223.5C97.5 224.833 97.5 226.167 97.5 227.5C98.8734 227.343 100.207 227.51 101.5 228C105.406 231.136 108.072 235.136 109.5 240C111.342 239.932 113.009 240.099 114.5 240.5C118.868 246.155 120.535 252.655 119.5 260C120.08 269.084 117.746 277.251 112.5 284.5C111.5 284.5 110.5 284.5 109.5 284.5C109.5 285.5 109.5 286.5 109.5 287.5C104.571 287.436 101.904 289.77 101.5 294.5C96.8213 295.319 92.8213 297.319 89.5 300.5C89.1667 300.5 88.8333 300.5 88.5 300.5C80.149 300.482 71.8156 300.815 63.5 301.5C53.1547 301.244 42.8214 301.078 32.5 301C32 301.5 31.5 302 31 302.5C31.1635 307.458 31.6635 312.458 32.5 317.5C32.4435 318.737 31.9435 319.737 31 320.5C30.3333 335.833 30.3333 351.167 31 366.5C32.3654 367.593 32.6987 368.926 32 370.5C30.2041 369.233 28.3707 369.233 26.5 370.5C25.8076 369.975 25.3076 369.308 25 368.5C24.6322 369.91 23.7989 370.91 22.5 371.5C21.5001 321.504 21.1667 271.504 21.5 221.5C26.3973 218.932 31.7307 217.932 37.5 218.5ZM85.5 236.5C97.3168 242.458 102.65 252.125 101.5 265.5C99.1421 272.531 95.1421 278.531 89.5 283.5C87.901 283.232 86.5676 283.566 85.5 284.5C82.6275 284.802 79.9608 285.469 77.5 286.5C63.8333 286.5 50.1667 286.5 36.5 286.5C36.5 269.167 36.5 251.833 36.5 234.5C52.9088 234.006 69.2422 234.672 85.5 236.5Z" fill="white"/>
<path opacity="0.949" fill-rule="evenodd" clip-rule="evenodd" d="M101.5 265.5C101.758 273.664 98.4243 279.664 91.5 283.5C90.8333 283.5 90.1667 283.5 89.5 283.5C95.1421 278.531 99.1421 272.531 101.5 265.5Z" fill="white"/>
<path opacity="0.892" fill-rule="evenodd" clip-rule="evenodd" d="M85.4996 236.5C69.2418 234.672 52.9084 234.006 36.4996 234.5C36.4996 251.833 36.4996 269.167 36.4996 286.5C50.1663 286.5 63.8329 286.5 77.4996 286.5C80.5529 286.889 83.2196 286.223 85.4996 284.5C86.5672 283.566 87.9006 283.232 89.4996 283.5C90.1663 283.5 90.8329 283.5 91.4996 283.5C90.7655 284.708 90.4322 286.041 90.4996 287.5C71.9508 288.789 53.4508 288.789 34.9996 287.5C34.5271 268.461 34.3605 249.628 34.4996 231C35.6082 230.362 36.7749 229.862 37.9996 229.5C39.7285 231.448 41.8952 232.448 44.4996 232.5C57.5941 230.85 70.5941 231.35 83.4996 234C84.7556 234.417 85.4222 235.25 85.4996 236.5Z" fill="white"/>
<path opacity="0.227" fill-rule="evenodd" clip-rule="evenodd" d="M85.5 284.5C83.22 286.223 80.5533 286.889 77.5 286.5C79.9608 285.469 82.6275 284.802 85.5 284.5Z" fill="white"/>
<path opacity="0.998" fill-rule="evenodd" clip-rule="evenodd" d="M112.5 284.5C107.044 292.947 99.3775 298.281 89.5 300.5C92.8213 297.319 96.8213 295.319 101.5 294.5C101.904 289.77 104.571 287.436 109.5 287.5C109.5 286.5 109.5 285.5 109.5 284.5C110.5 284.5 111.5 284.5 112.5 284.5Z" fill="white"/>
<path fill-rule="evenodd" clip-rule="evenodd" d="M368.5 283.5C375.208 287.359 381.541 291.859 387.5 297C388.305 298.113 388.972 299.279 389.5 300.5C386.993 300.004 384.993 298.67 383.5 296.5C381.955 295.548 380.288 295.215 378.5 295.5C378.241 291.932 376.241 290.599 372.5 291.5C371.832 288.5 370.498 285.833 368.5 283.5Z" fill="white"/>
<path opacity="0.848" fill-rule="evenodd" clip-rule="evenodd" d="M88.4996 300.501C81.3495 302.099 74.0162 303.432 66.4996 304.501C67.6298 305.623 68.2965 306.957 68.4996 308.501C65.1301 307.442 63.4635 305.109 63.4996 301.501C71.8152 300.816 80.1486 300.483 88.4996 300.501Z" fill="white"/>
<path opacity="0.855" fill-rule="evenodd" clip-rule="evenodd" d="M390.5 300.5C394.308 304.122 397.641 308.122 400.5 312.5C398.958 311.699 397.292 311.366 395.5 311.5C395.643 309.738 395.309 308.071 394.5 306.5C391.176 305.841 389.843 303.841 390.5 300.5Z" fill="white"/>
<path fill-rule="evenodd" clip-rule="evenodd" d="M283.5 229.5C287.105 231.472 290.105 234.139 292.5 237.5C294.265 240.775 296.265 243.942 298.5 247C296.984 249.266 294.984 250.766 292.5 251.5C292.5 252.5 292.5 253.5 292.5 254.5C288.105 254.124 285.105 251.79 283.5 247.5C283.167 248.167 282.833 248.833 282.5 249.5C280.763 246.363 278.097 244.697 274.5 244.5C273.386 243.115 272.386 241.615 271.5 240C266.474 236.447 261.141 233.614 255.5 231.5C250.208 230.505 244.875 230.172 239.5 230.5C232.476 230.435 225.476 230.768 218.5 231.5C215.221 230.508 211.888 230.341 208.5 231C209.634 232.016 209.301 232.683 207.5 233C204.123 233.452 200.789 234.118 197.5 235C197.833 235.333 198.167 235.667 198.5 236C196.574 236.422 195.574 237.589 195.5 239.5C191.877 239.918 189.044 241.585 187 244.5C185.644 243.62 184.144 243.286 182.5 243.5C182.643 245.262 182.309 246.929 181.5 248.5C179.234 249.314 176.9 249.814 174.5 250C175.687 251.019 176.687 252.186 177.5 253.5C175.465 254.597 174.132 256.263 173.5 258.5C172.646 257.478 171.646 256.645 170.5 256C171.308 255.692 171.975 255.192 172.5 254.5C170.229 250.716 167.896 250.883 165.5 255C166.954 257.244 168.288 259.577 169.5 262C168.62 263.356 168.286 264.856 168.5 266.5C167.325 266.281 166.325 266.614 165.5 267.5C166.348 269.409 166.682 271.409 166.5 273.5C165.533 274.806 164.199 275.473 162.5 275.5C162.665 279.182 162.499 282.848 162 286.5C161.465 284.729 160.631 284.396 159.5 285.5C159.526 303.813 163.359 321.147 171 337.5C172.734 339.451 174.901 340.451 177.5 340.5C177.357 342.262 177.691 343.929 178.5 345.5C183.419 347.009 185.419 350.342 184.5 355.5C187.482 355.037 190.482 354.704 193.5 354.5C193.897 356.662 195.231 357.995 197.5 358.5C197.291 359.086 196.957 359.586 196.5 360C198.473 360.495 200.473 360.662 202.5 360.5C202.36 362.124 203.027 363.29 204.5 364C219.416 366.331 234.416 366.997 249.5 366C253.971 364.843 257.971 362.843 261.5 360C268.208 358.85 273.875 355.85 278.5 351C279.448 350.517 280.448 350.351 281.5 350.5C281.5 349.5 281.5 348.5 281.5 347.5C284.436 348.406 287.436 349.072 290.5 349.5C290.376 347.048 289.376 345.048 287.5 343.5C287.833 342.833 288.167 342.167 288.5 341.5C290.577 343.082 292.91 344.082 295.5 344.5C297.123 347.215 297.79 350.215 297.5 353.5C294.463 357.537 290.797 360.871 286.5 363.5C282.429 364.472 278.762 366.305 275.5 369C272.8 369.253 270.133 369.253 267.5 369C267.167 369.333 266.833 369.667 266.5 370C268.044 370.29 269.377 370.956 270.5 372C264.991 373.87 259.657 376.037 254.5 378.5C252.833 379.167 251.167 379.833 249.5 380.5C237.167 380.5 224.833 380.5 212.5 380.5C212.5 380.167 212.5 379.833 212.5 379.5C210.287 377.688 207.953 377.355 205.5 378.5C195.037 375.935 185.704 371.269 177.5 364.5C173.637 359.476 169.303 354.809 164.5 350.5C161.505 344.863 157.839 339.863 153.5 335.5C146.181 319.909 143.515 303.576 145.5 286.5C148.443 281.807 149.943 276.474 150 270.5C153.054 266.769 154.554 262.435 154.5 257.5C155.117 257.611 155.617 257.944 156 258.5C158.446 253.78 161.279 249.28 164.5 245C166.715 243.956 169.048 243.29 171.5 243C169.233 241.919 169.066 240.419 171 238.5C174.074 236.929 176.24 234.596 177.5 231.5C180.057 228.208 183.391 225.874 187.5 224.5C189.284 224.107 190.95 223.441 192.5 222.5C201.564 220.484 210.564 218.317 219.5 216C230.939 215.035 242.272 215.702 253.5 218C263.507 222.153 273.507 225.987 283.5 229.5Z" fill="white"/>
<path opacity="0.729" fill-rule="evenodd" clip-rule="evenodd" d="M239.5 230.501C244.875 230.173 250.208 230.506 255.5 231.501C261.141 233.615 266.474 236.448 271.5 240.001C272.386 241.616 273.386 243.116 274.5 244.501C269.486 240.356 263.82 237.189 257.5 235.001C251.399 233.383 245.399 231.883 239.5 230.501Z" fill="white"/>
<path fill-rule="evenodd" clip-rule="evenodd" d="M218.5 231.5C210.6 233.273 202.933 235.94 195.5 239.5C195.574 237.589 196.574 236.422 198.5 236C198.167 235.667 197.833 235.333 197.5 235C200.789 234.118 204.123 233.452 207.5 233C209.301 232.683 209.634 232.016 208.5 231C211.888 230.341 215.221 230.508 218.5 231.5Z" fill="white"/>
<path fill-rule="evenodd" clip-rule="evenodd" d="M367.5 304.5C371.706 303.949 374.04 305.783 374.5 310C377.8 309.954 381.134 309.788 384.5 309.5C384.452 312.292 385.785 314.125 388.5 315C386.203 316.263 385.37 318.097 386 320.5C388.28 323.225 390.114 326.225 391.5 329.5C392.898 331.898 394.898 333.565 397.5 334.5C396.895 336.481 395.895 336.815 394.5 335.5C393.672 339.796 393.172 344.129 393 348.5C389.96 352.053 386.793 355.553 383.5 359C385.245 360.692 385.578 362.525 384.5 364.5C383.614 363.675 383.281 362.675 383.5 361.5C379.524 362.295 375.524 362.962 371.5 363.5C375.458 361.234 379.458 358.901 383.5 356.5C385.587 355.415 386.92 353.749 387.5 351.5C387.733 349.938 388.4 348.605 389.5 347.5C390.913 344.618 391.579 341.451 391.5 338C391.494 335.967 391.161 334.134 390.5 332.5C388.565 327.978 386.065 323.645 383 319.5C377.369 314.808 372.202 309.808 367.5 304.5Z" fill="white"/>
<path fill-rule="evenodd" clip-rule="evenodd" d="M21.5003 221.5C21.167 271.504 21.5004 321.504 22.5003 371.5C23.7992 370.91 24.6325 369.91 25.0003 368.5C25.3079 369.308 25.8079 369.975 26.5003 370.5C28.371 369.233 30.2044 369.233 32.0003 370.5C32.699 368.926 32.3657 367.593 31.0003 366.5C30.3336 351.167 30.3336 335.833 31.0003 320.5C31.9438 319.737 32.4438 318.737 32.5003 317.5C31.6638 312.458 31.1638 307.458 31.0003 302.5C31.5003 302 32.0003 301.5 32.5003 301C42.8217 301.078 53.155 301.244 63.5003 301.5C63.4642 305.108 65.1308 307.441 68.5003 308.5C72.2467 311.41 75.4134 314.743 78.0003 318.5C84.3563 327.676 90.8563 336.676 97.5003 345.5C96.9235 348.55 98.0902 350.55 101 351.5C102.187 355.098 103.687 358.431 105.5 361.5C106.833 361.5 108.167 361.5 109.5 361.5C109.131 363.993 109.797 364.66 111.5 363.5C111.146 366.421 112.146 368.754 114.5 370.5C113.5 371.167 112.5 371.833 111.5 372.5C113.167 373.167 114.833 373.833 116.5 374.5C111.533 375.662 106.533 375.829 101.5 375C100.506 373.671 99.5064 372.338 98.5003 371C99.5041 369.202 100.004 367.368 100 365.5C99.0003 366.167 98.0003 366.833 97.0003 367.5C95.0212 365.435 93.1878 363.268 91.5003 361C90.2553 360.209 88.922 359.709 87.5003 359.5C79.4815 349.809 71.8149 339.809 64.5003 329.5C64.108 327.821 63.608 326.154 63.0003 324.5C60.0003 321.167 57.0003 317.833 54.0003 314.5C53.5175 313.552 53.3508 312.552 53.5003 311.5C52.5003 311.5 51.5003 311.5 50.5003 311.5C48.1471 309.14 46.1471 306.473 44.5003 303.5C41.5003 302.167 38.5003 302.167 35.5003 303.5C34.9482 326.704 34.1148 350.038 33.0003 373.5C32.5003 374 32.0003 374.5 31.5003 375C27.8487 375.499 24.182 375.665 20.5003 375.5C20.1681 323.997 20.5014 272.664 21.5003 221.5Z" fill="white"/>
<path opacity="0.922" fill-rule="evenodd" clip-rule="evenodd" d="M50.5 311.5C51.5 311.5 52.5 311.5 53.5 311.5C53.3505 312.552 53.5172 313.552 54 314.5C57 317.833 60 321.167 63 324.5C63.6077 326.154 64.1077 327.821 64.5 329.5C59.3613 323.901 54.6946 317.901 50.5 311.5Z" fill="white"/>
<path fill-rule="evenodd" clip-rule="evenodd" d="M166.5 273.5C164.848 281.264 163.514 289.098 162.5 297C163.356 305.614 164.856 314.114 167 322.5C169.86 328.962 173.36 334.962 177.5 340.5C174.901 340.451 172.734 339.451 171 337.5C163.359 321.147 159.526 303.813 159.5 285.5C160.631 284.396 161.465 284.729 162 286.5C162.499 282.848 162.665 279.182 162.5 275.5C164.199 275.473 165.533 274.806 166.5 273.5Z" fill="white"/>
<path opacity="0.318" fill-rule="evenodd" clip-rule="evenodd" d="M44.5 303.5C41.8333 303.5 39.1667 303.5 36.5 303.5C36.5 328.167 36.5 352.833 36.5 377.5C30.642 377.822 24.9753 377.489 19.5 376.5C24.8333 376.5 30.1667 376.5 35.5 376.5C35.5 352.167 35.5 327.833 35.5 303.5C38.5 302.167 41.5 302.167 44.5 303.5Z" fill="white"/>
<path opacity="0.996" fill-rule="evenodd" clip-rule="evenodd" d="M400.5 312.5C404.701 316.571 407.034 321.571 407.5 327.5C408.307 333.464 408.64 339.464 408.5 345.5C407.977 352.538 405.311 358.538 400.5 363.5C401.273 359.082 402.94 355.082 405.5 351.5C406.085 344.482 406.418 337.482 406.5 330.5C406.485 328.366 405.985 326.366 405 324.5C404 323.167 403 323.167 402 324.5C401.499 320.49 400.999 316.49 400.5 312.5Z" fill="white"/>
<path opacity="0.388" fill-rule="evenodd" clip-rule="evenodd" d="M407.5 327.5C409.03 330.695 409.696 334.195 409.5 338C409.497 340.69 409.164 343.19 408.5 345.5C408.64 339.464 408.307 333.464 407.5 327.5Z" fill="white"/>
<path opacity="0.971" fill-rule="evenodd" clip-rule="evenodd" d="M332.5 343.5C330.971 342.653 329.304 341.986 327.5 341.5C324.381 342.559 321.381 343.893 318.5 345.5C321.787 341.258 325.954 339.258 331 339.5C331.791 340.745 332.291 342.078 332.5 343.5Z" fill="white"/>
<path opacity="0.145" fill-rule="evenodd" clip-rule="evenodd" d="M390.5 332.5C391.161 334.134 391.494 335.967 391.5 338C391.579 341.451 390.913 344.618 389.5 347.5C390.164 342.527 390.497 337.527 390.5 332.5Z" fill="white"/>
<path fill-rule="evenodd" clip-rule="evenodd" d="M332.5 343.5C335.185 346.19 337.518 349.19 339.5 352.5C337.097 352.607 335.264 351.607 334 349.5C333.311 350.357 332.478 351.023 331.5 351.5C330.949 349.587 330.782 347.587 331 345.5C330.632 346.91 329.799 347.91 328.5 348.5C325.788 346.74 322.788 346.073 319.5 346.5C319.5 347.5 319.5 348.5 319.5 349.5C321.5 349.5 323.5 349.5 325.5 349.5C325.5 351.167 325.5 352.833 325.5 354.5C324.448 354.351 323.448 354.517 322.5 355C323.861 356.584 324.528 358.418 324.5 360.5C321.203 357.264 318.37 353.597 316 349.5C315.09 347.055 315.924 345.722 318.5 345.5C321.381 343.893 324.381 342.559 327.5 341.5C329.304 341.986 330.971 342.653 332.5 343.5Z" fill="white"/>
<path opacity="0.541" fill-rule="evenodd" clip-rule="evenodd" d="M153.5 335.5C157.839 339.863 161.505 344.863 164.5 350.5C169.303 354.809 173.637 359.476 177.5 364.5C166.604 357.267 158.604 347.601 153.5 335.5Z" fill="white"/>
<path opacity="0.988" fill-rule="evenodd" clip-rule="evenodd" d="M295.5 344.5C301.119 346.627 301.786 349.627 297.5 353.5C297.79 350.215 297.123 347.215 295.5 344.5Z" fill="white"/>
<path opacity="0.11" fill-rule="evenodd" clip-rule="evenodd" d="M23.5004 217.5C22.4328 218.434 21.0994 218.768 19.5004 218.5C19.5004 271.167 19.5004 323.833 19.5004 376.5C18.5015 323.669 18.1681 270.669 18.5004 217.5C20.1671 217.5 21.8337 217.5 23.5004 217.5Z" fill="white"/>
<path fill-rule="evenodd" clip-rule="evenodd" d="M177.5 340.5C182.563 345.568 187.896 350.235 193.5 354.5C190.482 354.704 187.482 355.037 184.5 355.5C185.419 350.342 183.419 347.009 178.5 345.5C177.691 343.929 177.357 342.262 177.5 340.5Z" fill="white"/>
<path fill-rule="evenodd" clip-rule="evenodd" d="M339.5 352.5C339.5 354.5 339.5 356.5 339.5 358.5C346.488 359.138 347.154 361.472 341.5 365.5C340.353 365.182 339.519 364.516 339 363.5C338.667 364.5 338.333 365.5 338 366.5C336.204 365.233 334.371 365.233 332.5 366.5C330.167 365.5 328.5 363.833 327.5 361.5C326.583 360.873 325.583 360.539 324.5 360.5C324.528 358.418 323.861 356.584 322.5 355C323.448 354.517 324.448 354.351 325.5 354.5C325.5 352.833 325.5 351.167 325.5 349.5C323.5 349.5 321.5 349.5 319.5 349.5C319.5 348.5 319.5 347.5 319.5 346.5C322.788 346.073 325.788 346.74 328.5 348.5C329.799 347.91 330.632 346.91 331 345.5C330.782 347.587 330.949 349.587 331.5 351.5C332.478 351.023 333.311 350.357 334 349.5C335.264 351.607 337.097 352.607 339.5 352.5Z" fill="white"/>
<path opacity="0.216" fill-rule="evenodd" clip-rule="evenodd" d="M387.5 351.5C386.92 353.749 385.587 355.415 383.5 356.5C384.08 354.251 385.413 352.585 387.5 351.5Z" fill="white"/>
<path fill-rule="evenodd" clip-rule="evenodd" d="M97.4996 345.5C103.122 350.737 107.789 356.737 111.5 363.5C109.797 364.66 109.131 363.993 109.5 361.5C108.167 361.5 106.833 361.5 105.5 361.5C103.687 358.431 102.187 355.098 101 351.5C98.0895 350.55 96.9228 348.55 97.4996 345.5Z" fill="white"/>
<path opacity="0.537" fill-rule="evenodd" clip-rule="evenodd" d="M295.5 344.499C292.91 344.081 290.577 343.081 288.5 341.499C288.167 342.166 287.833 342.832 287.5 343.499C289.376 345.047 290.376 347.047 290.5 349.499C287.436 349.071 284.436 348.405 281.5 347.499C281.5 348.499 281.5 349.499 281.5 350.499C280.448 350.35 279.448 350.516 278.5 350.999C273.875 355.849 268.208 358.849 261.5 359.999C257.971 362.842 253.971 364.842 249.5 365.999C234.416 366.996 219.416 366.33 204.5 363.999C203.027 363.289 202.36 362.123 202.5 360.499C200.473 360.661 198.473 360.494 196.5 359.999C196.957 359.585 197.291 359.085 197.5 358.499C195.231 357.994 193.897 356.661 193.5 354.499C217.875 367.222 242.541 367.722 267.5 355.999C274.389 351.379 280.723 346.046 286.5 339.999C290.355 339.732 293.355 341.232 295.5 344.499Z" fill="white"/>
<path opacity="0.816" fill-rule="evenodd" clip-rule="evenodd" d="M371.5 363.5C371.027 364.906 370.027 365.573 368.5 365.5C365.287 365.81 362.287 365.477 359.5 364.5C363.519 364.354 367.519 364.021 371.5 363.5Z" fill="white"/>
<path opacity="0.999" fill-rule="evenodd" clip-rule="evenodd" d="M286.5 363.5C277.212 371.141 266.545 376.141 254.5 378.5C259.657 376.037 264.991 373.87 270.5 372C269.377 370.956 268.044 370.29 266.5 370C266.833 369.667 267.167 369.333 267.5 369C270.133 369.253 272.8 369.253 275.5 369C278.762 366.305 282.429 364.472 286.5 363.5Z" fill="white"/>
<path opacity="0.051" fill-rule="evenodd" clip-rule="evenodd" d="M329.5 367.5C331.027 367.427 332.027 368.094 332.5 369.5C330.973 369.573 329.973 368.906 329.5 367.5Z" fill="white"/>
<path fill-rule="evenodd" clip-rule="evenodd" d="M400.5 363.5C394.384 371.609 386.384 376.943 376.5 379.5C377.453 377.39 379.119 376.223 381.5 376C381.167 375.667 380.833 375.333 380.5 375C382 374.167 383.167 373 384 371.5C384.333 371.833 384.667 372.167 385 372.5C388.339 371.163 391.506 369.496 394.5 367.5C395.429 366.311 395.762 364.978 395.5 363.5C397.167 363.5 398.833 363.5 400.5 363.5Z" fill="white"/>
<path fill-rule="evenodd" clip-rule="evenodd" d="M339.5 352.5C343 355.831 346.666 358.998 350.5 362C353.678 362.66 356.678 363.493 359.5 364.5C362.287 365.477 365.287 365.81 368.5 365.5C363.684 366.326 358.684 366.826 353.5 367C353.167 367.333 352.833 367.667 352.5 368C354.631 368.543 356.631 369.376 358.5 370.5C355.264 371.941 352.264 371.608 349.5 369.5C348.548 371.045 348.215 372.712 348.5 374.5C351.85 374.335 355.183 374.502 358.5 375C355.893 376.352 353.56 377.852 351.5 379.5C344.126 377.981 337.793 374.648 332.5 369.5C332.027 368.094 331.027 367.427 329.5 367.5C327.113 365.742 325.446 363.409 324.5 360.5C325.583 360.539 326.583 360.873 327.5 361.5C328.5 363.833 330.167 365.5 332.5 366.5C334.371 365.233 336.204 365.233 338 366.5C338.333 365.5 338.667 364.5 339 363.5C339.519 364.516 340.353 365.182 341.5 365.5C347.154 361.472 346.488 359.138 339.5 358.5C339.5 356.5 339.5 354.5 339.5 352.5Z" fill="white"/>
<path opacity="0.824" fill-rule="evenodd" clip-rule="evenodd" d="M87.5 359.5C88.9217 359.709 90.255 360.209 91.5 361C93.1875 363.268 95.0209 365.435 97 367.5C98 366.833 99 366.167 100 365.5C100.004 367.368 99.5038 369.202 98.5 371C99.5061 372.338 100.506 373.671 101.5 375C106.533 375.829 111.533 375.662 116.5 374.5C114.833 373.833 113.167 373.167 111.5 372.5C112.5 371.833 113.5 371.167 114.5 370.5C112.146 368.754 111.146 366.421 111.5 363.5C115.262 366.929 118.262 370.929 120.5 375.5C114.355 376.49 108.022 376.823 101.5 376.5C96.1379 371.465 91.4712 365.798 87.5 359.5Z" fill="white"/>
<path opacity="0.212" fill-rule="evenodd" clip-rule="evenodd" d="M120.5 375.5C121.043 375.56 121.376 375.893 121.5 376.5C114.678 377.818 108.011 377.818 101.5 376.5C108.022 376.823 114.355 376.49 120.5 375.5Z" fill="white"/>
<path opacity="0.251" fill-rule="evenodd" clip-rule="evenodd" d="M205.5 378.499C207.953 377.354 210.287 377.687 212.5 379.499C210.097 379.551 207.764 379.218 205.5 378.499Z" fill="white"/>
</g>
<defs>
<clipPath id="clip0_1213_381">
<rect width="654" height="381" fill="white"/>
</clipPath>
</defs>
</svg>
