<svg width="2475" height="872" viewBox="0 0 2475 872" fill="none" xmlns="http://www.w3.org/2000/svg">
<path d="M473.655 240.488C468.268 240.473 462.848 240.457 457.395 240.439L429.734 308.16L446.016 308.15L473.655 240.488Z" fill="#29ABE2"/>
<path d="M398.842 308.175L415.123 308.168L442.808 240.395C437.365 240.377 431.945 240.361 426.548 240.346L398.842 308.175Z" fill="white"/>
<path d="M373.541 623.924H444.926V495.701H513.603L623.93 623.924H708.828V618.99L594.185 488.029C666.112 473.234 689.902 420.085 689.902 367.481C689.902 301.18 642.855 240.903 553.625 240.353C543.549 240.353 522.063 240.336 504.225 240.313L504.253 240.245C498.923 240.231 493.488 240.216 487.994 240.199L487.962 240.285H487.354L459.779 307.797H460.382L460.376 307.812L476.66 307.805V307.791L553.621 307.757C598.508 307.757 618.516 338.443 618.516 369.128C618.516 399.812 599.05 430.496 553.621 430.496L373.536 430.39L373.541 623.924Z" fill="white"/>
<path d="M430.537 0C295.038 0 173.988 63.8049 95.0512 163.298C89.9918 169.678 85.1049 176.198 80.3905 182.855C62.2693 208.506 46.9489 236.074 34.6986 265.074L73.7827 361.667L87.8379 396.405L180.405 625.172H254.345L411.914 240.343C411.809 240.343 411.704 240.343 411.599 240.343C381.19 240.254 352.818 240.188 331.529 240.188L331.299 241.321L217.102 538.771L120.298 286.752L110.231 260.537C114.417 252.724 118.876 245.09 123.609 237.636C188.374 135.11 301.742 66.9962 430.538 66.9962C631.348 66.9962 794.721 232.529 794.721 436.001C794.721 639.473 631.34 807.356 430.538 805.006C209.806 802.42 83.8276 633.911 43.0811 512.172C2.52141 390.991 23.8676 293.502 23.8676 293.502C8.18695 339.33 0.198577 387.496 0.234496 436C0.234496 676.414 193.267 872 430.537 872C667.807 872 860.84 676.411 860.84 436C860.84 195.589 667.807 0 430.537 0Z" fill="#29ABE2"/>
<path d="M933.122 519.332H911.522C908.722 519.332 907.722 517.632 908.522 514.232L960.722 331.532C961.722 328.132 964.122 326.432 967.922 326.432H997.922C1001.92 326.432 1004.32 328.132 1005.12 331.532L1057.32 514.232C1058.12 517.632 1057.02 519.332 1054.02 519.332H1032.72C1030.92 519.332 1029.62 519.032 1028.82 518.432C1028.22 517.632 1027.72 516.232 1027.32 514.232L1015.92 475.232H949.922L938.522 514.232C937.722 517.632 935.922 519.332 933.122 519.332ZM982.322 355.232L955.922 451.232H1010.22L983.522 355.232H982.322ZM1083.38 472.532V464.732C1083.38 461.332 1085.08 459.632 1088.48 459.632H1107.68C1111.08 459.632 1112.78 461.332 1112.78 464.732V470.132C1112.78 478.532 1114.58 484.632 1118.18 488.432C1121.98 492.032 1128.18 493.832 1136.78 493.832H1157.48C1166.08 493.832 1172.28 491.932 1176.08 488.132C1179.88 484.132 1181.78 477.732 1181.78 468.932V462.032C1181.78 455.632 1179.28 450.632 1174.28 447.032C1169.48 443.232 1163.48 440.832 1156.28 439.832C1149.08 438.632 1141.18 437.032 1132.58 435.032C1123.98 433.032 1116.08 430.732 1108.88 428.132C1101.68 425.532 1095.58 420.632 1090.58 413.432C1085.78 406.232 1083.38 397.032 1083.38 385.832V373.232C1083.38 358.632 1087.48 347.232 1095.68 339.032C1104.08 330.632 1115.58 326.432 1130.18 326.432H1161.98C1176.78 326.432 1188.28 330.632 1196.48 339.032C1204.88 347.232 1209.08 358.632 1209.08 373.232V379.832C1209.08 383.232 1207.38 384.932 1203.98 384.932H1184.78C1181.38 384.932 1179.68 383.232 1179.68 379.832V375.932C1179.68 367.332 1177.78 361.232 1173.98 357.632C1170.38 353.832 1164.28 351.932 1155.68 351.932H1136.78C1128.18 351.932 1121.98 353.932 1118.18 357.932C1114.58 361.732 1112.78 368.332 1112.78 377.732V387.032C1112.78 396.032 1119.28 402.132 1132.28 405.332C1138.08 406.732 1144.38 407.932 1151.18 408.932C1158.18 409.932 1165.18 411.432 1172.18 413.432C1179.18 415.432 1185.58 418.132 1191.38 421.532C1197.18 424.732 1201.88 429.732 1205.48 436.532C1209.08 443.132 1210.88 451.232 1210.88 460.832V472.532C1210.88 487.132 1206.68 498.632 1198.28 507.032C1190.08 515.232 1178.68 519.332 1164.08 519.332H1130.48C1115.88 519.332 1104.38 515.232 1095.98 507.032C1087.58 498.632 1083.38 487.132 1083.38 472.532ZM1247.73 472.532V464.732C1247.73 461.332 1249.43 459.632 1252.83 459.632H1272.03C1275.43 459.632 1277.13 461.332 1277.13 464.732V470.132C1277.13 478.532 1278.93 484.632 1282.53 488.432C1286.33 492.032 1292.53 493.832 1301.13 493.832H1321.83C1330.43 493.832 1336.63 491.932 1340.43 488.132C1344.23 484.132 1346.13 477.732 1346.13 468.932V462.032C1346.13 455.632 1343.63 450.632 1338.63 447.032C1333.83 443.232 1327.83 440.832 1320.63 439.832C1313.43 438.632 1305.53 437.032 1296.93 435.032C1288.33 433.032 1280.43 430.732 1273.23 428.132C1266.03 425.532 1259.93 420.632 1254.93 413.432C1250.13 406.232 1247.73 397.032 1247.73 385.832V373.232C1247.73 358.632 1251.83 347.232 1260.03 339.032C1268.43 330.632 1279.93 326.432 1294.53 326.432H1326.33C1341.13 326.432 1352.63 330.632 1360.83 339.032C1369.23 347.232 1373.43 358.632 1373.43 373.232V379.832C1373.43 383.232 1371.73 384.932 1368.33 384.932H1349.13C1345.73 384.932 1344.03 383.232 1344.03 379.832V375.932C1344.03 367.332 1342.13 361.232 1338.33 357.632C1334.73 353.832 1328.63 351.932 1320.03 351.932H1301.13C1292.53 351.932 1286.33 353.932 1282.53 357.932C1278.93 361.732 1277.13 368.332 1277.13 377.732V387.032C1277.13 396.032 1283.63 402.132 1296.63 405.332C1302.43 406.732 1308.73 407.932 1315.53 408.932C1322.53 409.932 1329.53 411.432 1336.53 413.432C1343.53 415.432 1349.93 418.132 1355.73 421.532C1361.53 424.732 1366.23 429.732 1369.83 436.532C1373.43 443.132 1375.23 451.232 1375.23 460.832V472.532C1375.23 487.132 1371.03 498.632 1362.63 507.032C1354.43 515.232 1343.03 519.332 1328.43 519.332H1294.83C1280.23 519.332 1268.73 515.232 1260.33 507.032C1251.93 498.632 1247.73 487.132 1247.73 472.532ZM1463.39 493.832H1489.49C1504.09 493.832 1511.39 486.432 1511.39 471.632V374.132C1511.39 359.332 1504.09 351.932 1489.49 351.932H1463.39C1448.99 351.932 1441.79 359.332 1441.79 374.132V471.632C1441.79 486.432 1448.99 493.832 1463.39 493.832ZM1493.99 519.332H1459.19C1444.39 519.332 1432.89 515.232 1424.69 507.032C1416.69 498.832 1412.69 487.432 1412.69 472.832V372.932C1412.69 358.132 1416.69 346.732 1424.69 338.732C1432.89 330.532 1444.39 326.432 1459.19 326.432H1493.99C1508.79 326.432 1520.29 330.532 1528.49 338.732C1536.69 346.732 1540.79 358.132 1540.79 372.932V472.832C1540.79 487.432 1536.69 498.832 1528.49 507.032C1520.29 515.232 1508.79 519.332 1493.99 519.332ZM1659.52 519.332H1624.72C1609.92 519.332 1598.42 515.232 1590.22 507.032C1582.22 498.832 1578.22 487.432 1578.22 472.832V372.932C1578.22 358.132 1582.22 346.732 1590.22 338.732C1598.42 330.532 1609.92 326.432 1624.72 326.432H1659.52C1674.12 326.432 1685.52 330.532 1693.72 338.732C1701.92 346.732 1706.02 358.132 1706.02 372.932V387.332C1706.02 390.932 1704.22 392.732 1700.62 392.732H1681.72C1678.32 392.732 1676.62 390.932 1676.62 387.332V374.132C1676.62 359.332 1669.42 351.932 1655.02 351.932H1628.92C1614.52 351.932 1607.32 359.332 1607.32 374.132V471.632C1607.32 486.432 1614.52 493.832 1628.92 493.832H1655.02C1669.42 493.832 1676.62 486.432 1676.62 471.632V458.432C1676.62 454.832 1678.32 453.032 1681.72 453.032H1700.62C1704.22 453.032 1706.02 454.832 1706.02 458.432V472.832C1706.02 487.432 1701.92 498.832 1693.72 507.032C1685.52 515.232 1674.12 519.332 1659.52 519.332ZM1773.83 331.532V514.232C1773.83 517.632 1772.13 519.332 1768.73 519.332H1749.83C1746.43 519.332 1744.73 517.632 1744.73 514.232V331.532C1744.73 328.132 1746.43 326.432 1749.83 326.432H1768.73C1772.13 326.432 1773.83 328.132 1773.83 331.532ZM1829.61 519.332H1808.01C1805.21 519.332 1804.21 517.632 1805.01 514.232L1857.21 331.532C1858.21 328.132 1860.61 326.432 1864.41 326.432H1894.41C1898.41 326.432 1900.81 328.132 1901.61 331.532L1953.81 514.232C1954.61 517.632 1953.51 519.332 1950.51 519.332H1929.21C1927.41 519.332 1926.11 519.032 1925.31 518.432C1924.71 517.632 1924.21 516.232 1923.81 514.232L1912.41 475.232H1846.41L1835.01 514.232C1834.21 517.632 1832.41 519.332 1829.61 519.332ZM1878.81 355.232L1852.41 451.232H1906.71L1880.01 355.232H1878.81ZM2036.26 519.332H2017.36C2013.76 519.332 2011.96 517.632 2011.96 514.232V354.932C2011.96 352.932 2010.96 351.932 2008.96 351.932H1971.16C1967.56 351.932 1965.76 350.232 1965.76 346.832V331.532C1965.76 328.132 1967.56 326.432 1971.16 326.432H2082.46C2086.06 326.432 2087.86 328.132 2087.86 331.532V346.832C2087.86 350.232 2086.06 351.932 2082.46 351.932H2044.66C2042.46 351.932 2041.36 352.932 2041.36 354.932V514.232C2041.36 517.632 2039.66 519.332 2036.26 519.332ZM2214.64 519.332H2118.64C2115.24 519.332 2113.54 517.632 2113.54 514.232V331.532C2113.54 328.132 2115.24 326.432 2118.64 326.432H2214.64C2217.84 326.432 2219.44 328.132 2219.44 331.532V346.832C2219.44 350.232 2217.84 351.932 2214.64 351.932H2146.24C2143.84 351.932 2142.64 352.932 2142.64 354.932V405.632C2142.64 407.632 2143.84 408.632 2146.24 408.632H2204.14C2207.74 408.632 2209.54 410.332 2209.54 413.732V429.032C2209.54 432.432 2207.74 434.132 2204.14 434.132H2146.24C2143.84 434.132 2142.64 435.132 2142.64 437.132V490.532C2142.64 492.732 2143.84 493.832 2146.24 493.832H2214.64C2217.84 493.832 2219.44 495.532 2219.44 498.932V514.232C2219.44 517.632 2217.84 519.332 2214.64 519.332ZM2254.08 472.532V464.732C2254.08 461.332 2255.78 459.632 2259.18 459.632H2278.38C2281.78 459.632 2283.48 461.332 2283.48 464.732V470.132C2283.48 478.532 2285.28 484.632 2288.88 488.432C2292.68 492.032 2298.88 493.832 2307.48 493.832H2328.18C2336.78 493.832 2342.98 491.932 2346.78 488.132C2350.58 484.132 2352.48 477.732 2352.48 468.932V462.032C2352.48 455.632 2349.98 450.632 2344.98 447.032C2340.18 443.232 2334.18 440.832 2326.98 439.832C2319.78 438.632 2311.88 437.032 2303.28 435.032C2294.68 433.032 2286.78 430.732 2279.58 428.132C2272.38 425.532 2266.28 420.632 2261.28 413.432C2256.48 406.232 2254.08 397.032 2254.08 385.832V373.232C2254.08 358.632 2258.18 347.232 2266.38 339.032C2274.78 330.632 2286.28 326.432 2300.88 326.432H2332.68C2347.48 326.432 2358.98 330.632 2367.18 339.032C2375.58 347.232 2379.78 358.632 2379.78 373.232V379.832C2379.78 383.232 2378.08 384.932 2374.68 384.932H2355.48C2352.08 384.932 2350.38 383.232 2350.38 379.832V375.932C2350.38 367.332 2348.48 361.232 2344.68 357.632C2341.08 353.832 2334.98 351.932 2326.38 351.932H2307.48C2298.88 351.932 2292.68 353.932 2288.88 357.932C2285.28 361.732 2283.48 368.332 2283.48 377.732V387.032C2283.48 396.032 2289.98 402.132 2302.98 405.332C2308.78 406.732 2315.08 407.932 2321.88 408.932C2328.88 409.932 2335.88 411.432 2342.88 413.432C2349.88 415.432 2356.28 418.132 2362.08 421.532C2367.88 424.732 2372.58 429.732 2376.18 436.532C2379.78 443.132 2381.58 451.232 2381.58 460.832V472.532C2381.58 487.132 2377.38 498.632 2368.98 507.032C2360.78 515.232 2349.38 519.332 2334.78 519.332H2301.18C2286.58 519.332 2275.08 515.232 2266.68 507.032C2258.28 498.632 2254.08 487.132 2254.08 472.532Z" fill="#29ABE2"/>
</svg>
