<svg width="2286" height="363" viewBox="0 0 2286 363" fill="none" xmlns="http://www.w3.org/2000/svg">
<path d="M183.124 121.045L198.27 168.219L235.938 121.045L252.914 99.7844L282.031 63.3184H164.589L176.297 99.7844L183.124 121.045Z" fill="#405EA7"/>
<path d="M594.52 121.638C589.819 108.843 582.248 97.2945 572.388 87.8806C562.529 78.4667 550.644 71.4373 537.645 67.332C529.163 64.6916 520.329 63.3524 511.445 63.36H339.171L310.716 100.174L294.126 121.638L243.042 187.726L215.495 223.366L201.202 241.858L199.522 244.032L188.579 258.189L183.779 244.032L183.042 241.858L170.359 204.485L164.673 187.727L142.239 121.638L134.957 100.174L122.464 63.36L120.986 59.002H0L2.44199 63.361L23.067 100.175H85.878L93.162 121.639L115.586 187.726L133.956 241.857L134.693 244.031L135.993 247.855L154.473 302.311L156.516 308.334C157.828 312.277 160.188 315.789 163.343 318.494C166.499 321.198 170.331 322.993 174.429 323.686C178.527 324.378 182.736 323.943 186.605 322.426C190.474 320.909 193.857 318.367 196.392 315.074L204.377 304.743L230.607 270.808L251.307 244.031L252.987 241.857L294.829 187.726L345.911 121.638H487.596V100.938L501.726 113.802L510.338 121.64L544.369 152.612L510.034 187.729L482.51 215.882V187.726H373.768L331.928 241.857L330.248 244.031L268.435 324.002H339.25L401.063 244.032H473.842L572.335 311.037L530.346 244.031L528.004 240.294C540.677 237.761 552.652 232.514 563.106 224.915C573.559 217.316 582.244 207.544 588.564 196.271C594.884 184.997 598.688 172.49 599.716 159.607C600.744 146.724 598.972 133.771 594.52 121.638Z" fill="#405EA7"/>
<path d="M706.57 291H657.138L732.457 72.8182H791.903L867.116 291H817.685L763.033 122.676H761.328L706.57 291ZM703.48 205.24H820.241V241.249H703.48V205.24ZM1024.87 174.026L983.319 176.582C982.608 173.031 981.081 169.835 978.738 166.994C976.394 164.082 973.304 161.774 969.469 160.07C965.705 158.294 961.195 157.406 955.939 157.406C948.908 157.406 942.978 158.898 938.148 161.881C933.319 164.793 930.904 168.699 930.904 173.599C930.904 177.506 932.466 180.808 935.591 183.507C938.716 186.206 944.078 188.372 951.678 190.006L981.294 195.972C997.203 199.239 1009.06 204.494 1016.88 211.739C1024.69 218.983 1028.6 228.5 1028.6 240.29C1028.6 251.014 1025.44 260.425 1019.11 268.521C1012.86 276.618 1004.27 282.939 993.333 287.484C982.466 291.959 969.931 294.196 955.726 294.196C934.064 294.196 916.806 289.686 903.951 280.666C891.167 271.575 883.674 259.217 881.472 243.592L926.11 241.249C927.459 247.854 930.726 252.896 935.911 256.376C941.096 259.786 947.736 261.49 955.833 261.49C963.787 261.49 970.179 259.963 975.009 256.909C979.909 253.784 982.395 249.771 982.466 244.871C982.395 240.751 980.655 237.378 977.246 234.75C973.837 232.051 968.581 229.991 961.479 228.571L933.141 222.925C917.161 219.729 905.265 214.189 897.452 206.305C889.711 198.422 885.84 188.372 885.84 176.156C885.84 165.645 888.681 156.589 894.363 148.99C900.115 141.391 908.176 135.531 918.546 131.412C928.986 127.293 941.202 125.233 955.194 125.233C975.861 125.233 992.125 129.601 1003.99 138.337C1015.92 147.072 1022.88 158.969 1024.87 174.026ZM1193.32 174.026L1151.78 176.582C1151.07 173.031 1149.54 169.835 1147.19 166.994C1144.85 164.082 1141.76 161.774 1137.93 160.07C1134.16 158.294 1129.65 157.406 1124.4 157.406C1117.37 157.406 1111.43 158.898 1106.61 161.881C1101.78 164.793 1099.36 168.699 1099.36 173.599C1099.36 177.506 1100.92 180.808 1104.05 183.507C1107.17 186.206 1112.54 188.372 1120.13 190.006L1149.75 195.972C1165.66 199.239 1177.52 204.494 1185.33 211.739C1193.15 218.983 1197.05 228.5 1197.05 240.29C1197.05 251.014 1193.89 260.425 1187.57 268.521C1181.32 276.618 1172.73 282.939 1161.79 287.484C1150.92 291.959 1138.39 294.196 1124.18 294.196C1102.52 294.196 1085.26 289.686 1072.41 280.666C1059.62 271.575 1052.13 259.217 1049.93 243.592L1094.57 241.249C1095.92 247.854 1099.18 252.896 1104.37 256.376C1109.55 259.786 1116.19 261.49 1124.29 261.49C1132.24 261.49 1138.64 259.963 1143.47 256.909C1148.37 253.784 1150.85 249.771 1150.92 244.871C1150.85 240.751 1149.11 237.378 1145.7 234.75C1142.29 232.051 1137.04 229.991 1129.94 228.571L1101.6 222.925C1085.62 219.729 1073.72 214.189 1065.91 206.305C1058.17 198.422 1054.3 188.372 1054.3 176.156C1054.3 165.645 1057.14 156.589 1062.82 148.99C1068.57 141.391 1076.63 135.531 1087 131.412C1097.44 127.293 1109.66 125.233 1123.65 125.233C1144.32 125.233 1160.58 129.601 1172.44 138.337C1184.38 147.072 1191.34 158.969 1193.32 174.026ZM1299.56 294.196C1283.02 294.196 1268.71 290.68 1256.63 283.649C1244.63 276.547 1235.36 266.675 1228.83 254.033C1222.29 241.32 1219.03 226.582 1219.03 209.821C1219.03 192.918 1222.29 178.145 1228.83 165.503C1235.36 152.79 1244.63 142.918 1256.63 135.886C1268.71 128.784 1283.02 125.233 1299.56 125.233C1316.11 125.233 1330.39 128.784 1342.39 135.886C1354.47 142.918 1363.77 152.79 1370.3 165.503C1376.84 178.145 1380.1 192.918 1380.1 209.821C1380.1 226.582 1376.84 241.32 1370.3 254.033C1363.77 266.675 1354.47 276.547 1342.39 283.649C1330.39 290.68 1316.11 294.196 1299.56 294.196ZM1299.78 259.04C1307.31 259.04 1313.59 256.909 1318.63 252.648C1323.68 248.315 1327.48 242.42 1330.03 234.963C1332.66 227.506 1333.98 219.018 1333.98 209.501C1333.98 199.984 1332.66 191.497 1330.03 184.04C1327.48 176.582 1323.68 170.687 1318.63 166.355C1313.59 162.023 1307.31 159.857 1299.78 159.857C1292.18 159.857 1285.79 162.023 1280.6 166.355C1275.49 170.687 1271.62 176.582 1268.99 184.04C1266.43 191.497 1265.15 199.984 1265.15 209.501C1265.15 219.018 1266.43 227.506 1268.99 234.963C1271.62 242.42 1275.49 248.315 1280.6 252.648C1285.79 256.909 1292.18 259.04 1299.78 259.04ZM1483.55 294.196C1466.79 294.196 1452.37 290.645 1440.3 283.543C1428.29 276.369 1419.06 266.426 1412.6 253.713C1406.21 241 1403.01 226.369 1403.01 209.821C1403.01 193.06 1406.24 178.358 1412.7 165.716C1419.24 153.003 1428.51 143.095 1440.51 135.993C1452.51 128.82 1466.79 125.233 1483.34 125.233C1497.61 125.233 1510.11 127.825 1520.84 133.01C1531.56 138.195 1540.05 145.474 1546.3 154.849C1552.55 164.224 1555.99 175.233 1556.63 187.875H1513.81C1512.6 179.707 1509.4 173.138 1504.22 168.166C1499.1 163.124 1492.39 160.602 1484.08 160.602C1477.05 160.602 1470.91 162.52 1465.65 166.355C1460.47 170.119 1456.42 175.624 1453.51 182.868C1450.59 190.112 1449.14 198.884 1449.14 209.182C1449.14 219.622 1450.56 228.5 1453.4 235.815C1456.31 243.131 1460.4 248.706 1465.65 252.541C1470.91 256.376 1477.05 258.294 1484.08 258.294C1489.27 258.294 1493.92 257.229 1498.04 255.098C1502.23 252.967 1505.67 249.878 1508.37 245.83C1511.14 241.71 1512.95 236.774 1513.81 231.021H1556.63C1555.92 243.521 1552.51 254.53 1546.4 264.047C1540.37 273.493 1532.02 280.879 1521.37 286.206C1510.72 291.533 1498.11 294.196 1483.55 294.196ZM1585.69 291V127.364H1631.07V291H1585.69ZM1608.49 106.27C1601.74 106.27 1595.95 104.033 1591.12 99.5582C1586.36 95.0128 1583.98 89.5795 1583.98 83.2585C1583.98 77.0085 1586.36 71.6463 1591.12 67.1719C1595.95 62.6264 1601.74 60.3537 1608.49 60.3537C1615.23 60.3537 1620.99 62.6264 1625.75 67.1719C1630.58 71.6463 1632.99 77.0085 1632.99 83.2585C1632.99 89.5795 1630.58 95.0128 1625.75 99.5582C1620.99 104.033 1615.23 106.27 1608.49 106.27ZM1714.09 294.089C1703.65 294.089 1694.34 292.278 1686.18 288.656C1678.01 284.963 1671.55 279.53 1666.79 272.357C1662.1 265.112 1659.76 256.092 1659.76 245.297C1659.76 236.206 1661.43 228.571 1664.76 222.392C1668.1 216.213 1672.65 211.241 1678.4 207.477C1684.15 203.713 1690.69 200.872 1698 198.955C1705.39 197.037 1713.13 195.688 1721.23 194.906C1730.74 193.912 1738.41 192.989 1744.24 192.136C1750.06 191.213 1754.29 189.864 1756.92 188.088C1759.54 186.312 1760.86 183.685 1760.86 180.205V179.565C1760.86 172.818 1758.73 167.598 1754.47 163.905C1750.28 160.212 1744.31 158.365 1736.57 158.365C1728.4 158.365 1721.9 160.176 1717.07 163.798C1712.24 167.349 1709.05 171.824 1707.48 177.222L1665.51 173.812C1667.64 163.869 1671.83 155.276 1678.08 148.031C1684.33 140.716 1692.39 135.105 1702.26 131.199C1712.21 127.222 1723.71 125.233 1736.78 125.233C1745.87 125.233 1754.57 126.298 1762.88 128.429C1771.26 130.56 1778.68 133.862 1785.15 138.337C1791.68 142.811 1796.83 148.564 1800.59 155.595C1804.36 162.555 1806.24 170.901 1806.24 180.631V291H1763.2V268.308H1761.92C1759.3 273.422 1755.78 277.932 1751.38 281.838C1746.97 285.673 1741.68 288.692 1735.5 290.893C1729.32 293.024 1722.19 294.089 1714.09 294.089ZM1727.09 262.768C1733.76 262.768 1739.66 261.455 1744.77 258.827C1749.88 256.128 1753.9 252.506 1756.81 247.96C1759.72 243.415 1761.18 238.266 1761.18 232.513V215.148C1759.76 216.071 1757.8 216.923 1755.32 217.705C1752.9 218.415 1750.17 219.089 1747.11 219.729C1744.06 220.297 1741.01 220.83 1737.95 221.327C1734.9 221.753 1732.13 222.143 1729.64 222.499C1724.32 223.28 1719.66 224.523 1715.69 226.227C1711.71 227.932 1708.62 230.24 1706.42 233.152C1704.22 235.993 1703.12 239.544 1703.12 243.805C1703.12 249.984 1705.35 254.707 1709.83 257.974C1714.37 261.17 1720.13 262.768 1727.09 262.768ZM1928.49 127.364V161.455H1829.94V127.364H1928.49ZM1852.32 88.1591H1897.7V240.716C1897.7 244.906 1898.34 248.173 1899.62 250.517C1900.9 252.79 1902.67 254.388 1904.94 255.311C1907.29 256.234 1909.99 256.696 1913.04 256.696C1915.17 256.696 1917.3 256.518 1919.43 256.163C1921.56 255.737 1923.2 255.418 1924.33 255.205L1931.47 288.976C1929.2 289.686 1926 290.503 1921.88 291.426C1917.76 292.42 1912.76 293.024 1906.86 293.237C1895.93 293.663 1886.34 292.207 1878.1 288.869C1869.93 285.531 1863.57 280.347 1859.03 273.315C1854.48 266.284 1852.25 257.406 1852.32 246.682V88.1591ZM2030.87 294.196C2014.04 294.196 1999.55 290.787 1987.4 283.969C1975.33 277.08 1966.02 267.349 1959.49 254.778C1952.96 242.136 1949.69 227.186 1949.69 209.928C1949.69 193.095 1952.96 178.322 1959.49 165.609C1966.02 152.896 1975.22 142.989 1987.08 135.886C1999.01 128.784 2013.01 125.233 2029.06 125.233C2039.85 125.233 2049.9 126.973 2059.21 130.453C2068.58 133.862 2076.75 139.011 2083.71 145.901C2090.74 152.79 2096.21 161.455 2100.12 171.895C2104.02 182.264 2105.97 194.409 2105.97 208.33V220.794H1967.8V192.669H2063.25C2063.25 186.135 2061.83 180.347 2058.99 175.304C2056.15 170.261 2052.21 166.32 2047.17 163.479C2042.2 160.567 2036.41 159.111 2029.8 159.111C2022.91 159.111 2016.81 160.709 2011.48 163.905C2006.22 167.03 2002.1 171.256 1999.12 176.582C1996.14 181.838 1994.61 187.697 1994.54 194.161V220.901C1994.54 228.997 1996.03 235.993 1999.01 241.888C2002.07 247.783 2006.37 252.328 2011.91 255.524C2017.44 258.72 2024.01 260.318 2031.61 260.318C2036.66 260.318 2041.27 259.608 2045.46 258.188C2049.65 256.767 2053.24 254.636 2056.22 251.795C2059.21 248.955 2061.48 245.474 2063.04 241.355L2105.02 244.125C2102.89 254.21 2098.52 263.017 2091.91 270.545C2085.38 278.003 2076.93 283.827 2066.56 288.017C2056.26 292.136 2044.36 294.196 2030.87 294.196ZM2271.74 174.026L2230.19 176.582C2229.48 173.031 2227.96 169.835 2225.61 166.994C2223.27 164.082 2220.18 161.774 2216.34 160.07C2212.58 158.294 2208.07 157.406 2202.81 157.406C2195.78 157.406 2189.85 158.898 2185.02 161.881C2180.19 164.793 2177.78 168.699 2177.78 173.599C2177.78 177.506 2179.34 180.808 2182.47 183.507C2185.59 186.206 2190.95 188.372 2198.55 190.006L2228.17 195.972C2244.08 199.239 2255.94 204.494 2263.75 211.739C2271.56 218.983 2275.47 228.5 2275.47 240.29C2275.47 251.014 2272.31 260.425 2265.99 268.521C2259.74 276.618 2251.15 282.939 2240.21 287.484C2229.34 291.959 2216.81 294.196 2202.6 294.196C2180.94 294.196 2163.68 289.686 2150.83 280.666C2138.04 271.575 2130.55 259.217 2128.35 243.592L2172.98 241.249C2174.33 247.854 2177.6 252.896 2182.79 256.376C2187.97 259.786 2194.61 261.49 2202.71 261.49C2210.66 261.49 2217.05 259.963 2221.88 256.909C2226.78 253.784 2229.27 249.771 2229.34 244.871C2229.27 240.751 2227.53 237.378 2224.12 234.75C2220.71 232.051 2215.46 229.991 2208.35 228.571L2180.02 222.925C2164.04 219.729 2152.14 214.189 2144.33 206.305C2136.59 198.422 2132.71 188.372 2132.71 176.156C2132.71 165.645 2135.56 156.589 2141.24 148.99C2146.99 141.391 2155.05 135.531 2165.42 131.412C2175.86 127.293 2188.08 125.233 2202.07 125.233C2222.74 125.233 2239 129.601 2250.86 138.337C2262.79 147.072 2269.75 158.969 2271.74 174.026Z" fill="#F04C23"/>
</svg>
