<?xml version="1.0" encoding="UTF-8"?>
<!DOCTYPE svg PUBLIC "-//W3C//DTD SVG 1.1//EN" "http://www.w3.org/Graphics/SVG/1.1/DTD/svg11.dtd">
<svg xmlns="http://www.w3.org/2000/svg" version="1.1" width="654px" height="381px" style="shape-rendering:geometricPrecision; text-rendering:geometricPrecision; image-rendering:optimizeQuality; fill-rule:evenodd; clip-rule:evenodd" xmlns:xlink="http://www.w3.org/1999/xlink">
<g><path style="opacity:1" fill="#f7c303" d="M 493.5,-0.5 C 505.833,-0.5 518.167,-0.5 530.5,-0.5C 533.269,0.9722 536.269,2.13887 539.5,3C 547.11,4.71317 554.776,6.21317 562.5,7.5C 563.749,9.1361 565.416,10.3028 567.5,11C 571.621,12.2292 575.621,13.7292 579.5,15.5C 580.609,15.5569 581.609,15.8902 582.5,16.5C 584.89,18.9266 587.556,21.0932 590.5,23C 589.062,23.2189 587.729,23.7189 586.5,24.5C 586.667,24.8333 586.833,25.1667 587,25.5C 588.458,24.2532 589.958,24.2532 591.5,25.5C 591.998,26.6034 592.331,27.6034 592.5,28.5C 594.409,27.6518 596.409,27.3184 598.5,27.5C 601.944,29.9053 604.61,33.0719 606.5,37C 607.9,38.4381 609.567,39.2714 611.5,39.5C 612.605,40.6005 613.938,41.2671 615.5,41.5C 616.08,43.7488 617.413,45.4154 619.5,46.5C 620.757,49.4274 622.757,51.7607 625.5,53.5C 628.338,61.1858 632.671,67.8524 638.5,73.5C 639.167,73.5 639.5,73.8333 639.5,74.5C 639.198,78.3799 640.531,81.3799 643.5,83.5C 644.025,87.533 645.358,91.1996 647.5,94.5C 649.46,101.347 650.627,108.347 651,115.5C 651.377,116.942 652.21,117.942 653.5,118.5C 653.5,130.5 653.5,142.5 653.5,154.5C 650.169,159.535 648.835,165.202 649.5,171.5C 649.44,174.341 648.774,177.007 647.5,179.5C 644.455,182.893 642.788,186.893 642.5,191.5C 641.5,191.5 640.5,191.5 639.5,191.5C 639.492,194.545 639.159,197.545 638.5,200.5C 638.167,201.167 637.833,201.833 637.5,202.5C 634.017,203.863 632.35,206.53 632.5,210.5C 631.079,213.009 629.412,215.343 627.5,217.5C 620.64,217.528 617.307,221.028 617.5,228C 615.567,228.783 614.067,228.283 613,226.5C 612.82,228.488 612.986,230.488 613.5,232.5C 611.522,236.478 608.522,239.478 604.5,241.5C 602.5,241.5 600.5,241.5 598.5,241.5C 598.5,242.5 598.5,243.5 598.5,244.5C 597.167,244.5 595.833,244.5 594.5,244.5C 594.349,247.718 593.516,248.051 592,245.5C 591.51,246.793 591.343,248.127 591.5,249.5C 590.5,249.5 589.5,249.5 588.5,249.5C 588.567,250.959 588.234,252.292 587.5,253.5C 584.834,253.933 582.168,254.433 579.5,255C 580.598,255.77 580.598,256.603 579.5,257.5C 576.053,260.438 572.053,262.438 567.5,263.5C 560.262,265.386 553.262,267.72 546.5,270.5C 540.736,270.437 535.07,271.103 529.5,272.5C 511.524,273.2 493.69,272.2 476,269.5C 472.344,267.294 468.511,265.461 464.5,264C 465.167,263.333 465.833,262.667 466.5,262C 462.082,261.792 457.749,261.126 453.5,260C 453.833,259.667 454.167,259.333 454.5,259C 452.833,257.333 451.167,255.667 449.5,254C 452.334,253.955 454.834,253.121 457,251.5C 456.386,249.46 456.552,247.46 457.5,245.5C 459.144,245.286 460.644,245.62 462,246.5C 466.144,244.866 467.977,241.866 467.5,237.5C 469.57,237.551 471.403,236.885 473,235.5C 473.772,235.645 474.439,235.978 475,236.5C 475.837,234.649 476.671,232.816 477.5,231C 478.784,230.316 479.951,230.483 481,231.5C 483.516,227.12 485.35,222.453 486.5,217.5C 488.098,215.302 489.431,212.969 490.5,210.5C 493.883,206.447 496.883,202.114 499.5,197.5C 501.527,196.139 503.194,194.473 504.5,192.5C 505.721,191.972 506.887,191.305 508,190.5C 509.502,187.982 511.002,185.482 512.5,183C 513.766,182.691 514.933,182.191 516,181.5C 516.407,177.715 517.241,174.048 518.5,170.5C 520.234,166.7 522.234,163.034 524.5,159.5C 526.104,158.713 526.771,157.38 526.5,155.5C 530.853,150.473 534.853,145.14 538.5,139.5C 542.412,135.321 546.079,130.988 549.5,126.5C 553.708,123.109 557.708,119.443 561.5,115.5C 569.025,108.737 577.692,104.07 587.5,101.5C 592.594,100.349 597.594,99.0156 602.5,97.5C 603.167,97.1667 603.833,96.8333 604.5,96.5C 607.85,96.665 611.183,96.4983 614.5,96C 613.09,94.6283 611.423,93.795 609.5,93.5C 608.694,92.2719 607.694,91.2719 606.5,90.5C 605.726,87.6747 604.059,85.508 601.5,84C 597.159,83.9068 592.826,83.9068 588.5,84C 590.481,83.3946 590.815,82.3946 589.5,81C 586.688,79.4511 583.688,78.6178 580.5,78.5C 580.389,77.8826 580.056,77.3826 579.5,77C 574.833,76.6667 570.167,76.3333 565.5,76C 566.993,74.8438 566.826,74.0104 565,73.5C 554.129,69.9092 543.295,69.5759 532.5,72.5C 531.508,72.3284 530.842,72.6618 530.5,73.5C 528.027,73.0882 526.694,74.0882 526.5,76.5C 524.589,77.075 522.922,78.075 521.5,79.5C 519.973,79.573 518.973,78.9063 518.5,77.5C 518.953,76.5416 519.619,75.7083 520.5,75C 519.667,74.8333 518.833,74.6667 518,74.5C 514.888,75.4831 511.722,76.1497 508.5,76.5C 507.614,75.2241 506.614,75.2241 505.5,76.5C 504.902,77.7946 504.402,79.1279 504,80.5C 500.38,78.8166 496.546,78.1499 492.5,78.5C 492.5,79.5 492.5,80.5 492.5,81.5C 490.5,81.5 489.5,82.5 489.5,84.5C 477.455,100.011 467.455,116.677 459.5,134.5C 455.264,141.297 451.264,148.297 447.5,155.5C 444.884,158.455 442.218,161.455 439.5,164.5C 439.667,164.833 439.833,165.167 440,165.5C 441.329,164.506 442.662,163.506 444,162.5C 444.772,162.645 445.439,162.978 446,163.5C 446.49,162.207 446.657,160.873 446.5,159.5C 447.873,159.343 449.207,159.51 450.5,160C 449.748,160.671 449.414,161.504 449.5,162.5C 447.2,164.637 445.033,166.97 443,169.5C 442.312,170.332 442.479,170.998 443.5,171.5C 447.532,168.41 450.865,164.743 453.5,160.5C 460.088,152.308 466.421,143.974 472.5,135.5C 473.496,135.586 474.329,135.252 475,134.5C 475.471,132.754 476.138,131.087 477,129.5C 479.326,127.545 481.659,125.545 484,123.5C 484.167,124.333 484.333,125.167 484.5,126C 482.412,130.53 480.079,135.03 477.5,139.5C 476.548,141.045 476.215,142.712 476.5,144.5C 475.244,148.687 473.244,152.354 470.5,155.5C 468.801,155.34 467.134,155.506 465.5,156C 466.574,156.739 467.241,157.739 467.5,159C 465.134,163.565 462.634,168.065 460,172.5C 457.562,171.134 457.062,171.634 458.5,174C 455.189,177.31 452.689,181.143 451,185.5C 450.282,184.549 449.449,184.383 448.5,185C 448.393,188.6 446.393,191.1 442.5,192.5C 442.977,193.478 443.643,194.311 444.5,195C 442.993,195.837 442.493,197.004 443,198.5C 446.105,196.306 448.772,193.64 451,190.5C 451.333,191.167 451.667,191.833 452,192.5C 454.346,189.682 456.346,186.682 458,183.5C 458.333,184.5 458.667,185.5 459,186.5C 459.219,185.062 459.719,183.729 460.5,182.5C 460.833,183.167 461.167,183.833 461.5,184.5C 460.033,187.266 459.2,190.266 459,193.5C 454.892,199.319 451.059,205.319 447.5,211.5C 447.938,212.506 448.604,212.506 449.5,211.5C 451.278,209.736 452.611,207.736 453.5,205.5C 455.861,203.806 457.861,201.806 459.5,199.5C 461.331,198.948 462.997,198.948 464.5,199.5C 466.388,196.391 467.721,193.057 468.5,189.5C 469.705,187.862 471.038,187.529 472.5,188.5C 470.21,191.981 469.376,195.648 470,199.5C 469.086,198.346 468.253,198.513 467.5,200C 468.337,201.011 468.67,202.178 468.5,203.5C 467.5,203.5 466.5,203.5 465.5,203.5C 465.5,204.833 465.5,206.167 465.5,207.5C 461.242,208.972 458.576,211.972 457.5,216.5C 456.808,215.975 456.308,215.308 456,214.5C 455.798,216.256 455.298,217.922 454.5,219.5C 450.901,218.908 447.401,219.575 444,221.5C 440.567,218.854 438.734,215.688 438.5,212C 439.022,211.05 439.689,210.216 440.5,209.5C 440.167,209.167 439.833,208.833 439.5,208.5C 437.556,209.801 435.556,210.801 433.5,211.5C 430.615,210.618 427.948,209.284 425.5,207.5C 424.71,206.599 423.71,205.932 422.5,205.5C 421.5,205.167 420.833,204.5 420.5,203.5C 419.415,201.413 417.749,200.08 415.5,199.5C 414.19,197.852 412.857,196.186 411.5,194.5C 413.993,192.752 413.827,191.086 411,189.5C 410.517,190.448 410.351,191.448 410.5,192.5C 408.784,192.371 407.117,192.038 405.5,191.5C 404.989,189.805 404.322,188.139 403.5,186.5C 399.478,184.325 395.478,182.325 391.5,180.5C 389.17,178.416 388.003,175.749 388,172.5C 382.733,170.899 379.067,167.565 377,162.5C 375.644,163.38 374.144,163.714 372.5,163.5C 372.003,157.619 371.003,151.953 369.5,146.5C 369.334,137.827 369.5,129.16 370,120.5C 371.798,115.311 372.631,109.978 372.5,104.5C 377.608,97.0313 380.608,88.698 381.5,79.5C 382.239,79.631 382.906,79.4643 383.5,79C 386.844,73.4646 389.511,67.6312 391.5,61.5C 392.397,60.4019 393.23,60.4019 394,61.5C 394.471,59.7536 395.138,58.087 396,56.5C 398.292,55.2101 400.292,53.5435 402,51.5C 403.109,48.5585 404.609,45.8918 406.5,43.5C 408.5,42.1667 410.167,40.5 411.5,38.5C 411.5,37.8333 411.833,37.5 412.5,37.5C 414.167,36.5 415.5,35.1667 416.5,33.5C 420.207,31.3115 423.54,28.6448 426.5,25.5C 429.198,25.1551 431.198,23.8218 432.5,21.5C 434.223,19.7819 436.223,18.4486 438.5,17.5C 444.813,16.1766 450.479,13.5099 455.5,9.5C 460.216,8.99171 464.882,8.15838 469.5,7C 477.552,3.9813 485.552,1.4813 493.5,-0.5 Z"/></g>
<g><path style="opacity:0.875" fill="#f1d364" d="M 530.5,-0.5 C 532.833,-0.5 535.167,-0.5 537.5,-0.5C 545.972,1.76867 554.306,4.43534 562.5,7.5C 554.776,6.21317 547.11,4.71317 539.5,3C 536.269,2.13887 533.269,0.9722 530.5,-0.5 Z"/></g>
<g><path style="opacity:0.925" fill="#f0ce4e" d="M 486.5,-0.5 C 488.833,-0.5 491.167,-0.5 493.5,-0.5C 485.552,1.4813 477.552,3.9813 469.5,7C 464.882,8.15838 460.216,8.99171 455.5,9.5C 458.625,7.77548 461.958,6.27548 465.5,5C 472.66,3.29477 479.66,1.46144 486.5,-0.5 Z"/></g>
<g><path style="opacity:0.561" fill="#efd664" d="M 455.5,9.5 C 450.479,13.5099 444.813,16.1766 438.5,17.5C 443.704,14.067 449.371,11.4003 455.5,9.5 Z"/></g>
<g><path style="opacity:0.118" fill="#f0dc79" d="M 562.5,7.5 C 565.934,8.44718 569.267,9.61385 572.5,11C 575.239,12.0259 577.572,13.5259 579.5,15.5C 575.621,13.7292 571.621,12.2292 567.5,11C 565.416,10.3028 563.749,9.1361 562.5,7.5 Z"/></g>
<g><path style="opacity:0.224" fill="#f7e083" d="M 432.5,21.5 C 431.198,23.8218 429.198,25.1551 426.5,25.5C 428.147,23.6736 430.147,22.3403 432.5,21.5 Z"/></g>
<g><path style="opacity:1" fill="#f0cb44" d="M 582.5,16.5 C 588.537,19.1819 593.871,22.8486 598.5,27.5C 596.409,27.3184 594.409,27.6518 592.5,28.5C 592.331,27.6034 591.998,26.6034 591.5,25.5C 589.958,24.2532 588.458,24.2532 587,25.5C 586.833,25.1667 586.667,24.8333 586.5,24.5C 587.729,23.7189 589.062,23.2189 590.5,23C 587.556,21.0932 584.89,18.9266 582.5,16.5 Z"/></g>
<g><path style="opacity:0.169" fill="#fae599" d="M 426.5,25.5 C 423.54,28.6448 420.207,31.3115 416.5,33.5C 419.095,29.8743 422.428,27.2076 426.5,25.5 Z"/></g>
<g><path style="opacity:0.133" fill="#fbe9af" d="M 416.5,33.5 C 415.5,35.1667 414.167,36.5 412.5,37.5C 412.833,35.1667 414.167,33.8333 416.5,33.5 Z"/></g>
<g><path style="opacity:0.878" fill="#ebcb47" d="M 598.5,27.5 C 602.708,29.3681 606.375,32.0347 609.5,35.5C 609.733,37.0618 610.4,38.3951 611.5,39.5C 609.567,39.2714 607.9,38.4381 606.5,37C 604.61,33.0719 601.944,29.9053 598.5,27.5 Z"/></g>
<g><path style="opacity:0.212" fill="#f4e79e" d="M 609.5,35.5 C 611.833,37.1667 613.833,39.1667 615.5,41.5C 613.938,41.2671 612.605,40.6005 611.5,39.5C 610.4,38.3951 609.733,37.0618 609.5,35.5 Z"/></g>
<g><path style="opacity:0.251" fill="#fbe69f" d="M 411.5,38.5 C 410.167,40.5 408.5,42.1667 406.5,43.5C 407.167,40.8333 408.833,39.1667 411.5,38.5 Z"/></g>
<g><path style="opacity:0.255" fill="#f0de89" d="M 615.5,41.5 C 617.587,42.5846 618.92,44.2512 619.5,46.5C 617.413,45.4154 616.08,43.7488 615.5,41.5 Z"/></g>
<g><path style="opacity:0.353" fill="#f3dc82" d="M 619.5,46.5 C 622.243,48.2393 624.243,50.5726 625.5,53.5C 622.757,51.7607 620.757,49.4274 619.5,46.5 Z"/></g>
<g><path style="opacity:0.957" fill="#f3d464" d="M 406.5,43.5 C 404.609,45.8918 403.109,48.5585 402,51.5C 400.292,53.5435 398.292,55.2101 396,56.5C 395.138,58.087 394.471,59.7536 394,61.5C 393.23,60.4019 392.397,60.4019 391.5,61.5C 395.089,54.2509 400.089,48.2509 406.5,43.5 Z"/></g>
<g><path style="opacity:0.973" fill="#edd05a" d="M 625.5,53.5 C 631.324,59.1348 635.657,65.8015 638.5,73.5C 632.671,67.8524 628.338,61.1858 625.5,53.5 Z"/></g>
<g><path style="opacity:1" fill="#eed154" d="M 391.5,61.5 C 389.511,67.6312 386.844,73.4646 383.5,79C 382.906,79.4643 382.239,79.631 381.5,79.5C 383.639,72.7298 386.972,66.7298 391.5,61.5 Z"/></g>
<g><path style="opacity:1" fill="#625119" d="M 530.5,73.5 C 533.247,73.1866 535.914,73.52 538.5,74.5C 537.995,75.9185 536.995,76.5852 535.5,76.5C 535.38,75.4138 534.713,74.7472 533.5,74.5C 531.149,75.1734 528.816,75.8401 526.5,76.5C 526.694,74.0882 528.027,73.0882 530.5,73.5 Z"/></g>
<g><path style="opacity:1" fill="#64511b" d="M 547.5,85.5 C 547.414,84.5041 547.748,83.6708 548.5,83C 551.891,81.311 554.891,79.1443 557.5,76.5C 557.291,75.914 556.957,75.414 556.5,75C 553.833,74.3333 551.167,74.3333 548.5,75C 544.797,78.135 540.797,80.8017 536.5,83C 529.325,90.0084 522.325,97.175 515.5,104.5C 515.709,103.078 516.209,101.745 517,100.5C 521.035,96.7998 524.702,92.7998 528,88.5C 532.026,85.3016 535.859,81.9683 539.5,78.5C 541.23,77.9744 542.564,76.9744 543.5,75.5C 546.703,73.914 550.203,73.2473 554,73.5C 557.62,73.4158 561.12,73.9158 564.5,75C 558.805,78.511 553.139,82.011 547.5,85.5 Z"/></g>
<g><path style="opacity:1" fill="#c39e1f" d="M 530.5,73.5 C 530.842,72.6618 531.508,72.3284 532.5,72.5C 535.518,72.3354 538.518,72.502 541.5,73C 540.391,74.813 541.058,75.6463 543.5,75.5C 542.564,76.9744 541.23,77.9744 539.5,78.5C 539.631,77.7611 539.464,77.0944 539,76.5C 536.749,77.4123 534.583,78.4123 532.5,79.5C 533.167,78.1667 534.167,77.1667 535.5,76.5C 536.995,76.5852 537.995,75.9185 538.5,74.5C 535.914,73.52 533.247,73.1866 530.5,73.5 Z"/></g>
<g><path style="opacity:1" fill="#7e6214" d="M 494.5,85.5 C 493.393,83.1534 491.726,82.82 489.5,84.5C 489.5,82.5 490.5,81.5 492.5,81.5C 500.895,78.7059 501.561,80.0392 494.5,85.5 Z"/></g>
<g><path style="opacity:1" fill="#7b6113" d="M 518.5,77.5 C 516.938,77.7329 515.605,78.3995 514.5,79.5C 514.209,78.3509 513.376,77.6842 512,77.5C 508.368,80.2946 504.868,83.2946 501.5,86.5C 503.833,83.1667 506.167,79.8333 508.5,76.5C 511.722,76.1497 514.888,75.4831 518,74.5C 518.833,74.6667 519.667,74.8333 520.5,75C 519.619,75.7083 518.953,76.5416 518.5,77.5 Z"/></g>
<g><path style="opacity:1" fill="#9d7f21" d="M 532.5,79.5 C 531.421,81.543 529.754,82.8763 527.5,83.5C 528.539,81.4689 530.205,80.1355 532.5,79.5 Z"/></g>
<g><path style="opacity:1" fill="#4d473b" d="M 577.5,84.5 C 574.382,85.5587 571.382,86.8921 568.5,88.5C 566.473,88.6621 564.473,88.4955 562.5,88C 562.112,86.3986 561.445,84.5652 560.5,82.5C 564.318,82.1076 567.985,81.1076 571.5,79.5C 574.826,80.0466 578.16,80.5466 581.5,81C 579.907,81.9487 578.574,83.1154 577.5,84.5 Z"/></g>
<g><path style="opacity:0.957" fill="#f0d15e" d="M 639.5,74.5 C 641.592,77.0884 642.925,80.0884 643.5,83.5C 640.531,81.3799 639.198,78.3799 639.5,74.5 Z"/></g>
<g><path style="opacity:1" fill="#584a27" d="M 514.5,79.5 C 505.438,87.8973 497.438,97.2307 490.5,107.5C 489.185,108.476 487.852,109.476 486.5,110.5C 485.702,110.043 485.369,109.376 485.5,108.5C 487.261,103.854 489.928,99.8538 493.5,96.5C 497.3,94.0374 499.967,90.704 501.5,86.5C 504.868,83.2946 508.368,80.2946 512,77.5C 513.376,77.6842 514.209,78.3509 514.5,79.5 Z"/></g>
<g><path style="opacity:0.529" fill="#f0d879" d="M 643.5,83.5 C 645.642,86.8004 646.975,90.467 647.5,94.5C 645.358,91.1996 644.025,87.533 643.5,83.5 Z"/></g>
<g><path style="opacity:1" fill="#584b2b" d="M 580.5,78.5 C 582.406,79.4824 584.406,80.4824 586.5,81.5C 583.653,82.9617 580.653,83.9617 577.5,84.5C 578.574,83.1154 579.907,81.9487 581.5,81C 578.16,80.5466 574.826,80.0466 571.5,79.5C 567.985,81.1076 564.318,82.1076 560.5,82.5C 561.445,84.5652 562.112,86.3986 562.5,88C 564.473,88.4955 566.473,88.6621 568.5,88.5C 565.167,90.8333 561.833,93.1667 558.5,95.5C 557.391,95.5569 556.391,95.8902 555.5,96.5C 556.755,93.7744 558.922,92.1077 562,91.5C 562.188,89.9387 561.355,89.272 559.5,89.5C 559.762,88.0222 559.429,86.6888 558.5,85.5C 556.931,86.714 556.098,88.3807 556,90.5C 554.324,91.0611 552.991,92.0611 552,93.5C 550.989,92.6634 549.822,92.33 548.5,92.5C 550.527,89.8061 552.861,87.4728 555.5,85.5C 562.402,78.2239 570.735,75.8906 580.5,78.5 Z"/></g>
<g><path style="opacity:1" fill="#7e6419" d="M 546.5,85.5 C 543.73,89.6046 540.063,92.6046 535.5,94.5C 535.414,93.5041 535.748,92.6708 536.5,92C 540.039,89.9246 543.373,87.7579 546.5,85.5 Z"/></g>
<g><path style="opacity:1" fill="#6e5a14" d="M 587.5,87.5 C 584.001,90.2461 580.001,91.9127 575.5,92.5C 578.999,89.7539 582.999,88.0873 587.5,87.5 Z"/></g>
<g><path style="opacity:1" fill="#7a6318" d="M 523.5,86.5 C 520.833,89.5 518.167,92.5 515.5,95.5C 516.816,91.1901 519.482,88.1901 523.5,86.5 Z"/></g>
<g><path style="opacity:1" fill="#755e10" d="M 501.5,86.5 C 499.967,90.704 497.3,94.0374 493.5,96.5C 495.794,92.8726 498.46,89.5393 501.5,86.5 Z"/></g>
<g><path style="opacity:1" fill="#715b16" d="M 555.5,85.5 C 552.861,87.4728 550.527,89.8061 548.5,92.5C 546.999,93.7515 545.332,94.7515 543.5,95.5C 546.574,91.0963 550.574,87.7629 555.5,85.5 Z"/></g>
<g><path style="opacity:1" fill="#544832" d="M 599.5,87.5 C 600.167,87.5 600.833,87.5 601.5,87.5C 602.899,88.8897 604.566,89.8897 606.5,90.5C 607.694,91.2719 608.694,92.2719 609.5,93.5C 608.198,95.0276 606.531,96.0276 604.5,96.5C 603.833,96.8333 603.167,97.1667 602.5,97.5C 598.846,97.9422 595.179,98.2756 591.5,98.5C 593.928,97.2809 596.261,95.7809 598.5,94C 600.5,93.6667 602.5,93.3333 604.5,93C 602.314,91.5883 600.648,89.755 599.5,87.5 Z"/></g>
<g><path style="opacity:1" fill="#e6bb1d" d="M 518.5,77.5 C 518.973,78.9063 519.973,79.573 521.5,79.5C 515.06,85.5987 509.394,92.2654 504.5,99.5C 501.723,101.951 499.723,104.951 498.5,108.5C 492.986,114.7 488.653,121.7 485.5,129.5C 482.248,134.334 479.248,139.334 476.5,144.5C 476.215,142.712 476.548,141.045 477.5,139.5C 480.079,135.03 482.412,130.53 484.5,126C 484.333,125.167 484.167,124.333 484,123.5C 481.659,125.545 479.326,127.545 477,129.5C 476.138,131.087 475.471,132.754 475,134.5C 474.329,135.252 473.496,135.586 472.5,135.5C 472.893,133.716 473.559,132.05 474.5,130.5C 479.826,122.839 485.159,115.172 490.5,107.5C 497.438,97.2307 505.438,87.8973 514.5,79.5C 515.605,78.3995 516.938,77.7329 518.5,77.5 Z"/></g>
<g><path style="opacity:1" fill="#4d473a" d="M 547.5,85.5 C 547.167,85.5 546.833,85.5 546.5,85.5C 543.373,87.7579 540.039,89.9246 536.5,92C 535.748,92.6708 535.414,93.5041 535.5,94.5C 532.167,97.1667 529.167,100.167 526.5,103.5C 524.167,104.167 521.833,104.833 519.5,105.5C 519.167,107.5 518.833,109.5 518.5,111.5C 516.833,111.5 515.167,111.5 513.5,111.5C 513.767,109.035 514.434,106.701 515.5,104.5C 522.325,97.175 529.325,90.0084 536.5,83C 540.797,80.8017 544.797,78.135 548.5,75C 551.167,74.3333 553.833,74.3333 556.5,75C 556.957,75.414 557.291,75.914 557.5,76.5C 554.891,79.1443 551.891,81.311 548.5,83C 547.748,83.6708 547.414,84.5041 547.5,85.5 Z"/></g>
<g><path style="opacity:1" fill="#6c581e" d="M 575.5,92.5 C 573.566,95.0582 570.899,96.3915 567.5,96.5C 569.465,93.9881 572.132,92.6548 575.5,92.5 Z"/></g>
<g><path style="opacity:0.992" fill="#efd154" d="M 381.5,79.5 C 380.608,88.698 377.608,97.0313 372.5,104.5C 374.144,97.0621 376.311,89.7288 379,82.5C 379.377,81.0577 380.21,80.0577 381.5,79.5 Z"/></g>
<g><path style="opacity:1" fill="#736015" d="M 526.5,76.5 C 519.139,84.1931 511.806,91.8598 504.5,99.5C 509.394,92.2654 515.06,85.5987 521.5,79.5C 522.922,78.075 524.589,77.075 526.5,76.5 Z"/></g>
<g><path style="opacity:1" fill="#684e0e" d="M 609.5,93.5 C 611.423,93.795 613.09,94.6283 614.5,96C 611.183,96.4983 607.85,96.665 604.5,96.5C 606.531,96.0276 608.198,95.0276 609.5,93.5 Z"/></g>
<g><path style="opacity:1" fill="#745d17" d="M 543.5,95.5 C 540.167,99.5 536.5,103.167 532.5,106.5C 535.167,101.833 538.833,98.1667 543.5,95.5 Z"/></g>
<g><path style="opacity:1" fill="#514730" d="M 535.5,76.5 C 534.167,77.1667 533.167,78.1667 532.5,79.5C 530.205,80.1355 528.539,81.4689 527.5,83.5C 525.77,84.0256 524.436,85.0256 523.5,86.5C 519.482,88.1901 516.816,91.1901 515.5,95.5C 512.833,97.5 510.5,99.8333 508.5,102.5C 505.463,104.186 504.13,103.186 504.5,99.5C 511.806,91.8598 519.139,84.1931 526.5,76.5C 528.816,75.8401 531.149,75.1734 533.5,74.5C 534.713,74.7472 535.38,75.4138 535.5,76.5 Z"/></g>
<g><path style="opacity:1" fill="#bd9e26" d="M 558.5,95.5 C 555.883,98.3642 552.883,100.697 549.5,102.5C 550.633,99.5121 552.633,97.5121 555.5,96.5C 556.391,95.8902 557.391,95.5569 558.5,95.5 Z"/></g>
<g><path style="opacity:1" fill="#b59523" d="M 602.5,97.5 C 597.594,99.0156 592.594,100.349 587.5,101.5C 589.076,100.857 590.41,99.8571 591.5,98.5C 595.179,98.2756 598.846,97.9422 602.5,97.5 Z"/></g>
<g><path style="opacity:1" fill="#725d1b" d="M 567.5,96.5 C 566.039,99.255 563.705,101.088 560.5,102C 554.063,107.525 547.73,113.025 541.5,118.5C 548.669,109.325 557.336,101.992 567.5,96.5 Z"/></g>
<g><path style="opacity:1" fill="#6a5921" d="M 504.5,99.5 C 504.13,103.186 505.463,104.186 508.5,102.5C 506.397,105.72 504.064,108.72 501.5,111.5C 502.63,109.685 503.296,107.685 503.5,105.5C 501.336,105.721 499.67,106.721 498.5,108.5C 499.723,104.951 501.723,101.951 504.5,99.5 Z"/></g>
<g><path style="opacity:1" fill="#615121" d="M 494.5,85.5 C 482.905,102.365 471.572,119.365 460.5,136.5C 459.662,136.158 459.328,135.492 459.5,134.5C 467.455,116.677 477.455,100.011 489.5,84.5C 491.726,82.82 493.393,83.1534 494.5,85.5 Z"/></g>
<g><path style="opacity:1" fill="#4e4739" d="M 555.5,96.5 C 552.633,97.5121 550.633,99.5121 549.5,102.5C 542.515,107.153 536.515,112.82 531.5,119.5C 529.433,120.263 527.766,121.596 526.5,123.5C 525.914,123.291 525.414,122.957 525,122.5C 524.51,123.793 524.343,125.127 524.5,126.5C 523.5,126.5 522.5,126.5 521.5,126.5C 521.5,128.167 521.5,129.833 521.5,131.5C 519.817,132.853 518.484,134.52 517.5,136.5C 515.561,135.986 514.561,134.653 514.5,132.5C 515.187,130.823 515.854,129.156 516.5,127.5C 517.708,126.766 519.041,126.433 520.5,126.5C 520.351,125.448 520.517,124.448 521,123.5C 524.961,118.416 528.461,113.082 531.5,107.5C 531.5,106.833 531.833,106.5 532.5,106.5C 536.5,103.167 540.167,99.5 543.5,95.5C 545.332,94.7515 546.999,93.7515 548.5,92.5C 549.822,92.33 550.989,92.6634 552,93.5C 552.991,92.0611 554.324,91.0611 556,90.5C 556.098,88.3807 556.931,86.714 558.5,85.5C 559.429,86.6888 559.762,88.0222 559.5,89.5C 561.355,89.272 562.188,89.9387 562,91.5C 558.922,92.1077 556.755,93.7744 555.5,96.5 Z"/></g>
<g><path style="opacity:1" fill="#564b2c" d="M 591.5,98.5 C 590.41,99.8571 589.076,100.857 587.5,101.5C 577.692,104.07 569.025,108.737 561.5,115.5C 560.167,115.833 558.833,116.167 557.5,116.5C 557.389,115.883 557.056,115.383 556.5,115C 557.833,114.667 559.167,114.333 560.5,114C 559.376,113.751 558.376,113.251 557.5,112.5C 563.763,110.713 569.596,108.046 575,104.5C 575.483,103.552 575.649,102.552 575.5,101.5C 580.708,99.8649 586.042,98.8649 591.5,98.5 Z"/></g>
<g><path style="opacity:1" fill="#5c4e28" d="M 526.5,103.5 C 521.56,109.778 516.227,115.778 510.5,121.5C 506.395,128.724 502.062,135.724 497.5,142.5C 495.808,144.205 494.475,146.205 493.5,148.5C 491.178,149.802 489.845,151.802 489.5,154.5C 488.542,154.953 487.708,155.619 487,156.5C 485.962,159.815 484.462,162.815 482.5,165.5C 480.336,167.822 478.669,170.489 477.5,173.5C 476.624,173.631 475.957,173.298 475.5,172.5C 476.456,170.925 477.123,169.258 477.5,167.5C 483.552,155.564 489.718,143.564 496,131.5C 499.557,124.451 504.057,118.118 509.5,112.5C 510.551,109.039 512.551,106.373 515.5,104.5C 514.434,106.701 513.767,109.035 513.5,111.5C 515.167,111.5 516.833,111.5 518.5,111.5C 518.833,109.5 519.167,107.5 519.5,105.5C 521.833,104.833 524.167,104.167 526.5,103.5 Z"/></g>
<g><path style="opacity:1" fill="#e6bb1e" d="M 580.5,78.5 C 570.735,75.8906 562.402,78.2239 555.5,85.5C 550.574,87.7629 546.574,91.0963 543.5,95.5C 538.833,98.1667 535.167,101.833 532.5,106.5C 531.833,106.5 531.5,106.833 531.5,107.5C 528.375,110.39 525.708,113.723 523.5,117.5C 521.413,118.585 520.08,120.251 519.5,122.5C 518.11,123.899 517.11,125.566 516.5,127.5C 514.263,129.647 512.263,131.98 510.5,134.5C 510.229,132.688 509.562,131.022 508.5,129.5C 506,133.167 503.5,136.833 501,140.5C 499.887,141.305 498.721,141.972 497.5,142.5C 502.062,135.724 506.395,128.724 510.5,121.5C 516.227,115.778 521.56,109.778 526.5,103.5C 529.167,100.167 532.167,97.1667 535.5,94.5C 540.063,92.6046 543.73,89.6046 546.5,85.5C 546.833,85.5 547.167,85.5 547.5,85.5C 553.139,82.011 558.805,78.511 564.5,75C 561.12,73.9158 557.62,73.4158 554,73.5C 550.203,73.2473 546.703,73.914 543.5,75.5C 541.058,75.6463 540.391,74.813 541.5,73C 538.518,72.502 535.518,72.3354 532.5,72.5C 543.295,69.5759 554.129,69.9092 565,73.5C 566.826,74.0104 566.993,74.8438 565.5,76C 570.167,76.3333 574.833,76.6667 579.5,77C 580.056,77.3826 580.389,77.8826 580.5,78.5 Z"/></g>
<g><path style="opacity:0.914" fill="#ecd255" d="M 647.5,94.5 C 649.809,100.404 651.809,106.404 653.5,112.5C 653.5,114.5 653.5,116.5 653.5,118.5C 652.21,117.942 651.377,116.942 651,115.5C 650.627,108.347 649.46,101.347 647.5,94.5 Z"/></g>
<g><path style="opacity:1" fill="#4e453c" d="M 509.5,112.5 C 511.167,112.5 512.833,112.5 514.5,112.5C 514.785,116.717 512.785,118.883 508.5,119C 509.336,120.243 509.003,121.41 507.5,122.5C 507.167,121.667 506.833,120.833 506.5,120C 507.109,117.292 508.109,114.792 509.5,112.5 Z"/></g>
<g><path style="opacity:1" fill="#8a711b" d="M 523.5,117.5 C 522.92,119.749 521.587,121.415 519.5,122.5C 520.08,120.251 521.413,118.585 523.5,117.5 Z"/></g>
<g><path style="opacity:1" fill="#625025" d="M 531.5,107.5 C 528.461,113.082 524.961,118.416 521,123.5C 520.517,124.448 520.351,125.448 520.5,126.5C 519.041,126.433 517.708,126.766 516.5,127.5C 517.11,125.566 518.11,123.899 519.5,122.5C 521.587,121.415 522.92,119.749 523.5,117.5C 525.708,113.723 528.375,110.39 531.5,107.5 Z"/></g>
<g><path style="opacity:1" fill="#675515" d="M 490.5,107.5 C 485.159,115.172 479.826,122.839 474.5,130.5C 473.662,130.158 473.328,129.492 473.5,128.5C 475.44,124.058 477.607,119.725 480,115.5C 481.853,113.097 483.686,110.764 485.5,108.5C 485.369,109.376 485.702,110.043 486.5,110.5C 487.852,109.476 489.185,108.476 490.5,107.5 Z"/></g>
<g><path style="opacity:1" fill="#7d6518" d="M 541.5,118.5 C 541.649,119.552 541.483,120.552 541,121.5C 537.968,125.359 534.802,129.026 531.5,132.5C 534.345,127.473 537.679,122.806 541.5,118.5 Z"/></g>
<g><path style="opacity:1" fill="#9a7f20" d="M 561.5,115.5 C 557.708,119.443 553.708,123.109 549.5,126.5C 552.547,123.455 555.213,120.122 557.5,116.5C 558.833,116.167 560.167,115.833 561.5,115.5 Z"/></g>
<g><path style="opacity:1" fill="#635223" d="M 501.5,111.5 C 496.264,119.769 490.93,128.102 485.5,136.5C 484.503,136.53 483.836,136.03 483.5,135C 484.856,133.433 485.523,131.6 485.5,129.5C 488.653,121.7 492.986,114.7 498.5,108.5C 499.67,106.721 501.336,105.721 503.5,105.5C 503.296,107.685 502.63,109.685 501.5,111.5 Z"/></g>
<g><path style="opacity:1" fill="#584c25" d="M 531.5,119.5 C 529.518,122.81 527.185,125.81 524.5,128.5C 523.1,129.1 522.1,130.1 521.5,131.5C 521.5,129.833 521.5,128.167 521.5,126.5C 522.5,126.5 523.5,126.5 524.5,126.5C 524.343,125.127 524.51,123.793 525,122.5C 525.414,122.957 525.914,123.291 526.5,123.5C 527.766,121.596 529.433,120.263 531.5,119.5 Z"/></g>
<g><path style="opacity:1" fill="#eabc19" d="M 508.5,76.5 C 506.167,79.8333 503.833,83.1667 501.5,86.5C 498.46,89.5393 495.794,92.8726 493.5,96.5C 489.928,99.8538 487.261,103.854 485.5,108.5C 483.686,110.764 481.853,113.097 480,115.5C 477.607,119.725 475.44,124.058 473.5,128.5C 466.866,139.39 459.866,150.057 452.5,160.5C 451.5,161.167 450.5,161.833 449.5,162.5C 449.414,161.504 449.748,160.671 450.5,160C 449.207,159.51 447.873,159.343 446.5,159.5C 446.657,160.873 446.49,162.207 446,163.5C 445.439,162.978 444.772,162.645 444,162.5C 442.662,163.506 441.329,164.506 440,165.5C 439.833,165.167 439.667,164.833 439.5,164.5C 442.218,161.455 444.884,158.455 447.5,155.5C 452.572,149.696 456.905,143.362 460.5,136.5C 471.572,119.365 482.905,102.365 494.5,85.5C 501.561,80.0392 500.895,78.7059 492.5,81.5C 492.5,80.5 492.5,79.5 492.5,78.5C 496.546,78.1499 500.38,78.8166 504,80.5C 504.402,79.1279 504.902,77.7946 505.5,76.5C 506.614,75.2241 507.614,75.2241 508.5,76.5 Z"/></g>
<g><path style="opacity:0.208" fill="#76b08e" d="M 346.5,130.5 C 344.366,129.297 343.032,127.463 342.5,125C 341.833,124.333 341.167,124.333 340.5,125C 339.544,128.394 339.211,131.894 339.5,135.5C 338.353,131.354 338.186,127.02 339,122.5C 339.71,121.027 340.876,120.36 342.5,120.5C 343.634,123.901 344.968,127.234 346.5,130.5 Z"/></g>
<g><path style="opacity:1" fill="#866d1b" d="M 524.5,128.5 C 523.89,129.391 523.557,130.391 523.5,131.5C 521.5,133.5 519.5,135.5 517.5,137.5C 517.5,137.167 517.5,136.833 517.5,136.5C 518.484,134.52 519.817,132.853 521.5,131.5C 522.1,130.1 523.1,129.1 524.5,128.5 Z"/></g>
<g><path style="opacity:1" fill="#7b641a" d="M 549.5,126.5 C 546.079,130.988 542.412,135.321 538.5,139.5C 540.979,134.24 544.645,129.907 549.5,126.5 Z"/></g>
<g><path style="opacity:1" fill="#605127" d="M 516.5,127.5 C 515.854,129.156 515.187,130.823 514.5,132.5C 514.561,134.653 515.561,135.986 517.5,136.5C 517.5,136.833 517.5,137.167 517.5,137.5C 516.66,139.853 515.326,141.853 513.5,143.5C 513.167,143.5 512.833,143.5 512.5,143.5C 512.318,141.409 512.652,139.409 513.5,137.5C 513.062,136.494 512.396,136.494 511.5,137.5C 508.546,143.463 504.879,148.796 500.5,153.5C 501.583,149.237 503.75,145.57 507,142.5C 508.396,139.936 509.563,137.269 510.5,134.5C 512.263,131.98 514.263,129.647 516.5,127.5 Z"/></g>
<g><path style="opacity:1" fill="#1b9048" d="M 346.5,130.5 C 349.497,135.159 352.497,139.825 355.5,144.5C 355.343,145.873 355.51,147.207 356,148.5C 359.356,150.219 360.022,152.552 358,155.5C 353.033,149.937 348.2,144.27 343.5,138.5C 342.675,137.614 341.675,137.281 340.5,137.5C 339.662,137.158 339.328,136.492 339.5,135.5C 339.211,131.894 339.544,128.394 340.5,125C 341.167,124.333 341.833,124.333 342.5,125C 343.032,127.463 344.366,129.297 346.5,130.5 Z"/></g>
<g><path style="opacity:0.365" fill="#f4df79" d="M 372.5,104.5 C 372.631,109.978 371.798,115.311 370,120.5C 369.5,129.16 369.334,137.827 369.5,146.5C 369.5,148.833 369.5,151.167 369.5,153.5C 368.357,149.043 367.69,144.376 367.5,139.5C 367.611,127.467 369.278,115.8 372.5,104.5 Z"/></g>
<g><path style="opacity:1" fill="#806207" d="M 473.5,128.5 C 473.328,129.492 473.662,130.158 474.5,130.5C 473.559,132.05 472.893,133.716 472.5,135.5C 466.421,143.974 460.088,152.308 453.5,160.5C 453.167,160.5 452.833,160.5 452.5,160.5C 459.866,150.057 466.866,139.39 473.5,128.5 Z"/></g>
<g><path style="opacity:1" fill="#7f6202" d="M 459.5,134.5 C 459.328,135.492 459.662,136.158 460.5,136.5C 456.905,143.362 452.572,149.696 447.5,155.5C 451.264,148.297 455.264,141.297 459.5,134.5 Z"/></g>
<g><path style="opacity:1" fill="#645424" d="M 531.5,132.5 C 531.081,136.089 529.914,139.423 528,142.5C 525.852,143.977 524.518,145.977 524,148.5C 523.184,149.823 522.017,150.489 520.5,150.5C 523.349,143.988 527.016,137.988 531.5,132.5 Z"/></g>
<g><path style="opacity:1" fill="#69551a" d="M 538.5,139.5 C 534.853,145.14 530.853,150.473 526.5,155.5C 529.441,149.246 533.441,143.912 538.5,139.5 Z"/></g>
<g><path style="opacity:1" fill="#e9bc1b" d="M 580.5,78.5 C 583.688,78.6178 586.688,79.4511 589.5,81C 590.815,82.3946 590.481,83.3946 588.5,84C 592.826,83.9068 597.159,83.9068 601.5,84C 604.059,85.508 605.726,87.6747 606.5,90.5C 604.566,89.8897 602.899,88.8897 601.5,87.5C 601.389,86.8826 601.056,86.3826 600.5,86C 597.304,85.1955 594.304,85.3622 591.5,86.5C 590.432,87.4345 589.099,87.7678 587.5,87.5C 582.999,88.0873 578.999,89.7539 575.5,92.5C 572.132,92.6548 569.465,93.9881 567.5,96.5C 557.336,101.992 548.669,109.325 541.5,118.5C 537.679,122.806 534.345,127.473 531.5,132.5C 527.016,137.988 523.349,143.988 520.5,150.5C 518.484,152.249 516.818,154.249 515.5,156.5C 515.337,154.143 515.503,151.81 516,149.5C 516.414,149.957 516.914,150.291 517.5,150.5C 519.167,148 520.833,145.5 522.5,143C 522.903,140.113 524.236,137.779 526.5,136C 525.159,132.738 525.492,132.238 527.5,134.5C 528.429,133.311 528.762,131.978 528.5,130.5C 526.784,130.629 525.117,130.962 523.5,131.5C 523.557,130.391 523.89,129.391 524.5,128.5C 527.185,125.81 529.518,122.81 531.5,119.5C 536.515,112.82 542.515,107.153 549.5,102.5C 552.883,100.697 555.883,98.3642 558.5,95.5C 561.833,93.1667 565.167,90.8333 568.5,88.5C 571.382,86.8921 574.382,85.5587 577.5,84.5C 580.653,83.9617 583.653,82.9617 586.5,81.5C 584.406,80.4824 582.406,79.4824 580.5,78.5 Z"/></g>
<g><path style="opacity:1" fill="#ad8b24" d="M 591.5,86.5 C 594.304,85.3622 597.304,85.1955 600.5,86C 601.056,86.3826 601.389,86.8826 601.5,87.5C 600.833,87.5 600.167,87.5 599.5,87.5C 597.052,86.5269 594.385,86.1936 591.5,86.5 Z"/></g>
<g><path style="opacity:0.757" fill="#5aa778" d="M 346.5,151.5 C 344.868,150.554 343.201,149.554 341.5,148.5C 339.689,152.213 340.689,154.546 344.5,155.5C 345.448,158.14 346.448,160.807 347.5,163.5C 344.531,160.358 341.698,157.025 339,153.5C 338.501,149.514 338.334,145.514 338.5,141.5C 339.675,141.281 340.675,141.614 341.5,142.5C 342.937,145.716 344.604,148.716 346.5,151.5 Z"/></g>
<g><path style="opacity:1" fill="#786414" d="M 512.5,143.5 C 512.833,143.5 513.167,143.5 513.5,143.5C 512.241,147.025 510.241,150.025 507.5,152.5C 508.921,149.322 510.587,146.322 512.5,143.5 Z"/></g>
<g><path style="opacity:0.325" fill="#8fcab2" d="M 362.5,152.5 C 364.89,153.891 366.557,155.891 367.5,158.5C 366.833,158.5 366.167,158.5 365.5,158.5C 364.5,156.5 363.5,154.5 362.5,152.5 Z"/></g>
<g><path style="opacity:1" fill="#ac8c26" d="M 493.5,148.5 C 492.66,150.853 491.326,152.853 489.5,154.5C 489.845,151.802 491.178,149.802 493.5,148.5 Z"/></g>
<g><path style="opacity:1" fill="#178f47" d="M 346.5,151.5 C 348.737,153.647 350.737,155.98 352.5,158.5C 353.519,160.54 353.519,162.54 352.5,164.5C 350.929,163.691 349.262,163.357 347.5,163.5C 346.448,160.807 345.448,158.14 344.5,155.5C 340.689,154.546 339.689,152.213 341.5,148.5C 343.201,149.554 344.868,150.554 346.5,151.5 Z"/></g>
<g><path style="opacity:1" fill="#359359" d="M 340.5,137.5 C 341.675,137.281 342.675,137.614 343.5,138.5C 348.2,144.27 353.033,149.937 358,155.5C 360.022,152.552 359.356,150.219 356,148.5C 355.51,147.207 355.343,145.873 355.5,144.5C 358.077,146.955 360.411,149.622 362.5,152.5C 363.5,154.5 364.5,156.5 365.5,158.5C 363.989,157.498 362.322,156.831 360.5,156.5C 360.783,160.292 362.783,162.792 366.5,164C 367.252,164.671 367.586,165.504 367.5,166.5C 366.833,166.5 366.167,166.5 365.5,166.5C 355.729,158.063 347.396,148.397 340.5,137.5 Z"/></g>
<g><path style="opacity:0.827" fill="#dfcb40" d="M 369.5,146.5 C 371.003,151.953 372.003,157.619 372.5,163.5C 371.026,162.564 370.026,161.23 369.5,159.5C 369.5,157.5 369.5,155.5 369.5,153.5C 369.5,151.167 369.5,148.833 369.5,146.5 Z"/></g>
<g><path style="opacity:1" fill="#514835" d="M 512.5,143.5 C 510.587,146.322 508.921,149.322 507.5,152.5C 507.573,154.027 506.906,155.027 505.5,155.5C 503.903,156.09 502.569,157.09 501.5,158.5C 500.548,156.955 500.215,155.288 500.5,153.5C 504.879,148.796 508.546,143.463 511.5,137.5C 512.396,136.494 513.062,136.494 513.5,137.5C 512.652,139.409 512.318,141.409 512.5,143.5 Z"/></g>
<g><path style="opacity:1" fill="#7f6917" d="M 520.5,150.5 C 519.564,153.671 517.897,156.338 515.5,158.5C 515.5,157.833 515.5,157.167 515.5,156.5C 516.818,154.249 518.484,152.249 520.5,150.5 Z"/></g>
<g><path style="opacity:1" fill="#745a0c" d="M 485.5,129.5 C 485.523,131.6 484.856,133.433 483.5,135C 483.836,136.03 484.503,136.53 485.5,136.5C 477.865,149.146 470.198,161.813 462.5,174.5C 461.833,174.5 461.5,174.167 461.5,173.5C 464.513,167.473 467.513,161.473 470.5,155.5C 473.244,152.354 475.244,148.687 476.5,144.5C 479.248,139.334 482.248,134.334 485.5,129.5 Z"/></g>
<g><path style="opacity:1" fill="#645223" d="M 500.5,153.5 C 500.215,155.288 500.548,156.955 501.5,158.5C 502.569,157.09 503.903,156.09 505.5,155.5C 504.011,158.478 502.511,161.478 501,164.5C 499.961,165.71 498.794,166.71 497.5,167.5C 497.5,165.833 497.5,164.167 497.5,162.5C 498.5,162.5 499.5,162.5 500.5,162.5C 500.719,161.325 500.386,160.325 499.5,159.5C 497.333,161.453 495.333,163.453 493.5,165.5C 495.043,160.976 497.377,156.976 500.5,153.5 Z"/></g>
<g><path style="opacity:0.714" fill="#efd25a" d="M 653.5,154.5 C 653.5,156.5 653.5,158.5 653.5,160.5C 652.167,164.167 650.833,167.833 649.5,171.5C 648.835,165.202 650.169,159.535 653.5,154.5 Z"/></g>
<g><path style="opacity:1" fill="#b89425" d="M 489.5,154.5 C 488.424,158.988 486.091,162.655 482.5,165.5C 484.462,162.815 485.962,159.815 487,156.5C 487.708,155.619 488.542,154.953 489.5,154.5 Z"/></g>
<g><path style="opacity:1" fill="#dfc716" d="M 391.5,180.5 C 384.6,175.941 378.267,170.608 372.5,164.5C 372.5,164.167 372.5,163.833 372.5,163.5C 374.144,163.714 375.644,163.38 377,162.5C 379.067,167.565 382.733,170.899 388,172.5C 388.003,175.749 389.17,178.416 391.5,180.5 Z"/></g>
<g><path style="opacity:1" fill="#449c65" d="M 352.5,158.5 C 355.725,161.955 358.725,165.622 361.5,169.5C 360.143,168.315 358.643,167.315 357,166.5C 356.5,166.667 356,166.833 355.5,167C 358.595,171.185 361.928,175.185 365.5,179C 366.793,179.49 368.127,179.657 369.5,179.5C 369.5,180.833 369.5,182.167 369.5,183.5C 361.238,177.907 353.904,171.24 347.5,163.5C 349.262,163.357 350.929,163.691 352.5,164.5C 353.519,162.54 353.519,160.54 352.5,158.5 Z"/></g>
<g><path style="opacity:1" fill="#685222" d="M 515.5,159.5 C 515.477,161.927 514.977,164.26 514,166.5C 510.561,170.429 507.395,174.429 504.5,178.5C 507.026,172.771 509.86,167.104 513,161.5C 513.708,160.619 514.542,159.953 515.5,159.5 Z"/></g>
<g><path style="opacity:0.31" fill="#aadcc8" d="M 365.5,166.5 C 366.167,166.5 366.833,166.5 367.5,166.5C 368.5,167.833 369.5,169.167 370.5,170.5C 368.251,169.92 366.585,168.587 365.5,166.5 Z"/></g>
<g><path style="opacity:1" fill="#23903f" d="M 365.5,158.5 C 366.167,158.5 366.833,158.5 367.5,158.5C 368.167,158.833 368.833,159.167 369.5,159.5C 370.026,161.23 371.026,162.564 372.5,163.5C 372.5,163.833 372.5,164.167 372.5,164.5C 373.372,166.948 374.705,169.115 376.5,171C 375.244,171.417 374.577,172.25 374.5,173.5C 373.833,173.5 373.167,173.5 372.5,173.5C 371.833,172.5 371.167,171.5 370.5,170.5C 369.5,169.167 368.5,167.833 367.5,166.5C 367.586,165.504 367.252,164.671 366.5,164C 362.783,162.792 360.783,160.292 360.5,156.5C 362.322,156.831 363.989,157.498 365.5,158.5 Z"/></g>
<g><path style="opacity:1" fill="#c99805" d="M 452.5,160.5 C 452.833,160.5 453.167,160.5 453.5,160.5C 450.865,164.743 447.532,168.41 443.5,171.5C 442.479,170.998 442.312,170.332 443,169.5C 445.033,166.97 447.2,164.637 449.5,162.5C 450.5,161.833 451.5,161.167 452.5,160.5 Z"/></g>
<g><path style="opacity:0.549" fill="#52a273" d="M 352.5,173.5 C 349.306,172.319 346.639,170.319 344.5,167.5C 343.488,169.837 343.655,172.17 345,174.5C 347.072,175.734 348.572,177.401 349.5,179.5C 342.715,176 339.715,170.334 340.5,162.5C 341.552,162.351 342.552,162.517 343.5,163C 346.336,166.667 349.336,170.167 352.5,173.5 Z"/></g>
<g><path style="opacity:0.427" fill="#98d1af" d="M 362.5,169.5 C 364.5,170.833 366.167,172.5 367.5,174.5C 364.833,173.833 363.167,172.167 362.5,169.5 Z"/></g>
<g><path style="opacity:1" fill="#675219" d="M 524.5,159.5 C 522.234,163.034 520.234,166.7 518.5,170.5C 516.159,173.506 513.825,176.506 511.5,179.5C 512.03,177.076 512.864,174.743 514,172.5C 517.059,167.66 520.559,163.327 524.5,159.5 Z"/></g>
<g><path style="opacity:1" fill="#4d473a" d="M 591.5,86.5 C 594.385,86.1936 597.052,86.5269 599.5,87.5C 600.648,89.755 602.314,91.5883 604.5,93C 602.5,93.3333 600.5,93.6667 598.5,94C 596.261,95.7809 593.928,97.2809 591.5,98.5C 586.042,98.8649 580.708,99.8649 575.5,101.5C 575.649,102.552 575.483,103.552 575,104.5C 569.596,108.046 563.763,110.713 557.5,112.5C 558.376,113.251 559.376,113.751 560.5,114C 559.167,114.333 557.833,114.667 556.5,115C 557.056,115.383 557.389,115.883 557.5,116.5C 555.213,120.122 552.547,123.455 549.5,126.5C 544.645,129.907 540.979,134.24 538.5,139.5C 533.441,143.912 529.441,149.246 526.5,155.5C 526.771,157.38 526.104,158.713 524.5,159.5C 520.559,163.327 517.059,167.66 514,172.5C 512.864,174.743 512.03,177.076 511.5,179.5C 511.5,180.167 511.167,180.5 510.5,180.5C 509.265,180.721 508.265,181.388 507.5,182.5C 504.83,187.519 502.163,192.519 499.5,197.5C 496.883,202.114 493.883,206.447 490.5,210.5C 489.5,210.5 488.5,210.5 487.5,210.5C 487.517,208.435 487.85,206.435 488.5,204.5C 492.566,201.365 495.4,197.365 497,192.5C 501.301,188.739 503.801,184.072 504.5,178.5C 507.395,174.429 510.561,170.429 514,166.5C 514.977,164.26 515.477,161.927 515.5,159.5C 515.5,159.167 515.5,158.833 515.5,158.5C 517.897,156.338 519.564,153.671 520.5,150.5C 522.017,150.489 523.184,149.823 524,148.5C 524.518,145.977 525.852,143.977 528,142.5C 529.914,139.423 531.081,136.089 531.5,132.5C 534.802,129.026 537.968,125.359 541,121.5C 541.483,120.552 541.649,119.552 541.5,118.5C 547.73,113.025 554.063,107.525 560.5,102C 563.705,101.088 566.039,99.255 567.5,96.5C 570.899,96.3915 573.566,95.0582 575.5,92.5C 580.001,91.9127 584.001,90.2461 587.5,87.5C 589.099,87.7678 590.432,87.4345 591.5,86.5 Z"/></g>
<g><path style="opacity:1" fill="#78641a" d="M 493.5,165.5 C 491.824,170.867 489.157,175.534 485.5,179.5C 487.417,175.601 489.251,171.601 491,167.5C 491.708,166.619 492.542,165.953 493.5,165.5 Z"/></g>
<g><path style="opacity:1" fill="#54492c" d="M 497.5,167.5 C 493.309,175.363 488.309,182.696 482.5,189.5C 482.448,187.097 482.781,184.764 483.5,182.5C 483.427,180.973 484.094,179.973 485.5,179.5C 489.157,175.534 491.824,170.867 493.5,165.5C 495.333,163.453 497.333,161.453 499.5,159.5C 500.386,160.325 500.719,161.325 500.5,162.5C 499.5,162.5 498.5,162.5 497.5,162.5C 497.5,164.167 497.5,165.833 497.5,167.5 Z"/></g>
<g><path style="opacity:1" fill="#c3d065" d="M 372.5,173.5 C 373.167,173.5 373.833,173.5 374.5,173.5C 376.662,174.128 378.328,175.461 379.5,177.5C 378.033,176.708 376.7,176.708 375.5,177.5C 376.309,179.071 376.643,180.738 376.5,182.5C 375.833,182.5 375.5,182.167 375.5,181.5C 374.499,178.828 373.499,176.162 372.5,173.5 Z"/></g>
<g><path style="opacity:0.125" fill="#b4d9c0" d="M 370.5,176.5 C 371.906,176.973 372.573,177.973 372.5,179.5C 371.094,179.027 370.427,178.027 370.5,176.5 Z"/></g>
<g><path style="opacity:1" fill="#ebbd15" d="M 539.5,78.5 C 535.859,81.9683 532.026,85.3016 528,88.5C 524.702,92.7998 521.035,96.7998 517,100.5C 516.209,101.745 515.709,103.078 515.5,104.5C 512.551,106.373 510.551,109.039 509.5,112.5C 504.057,118.118 499.557,124.451 496,131.5C 489.718,143.564 483.552,155.564 477.5,167.5C 469.934,180.408 461.934,193.075 453.5,205.5C 452.611,207.736 451.278,209.736 449.5,211.5C 448.604,212.506 447.938,212.506 447.5,211.5C 451.059,205.319 454.892,199.319 459,193.5C 459.2,190.266 460.033,187.266 461.5,184.5C 461.167,183.833 460.833,183.167 460.5,182.5C 459.719,183.729 459.219,185.062 459,186.5C 458.667,185.5 458.333,184.5 458,183.5C 456.346,186.682 454.346,189.682 452,192.5C 451.667,191.833 451.333,191.167 451,190.5C 448.772,193.64 446.105,196.306 443,198.5C 442.493,197.004 442.993,195.837 444.5,195C 443.643,194.311 442.977,193.478 442.5,192.5C 446.393,191.1 448.393,188.6 448.5,185C 449.449,184.383 450.282,184.549 451,185.5C 452.689,181.143 455.189,177.31 458.5,174C 457.062,171.634 457.562,171.134 460,172.5C 462.634,168.065 465.134,163.565 467.5,159C 467.241,157.739 466.574,156.739 465.5,156C 467.134,155.506 468.801,155.34 470.5,155.5C 467.513,161.473 464.513,167.473 461.5,173.5C 459.956,176.557 457.789,179.224 455,181.5C 453.642,183.859 452.642,186.193 452,188.5C 456.102,184.239 459.602,179.572 462.5,174.5C 470.198,161.813 477.865,149.146 485.5,136.5C 490.93,128.102 496.264,119.769 501.5,111.5C 504.064,108.72 506.397,105.72 508.5,102.5C 510.5,99.8333 512.833,97.5 515.5,95.5C 518.167,92.5 520.833,89.5 523.5,86.5C 524.436,85.0256 525.77,84.0256 527.5,83.5C 529.754,82.8763 531.421,81.543 532.5,79.5C 534.583,78.4123 536.749,77.4123 539,76.5C 539.464,77.0944 539.631,77.7611 539.5,78.5 Z"/></g>
<g><path style="opacity:1" fill="#198e46" d="M 352.5,173.5 C 354.167,174.5 355.5,175.833 356.5,177.5C 356.709,178.922 357.209,180.255 358,181.5C 362.002,183.67 365.169,186.67 367.5,190.5C 366.833,190.833 366.167,191.167 365.5,191.5C 363.711,190.037 361.711,189.037 359.5,188.5C 355.518,186.183 352.185,183.183 349.5,179.5C 348.572,177.401 347.072,175.734 345,174.5C 343.655,172.17 343.488,169.837 344.5,167.5C 346.639,170.319 349.306,172.319 352.5,173.5 Z"/></g>
<g><path style="opacity:0.996" fill="#26904a" d="M 361.5,169.5 C 361.833,169.5 362.167,169.5 362.5,169.5C 363.167,172.167 364.833,173.833 367.5,174.5C 368.5,175.167 369.5,175.833 370.5,176.5C 370.427,178.027 371.094,179.027 372.5,179.5C 373.5,180.167 374.5,180.833 375.5,181.5C 375.5,182.167 375.833,182.5 376.5,182.5C 377.167,183.5 377.833,184.5 378.5,185.5C 378.5,186.167 378.5,186.833 378.5,187.5C 376.565,186.85 374.565,186.517 372.5,186.5C 371.167,185.833 370.167,184.833 369.5,183.5C 369.5,182.167 369.5,180.833 369.5,179.5C 368.127,179.657 366.793,179.49 365.5,179C 361.928,175.185 358.595,171.185 355.5,167C 356,166.833 356.5,166.667 357,166.5C 358.643,167.315 360.143,168.315 361.5,169.5 Z"/></g>
<g><path style="opacity:1" fill="#e0b91e" d="M 518.5,170.5 C 517.241,174.048 516.407,177.715 516,181.5C 514.933,182.191 513.766,182.691 512.5,183C 511.002,185.482 509.502,187.982 508,190.5C 506.887,191.305 505.721,191.972 504.5,192.5C 506.502,188.495 508.502,184.495 510.5,180.5C 511.167,180.5 511.5,180.167 511.5,179.5C 513.825,176.506 516.159,173.506 518.5,170.5 Z"/></g>
<g><path style="opacity:1" fill="#6f5a1f" d="M 504.5,178.5 C 503.801,184.072 501.301,188.739 497,192.5C 495.4,197.365 492.566,201.365 488.5,204.5C 493.445,195.564 498.778,186.897 504.5,178.5 Z"/></g>
<g><path style="opacity:1" fill="#9f7602" d="M 461.5,173.5 C 461.5,174.167 461.833,174.5 462.5,174.5C 459.602,179.572 456.102,184.239 452,188.5C 452.642,186.193 453.642,183.859 455,181.5C 457.789,179.224 459.956,176.557 461.5,173.5 Z"/></g>
<g><path style="opacity:1" fill="#7b6009" d="M 477.5,167.5 C 477.123,169.258 476.456,170.925 475.5,172.5C 475.957,173.298 476.624,173.631 477.5,173.5C 471.89,182.442 465.89,191.109 459.5,199.5C 457.861,201.806 455.861,203.806 453.5,205.5C 461.934,193.075 469.934,180.408 477.5,167.5 Z"/></g>
<g><path style="opacity:1" fill="#efc012" d="M 510.5,134.5 C 509.563,137.269 508.396,139.936 507,142.5C 503.75,145.57 501.583,149.237 500.5,153.5C 497.377,156.976 495.043,160.976 493.5,165.5C 492.542,165.953 491.708,166.619 491,167.5C 489.251,171.601 487.417,175.601 485.5,179.5C 484.094,179.973 483.427,180.973 483.5,182.5C 476.811,191.87 470.478,201.537 464.5,211.5C 459.843,217.823 454.51,223.49 448.5,228.5C 445.606,227.118 443.106,225.118 441,222.5C 440.482,219.977 439.148,217.977 437,216.5C 436.506,214.866 436.34,213.199 436.5,211.5C 435.5,211.5 434.5,211.5 433.5,211.5C 435.556,210.801 437.556,209.801 439.5,208.5C 439.833,208.833 440.167,209.167 440.5,209.5C 439.689,210.216 439.022,211.05 438.5,212C 438.734,215.688 440.567,218.854 444,221.5C 447.401,219.575 450.901,218.908 454.5,219.5C 455.298,217.922 455.798,216.256 456,214.5C 456.308,215.308 456.808,215.975 457.5,216.5C 458.576,211.972 461.242,208.972 465.5,207.5C 465.5,206.167 465.5,204.833 465.5,203.5C 466.5,203.5 467.5,203.5 468.5,203.5C 468.67,202.178 468.337,201.011 467.5,200C 468.253,198.513 469.086,198.346 470,199.5C 469.376,195.648 470.21,191.981 472.5,188.5C 471.038,187.529 469.705,187.862 468.5,189.5C 467.721,193.057 466.388,196.391 464.5,199.5C 462.997,198.948 461.331,198.948 459.5,199.5C 465.89,191.109 471.89,182.442 477.5,173.5C 478.669,170.489 480.336,167.822 482.5,165.5C 486.091,162.655 488.424,158.988 489.5,154.5C 491.326,152.853 492.66,150.853 493.5,148.5C 494.475,146.205 495.808,144.205 497.5,142.5C 498.721,141.972 499.887,141.305 501,140.5C 503.5,136.833 506,133.167 508.5,129.5C 509.562,131.022 510.229,132.688 510.5,134.5 Z"/></g>
<g><path style="opacity:1" fill="#d7c61b" d="M 391.5,180.5 C 395.478,182.325 399.478,184.325 403.5,186.5C 404.322,188.139 404.989,189.805 405.5,191.5C 400.254,188.589 395.587,184.922 391.5,180.5 Z"/></g>
<g><path style="opacity:0.973" fill="#63ad81" d="M 372.5,186.5 C 374.565,186.517 376.565,186.85 378.5,187.5C 378.683,189.988 379.683,191.988 381.5,193.5C 378.5,191.167 375.5,188.833 372.5,186.5 Z"/></g>
<g><path style="opacity:0.875" fill="#f1d96b" d="M 647.5,179.5 C 646.352,183.787 644.685,187.787 642.5,191.5C 642.788,186.893 644.455,182.893 647.5,179.5 Z"/></g>
<g><path style="opacity:1" fill="#64511d" d="M 510.5,180.5 C 508.502,184.495 506.502,188.495 504.5,192.5C 503.194,194.473 501.527,196.139 499.5,197.5C 502.163,192.519 504.83,187.519 507.5,182.5C 508.265,181.388 509.265,180.721 510.5,180.5 Z"/></g>
<g><path style="opacity:1" fill="#e1c619" d="M 379.5,177.5 C 386.524,182.864 393.524,188.198 400.5,193.5C 396.822,192.245 393.322,190.578 390,188.5C 387.389,189.5 386.889,191.167 388.5,193.5C 384.897,191.237 381.564,188.57 378.5,185.5C 377.833,184.5 377.167,183.5 376.5,182.5C 376.643,180.738 376.309,179.071 375.5,177.5C 376.7,176.708 378.033,176.708 379.5,177.5 Z"/></g>
<g><path style="opacity:0.576" fill="#99cfad" d="M 367.5,187.5 C 369.461,188.46 371.127,189.793 372.5,191.5C 369.937,191.269 368.27,189.935 367.5,187.5 Z"/></g>
<g><path style="opacity:1" fill="#3e8f1c" d="M 372.5,164.5 C 378.267,170.608 384.6,175.941 391.5,180.5C 395.587,184.922 400.254,188.589 405.5,191.5C 408.539,194.54 411.873,197.206 415.5,199.5C 416.585,201.587 418.251,202.92 420.5,203.5C 420.833,204.5 421.5,205.167 422.5,205.5C 422.672,206.492 422.338,207.158 421.5,207.5C 414.5,202.833 407.5,198.167 400.5,193.5C 393.524,188.198 386.524,182.864 379.5,177.5C 378.328,175.461 376.662,174.128 374.5,173.5C 374.577,172.25 375.244,171.417 376.5,171C 374.705,169.115 373.372,166.948 372.5,164.5 Z"/></g>
<g><path style="opacity:1" fill="#dbc418" d="M 415.5,199.5 C 411.873,197.206 408.539,194.54 405.5,191.5C 407.117,192.038 408.784,192.371 410.5,192.5C 410.351,191.448 410.517,190.448 411,189.5C 413.827,191.086 413.993,192.752 411.5,194.5C 412.857,196.186 414.19,197.852 415.5,199.5 Z"/></g>
<g><path style="opacity:1" fill="#3d995c" d="M 356.5,177.5 C 360.817,180.152 364.484,183.485 367.5,187.5C 368.27,189.935 369.937,191.269 372.5,191.5C 376.143,194.135 379.81,196.801 383.5,199.5C 383.833,200.167 384.167,200.833 384.5,201.5C 383.687,202.653 382.687,202.653 381.5,201.5C 380.614,202.325 380.281,203.325 380.5,204.5C 372.592,200.377 365.592,195.044 359.5,188.5C 361.711,189.037 363.711,190.037 365.5,191.5C 366.167,191.167 366.833,190.833 367.5,190.5C 365.169,186.67 362.002,183.67 358,181.5C 357.209,180.255 356.709,178.922 356.5,177.5 Z"/></g>
<g><path style="opacity:1" fill="#438c18" d="M 378.5,185.5 C 381.564,188.57 384.897,191.237 388.5,193.5C 390.527,196.194 392.861,198.527 395.5,200.5C 396.29,201.794 397.29,202.961 398.5,204C 397.552,204.483 396.552,204.649 395.5,204.5C 394.738,202.738 393.404,201.738 391.5,201.5C 388.571,198.364 385.238,195.697 381.5,193.5C 379.683,191.988 378.683,189.988 378.5,187.5C 378.5,186.833 378.5,186.167 378.5,185.5 Z"/></g>
<g><path style="opacity:0.082" fill="#f4df76" d="M 642.5,191.5 C 641.958,194.912 640.625,197.912 638.5,200.5C 639.159,197.545 639.492,194.545 639.5,191.5C 640.5,191.5 641.5,191.5 642.5,191.5 Z"/></g>
<g><path style="opacity:1" fill="#63521b" d="M 483.5,182.5 C 482.781,184.764 482.448,187.097 482.5,189.5C 478.186,198.114 472.852,206.114 466.5,213.5C 465.167,213.5 464.5,212.833 464.5,211.5C 470.478,201.537 476.811,191.87 483.5,182.5 Z"/></g>
<g><path style="opacity:1" fill="#d3c72f" d="M 381.5,193.5 C 385.238,195.697 388.571,198.364 391.5,201.5C 387.097,199.967 386.431,201.301 389.5,205.5C 387.539,204.54 385.873,203.207 384.5,201.5C 384.167,200.833 383.833,200.167 383.5,199.5C 382.833,197.5 382.167,195.5 381.5,193.5 Z"/></g>
<g><path style="opacity:1" fill="#b4c029" d="M 415.5,199.5 C 417.749,200.08 419.415,201.413 420.5,203.5C 418.251,202.92 416.585,201.587 415.5,199.5 Z"/></g>
<g><path style="opacity:0.957" fill="#50a167" d="M 380.5,204.5 C 386.553,205.683 390.887,209.017 393.5,214.5C 389.143,211.136 384.809,207.802 380.5,204.5 Z"/></g>
<g><path style="opacity:0.486" fill="#f3db71" d="M 637.5,202.5 C 636.32,205.54 634.653,208.206 632.5,210.5C 632.35,206.53 634.017,203.863 637.5,202.5 Z"/></g>
<g><path style="opacity:1" fill="#f1c111" d="M 515.5,156.5 C 515.5,157.167 515.5,157.833 515.5,158.5C 515.5,158.833 515.5,159.167 515.5,159.5C 514.542,159.953 513.708,160.619 513,161.5C 509.86,167.104 507.026,172.771 504.5,178.5C 498.778,186.897 493.445,195.564 488.5,204.5C 486.546,208.725 483.88,212.392 480.5,215.5C 473.485,223.846 466.152,231.846 458.5,239.5C 457.833,239.5 457.5,239.833 457.5,240.5C 451.184,244.473 444.851,248.473 438.5,252.5C 436.435,252.483 434.435,252.15 432.5,251.5C 429.86,250.18 427.193,248.847 424.5,247.5C 424.5,247.167 424.5,246.833 424.5,246.5C 432.093,244.037 438.759,240.037 444.5,234.5C 452.476,228.261 459.809,221.261 466.5,213.5C 472.852,206.114 478.186,198.114 482.5,189.5C 488.309,182.696 493.309,175.363 497.5,167.5C 498.794,166.71 499.961,165.71 501,164.5C 502.511,161.478 504.011,158.478 505.5,155.5C 506.906,155.027 507.573,154.027 507.5,152.5C 510.241,150.025 512.241,147.025 513.5,143.5C 515.326,141.853 516.66,139.853 517.5,137.5C 519.5,135.5 521.5,133.5 523.5,131.5C 525.117,130.962 526.784,130.629 528.5,130.5C 528.762,131.978 528.429,133.311 527.5,134.5C 525.492,132.238 525.159,132.738 526.5,136C 524.236,137.779 522.903,140.113 522.5,143C 520.833,145.5 519.167,148 517.5,150.5C 516.914,150.291 516.414,149.957 516,149.5C 515.503,151.81 515.337,154.143 515.5,156.5 Z"/></g>
<g><path style="opacity:1" fill="#749608" d="M 395.5,200.5 C 403.445,206.776 410.778,213.776 417.5,221.5C 417.103,222.525 416.437,222.692 415.5,222C 409.505,215.157 402.838,209.323 395.5,204.5C 396.552,204.649 397.552,204.483 398.5,204C 397.29,202.961 396.29,201.794 395.5,200.5 Z"/></g>
<g><path style="opacity:1" fill="#709507" d="M 422.5,205.5 C 423.71,205.932 424.71,206.599 425.5,207.5C 429.86,212.527 434.527,217.194 439.5,221.5C 437.745,220.928 436.078,220.094 434.5,219C 430.022,215.132 425.689,211.299 421.5,207.5C 422.338,207.158 422.672,206.492 422.5,205.5 Z"/></g>
<g><path style="opacity:1" fill="#b0bf28" d="M 389.5,205.5 C 393.1,207.43 396.1,210.097 398.5,213.5C 398.167,213.5 397.833,213.5 397.5,213.5C 394.5,211.167 391.833,208.5 389.5,205.5 Z"/></g>
<g><path style="opacity:0.984" fill="#338b2a" d="M 384.5,201.5 C 385.873,203.207 387.539,204.54 389.5,205.5C 391.833,208.5 394.5,211.167 397.5,213.5C 397.5,214.167 397.5,214.833 397.5,215.5C 397.167,215.5 396.833,215.5 396.5,215.5C 395.609,214.89 394.609,214.557 393.5,214.5C 390.887,209.017 386.553,205.683 380.5,204.5C 380.281,203.325 380.614,202.325 381.5,201.5C 382.687,202.653 383.687,202.653 384.5,201.5 Z"/></g>
<g><path style="opacity:1" fill="#ccbc15" d="M 425.5,207.5 C 427.948,209.284 430.615,210.618 433.5,211.5C 434.5,211.5 435.5,211.5 436.5,211.5C 436.34,213.199 436.506,214.866 437,216.5C 439.148,217.977 440.482,219.977 441,222.5C 443.106,225.118 445.606,227.118 448.5,228.5C 447.833,229.833 446.833,230.833 445.5,231.5C 445.649,230.448 445.483,229.448 445,228.5C 442.546,226.559 440.713,224.225 439.5,221.5C 434.527,217.194 429.86,212.527 425.5,207.5 Z"/></g>
<g><path style="opacity:0.059" fill="#b4e6f8" d="M 251.5,215.5 C 253.898,215.259 255.898,215.926 257.5,217.5C 255.214,217.405 253.214,216.738 251.5,215.5 Z"/></g>
<g><path style="opacity:0.616" fill="#b7c372" d="M 393.5,214.5 C 394.609,214.557 395.609,214.89 396.5,215.5C 396.833,216.833 397.167,218.167 397.5,219.5C 395.937,218.055 394.604,216.389 393.5,214.5 Z"/></g>
<g><path style="opacity:1" fill="#6c9104" d="M 397.5,213.5 C 397.833,213.5 398.167,213.5 398.5,213.5C 402.837,216.847 406.504,220.847 409.5,225.5C 407.772,223.774 405.772,222.441 403.5,221.5C 401.5,219.5 399.5,217.5 397.5,215.5C 397.5,214.833 397.5,214.167 397.5,213.5 Z"/></g>
<g><path style="opacity:0.703" fill="#4993bb" d="M 37.5,218.5 C 37.5,218.167 37.5,217.833 37.5,217.5C 50.5043,217.333 63.5043,217.5 76.5,218C 82.3902,218.728 88.0568,219.895 93.5,221.5C 74.8526,220.097 56.186,219.097 37.5,218.5 Z"/></g>
<g><path style="opacity:0.99" fill="#3785b4" d="M 251.5,215.5 C 253.214,216.738 255.214,217.405 257.5,217.5C 267.25,219.378 275.917,223.378 283.5,229.5C 273.507,225.987 263.507,222.153 253.5,218C 242.272,215.702 230.939,215.035 219.5,216C 210.564,218.317 201.564,220.484 192.5,222.5C 192.5,222.167 192.5,221.833 192.5,221.5C 202.136,216.688 212.47,214.188 223.5,214C 232.89,213.415 242.224,213.915 251.5,215.5 Z"/></g>
<g><path style="opacity:0.992" fill="#3886b8" d="M 354.5,215.5 C 353.365,216.474 352.365,217.641 351.5,219C 345.436,219.266 341.27,222.099 339,227.5C 338.047,225.627 336.88,225.294 335.5,226.5C 335.859,224.629 336.859,223.129 338.5,222C 343.157,218.17 348.491,216.003 354.5,215.5 Z"/></g>
<g><path style="opacity:0.984" fill="#decf56" d="M 396.5,215.5 C 396.833,215.5 397.167,215.5 397.5,215.5C 399.5,217.5 401.5,219.5 403.5,221.5C 402.624,221.369 401.957,221.702 401.5,222.5C 402.526,224.831 403.86,226.831 405.5,228.5C 404.279,227.972 403.113,227.305 402,226.5C 400.963,223.733 399.463,221.399 397.5,219.5C 397.167,218.167 396.833,216.833 396.5,215.5 Z"/></g>
<g><path style="opacity:1" fill="#f0cb42" d="M 627.5,217.5 C 624.882,221.291 622.049,224.957 619,228.5C 617.549,230.464 615.716,231.797 613.5,232.5C 612.986,230.488 612.82,228.488 613,226.5C 614.067,228.283 615.567,228.783 617.5,228C 617.307,221.028 620.64,217.528 627.5,217.5 Z"/></g>
<g><path style="opacity:1" fill="#478cb9" d="M 394.5,226.5 C 387.433,223.301 380.433,219.801 373.5,216C 367.509,215.501 361.509,215.334 355.5,215.5C 367.468,212.48 378.801,214.313 389.5,221C 391.766,222.426 393.432,224.26 394.5,226.5 Z"/></g>
<g><path style="opacity:0.149" fill="#9ed8e9" d="M 93.5,221.5 C 95.153,221.66 96.4863,222.326 97.5,223.5C 95.6203,223.771 94.287,223.104 93.5,221.5 Z"/></g>
<g><path style="opacity:0.114" fill="#a6cfe6" d="M 192.5,221.5 C 192.5,221.833 192.5,222.167 192.5,222.5C 190.95,223.441 189.284,224.107 187.5,224.5C 188.659,222.75 190.326,221.75 192.5,221.5 Z"/></g>
<g><path style="opacity:1" fill="#e0c110" d="M 391.5,201.5 C 393.404,201.738 394.738,202.738 395.5,204.5C 402.838,209.323 409.505,215.157 415.5,222C 416.437,222.692 417.103,222.525 417.5,221.5C 419.555,222.948 421.722,224.281 424,225.5C 424.26,227.618 425.26,229.284 427,230.5C 427.667,232.167 427.667,233.833 427,235.5C 424.167,232 421.333,228.5 418.5,225C 416.553,224.009 414.553,223.675 412.5,224C 419.151,234.678 418.151,235.178 409.5,225.5C 406.504,220.847 402.837,216.847 398.5,213.5C 396.1,210.097 393.1,207.43 389.5,205.5C 386.431,201.301 387.097,199.967 391.5,201.5 Z"/></g>
<g><path style="opacity:1" fill="#796417" d="M 483.5,220.5 C 480.805,223.526 478.138,226.526 475.5,229.5C 476.768,225.233 479.435,222.233 483.5,220.5 Z"/></g>
<g><path style="opacity:1" fill="#f2c309" d="M 400.5,193.5 C 407.5,198.167 414.5,202.833 421.5,207.5C 425.689,211.299 430.022,215.132 434.5,219C 436.078,220.094 437.745,220.928 439.5,221.5C 440.713,224.225 442.546,226.559 445,228.5C 445.483,229.448 445.649,230.448 445.5,231.5C 445.167,232.5 444.5,233.167 443.5,233.5C 439.675,236.477 435.675,239.311 431.5,242C 428.691,243.741 425.691,244.908 422.5,245.5C 420.577,242.397 418.41,239.397 416,236.5C 414.67,235.418 413.17,234.751 411.5,234.5C 411.368,231.203 409.702,229.537 406.5,229.5C 405.833,229.5 405.5,229.167 405.5,228.5C 403.86,226.831 402.526,224.831 401.5,222.5C 401.957,221.702 402.624,221.369 403.5,221.5C 405.772,222.441 407.772,223.774 409.5,225.5C 418.151,235.178 419.151,234.678 412.5,224C 414.553,223.675 416.553,224.009 418.5,225C 421.333,228.5 424.167,232 427,235.5C 427.667,233.833 427.667,232.167 427,230.5C 425.26,229.284 424.26,227.618 424,225.5C 421.722,224.281 419.555,222.948 417.5,221.5C 410.778,213.776 403.445,206.776 395.5,200.5C 392.861,198.527 390.527,196.194 388.5,193.5C 386.889,191.167 387.389,189.5 390,188.5C 393.322,190.578 396.822,192.245 400.5,193.5 Z"/></g>
<g><path style="opacity:1" fill="#735b06" d="M 464.5,211.5 C 464.5,212.833 465.167,213.5 466.5,213.5C 459.809,221.261 452.476,228.261 444.5,234.5C 443.833,234.5 443.5,234.167 443.5,233.5C 444.5,233.167 445.167,232.5 445.5,231.5C 446.833,230.833 447.833,229.833 448.5,228.5C 454.51,223.49 459.843,217.823 464.5,211.5 Z"/></g>
<g><path style="opacity:1" fill="#e8bd18" d="M 486.5,217.5 C 485.35,222.453 483.516,227.12 481,231.5C 479.951,230.483 478.784,230.316 477.5,231C 476.671,232.816 475.837,234.649 475,236.5C 474.439,235.978 473.772,235.645 473,235.5C 471.403,236.885 469.57,237.551 467.5,237.5C 467.977,241.866 466.144,244.866 462,246.5C 460.644,245.62 459.144,245.286 457.5,245.5C 463.177,239.824 469.177,234.491 475.5,229.5C 478.138,226.526 480.805,223.526 483.5,220.5C 484.167,219.167 485.167,218.167 486.5,217.5 Z"/></g>
<g><path style="opacity:1" fill="#f8d16a" d="M 406.5,229.5 C 409.702,229.537 411.368,231.203 411.5,234.5C 408.833,233.833 407.167,232.167 406.5,229.5 Z"/></g>
<g><path style="opacity:0.992" fill="#579cbf" d="M 395.5,226.5 C 398.19,228.193 400.19,230.527 401.5,233.5C 400.883,233.611 400.383,233.944 400,234.5C 397.026,232.618 395.526,229.951 395.5,226.5 Z"/></g>
<g><path style="opacity:1" fill="#574b29" d="M 488.5,204.5 C 487.85,206.435 487.517,208.435 487.5,210.5C 488.5,210.5 489.5,210.5 490.5,210.5C 489.431,212.969 488.098,215.302 486.5,217.5C 485.167,218.167 484.167,219.167 483.5,220.5C 479.435,222.233 476.768,225.233 475.5,229.5C 469.177,234.491 463.177,239.824 457.5,245.5C 455.833,246.167 454.167,246.833 452.5,247.5C 451.475,247.103 451.308,246.437 452,245.5C 454.191,244.167 456.024,242.5 457.5,240.5C 457.5,239.833 457.833,239.5 458.5,239.5C 467.614,233.056 474.947,225.056 480.5,215.5C 483.88,212.392 486.546,208.725 488.5,204.5 Z"/></g>
<g><path style="opacity:1" fill="#2a81b8" d="M 399.5,245.5 C 397.683,248.575 395.016,249.741 391.5,249C 387.194,243.36 382.194,238.36 376.5,234C 374.846,233.392 373.179,232.892 371.5,232.5C 367.956,230.431 364.29,230.098 360.5,231.5C 359.167,231.5 357.833,231.5 356.5,231.5C 362.136,229.956 367.969,228.956 374,228.5C 377.187,231.482 381.021,232.816 385.5,232.5C 385.881,237.088 387.047,237.422 389,233.5C 389.728,236.23 389.562,238.897 388.5,241.5C 390.913,246.194 394.58,247.527 399.5,245.5 Z"/></g>
<g><path style="opacity:1" fill="#766117" d="M 480.5,215.5 C 474.947,225.056 467.614,233.056 458.5,239.5C 466.152,231.846 473.485,223.846 480.5,215.5 Z"/></g>
<g><path style="opacity:0.976" fill="#f3da68" d="M 411.5,234.5 C 413.17,234.751 414.67,235.418 416,236.5C 418.41,239.397 420.577,242.397 422.5,245.5C 418.446,242.112 414.779,238.446 411.5,234.5 Z"/></g>
<g><path style="opacity:0.949" fill="#659fc0" d="M 401.5,233.5 C 408.501,238.152 408.168,242.152 400.5,245.5C 400.5,244.5 400.5,243.5 400.5,242.5C 401.5,242.5 402.5,242.5 403.5,242.5C 403.595,239.308 402.929,236.308 401.5,233.5 Z"/></g>
<g><path style="opacity:0.667" fill="#1373a4" d="M 23.5,217.5 C 28.1667,217.5 32.8333,217.5 37.5,217.5C 37.5,217.833 37.5,218.167 37.5,218.5C 31.7307,217.932 26.3973,218.932 21.5,221.5C 20.5011,272.664 20.1678,323.997 20.5,375.5C 24.1817,375.665 27.8484,375.499 31.5,375C 32,374.5 32.5,374 33,373.5C 34.1145,350.038 34.9479,326.704 35.5,303.5C 35.5,327.833 35.5,352.167 35.5,376.5C 30.1667,376.5 24.8333,376.5 19.5,376.5C 19.5,323.833 19.5,271.167 19.5,218.5C 21.099,218.768 22.4324,218.434 23.5,217.5 Z"/></g>
<g><path style="opacity:1" fill="#3586b8" d="M 97.5,223.5 C 105.503,226.836 111.169,232.503 114.5,240.5C 113.009,240.099 111.342,239.932 109.5,240C 108.072,235.136 105.406,231.136 101.5,228C 100.207,227.51 98.8734,227.343 97.5,227.5C 97.5,226.167 97.5,224.833 97.5,223.5 Z"/></g>
<g><path style="opacity:0.329" fill="#86c4da" d="M 169.5,237.5 C 168.92,239.749 167.587,241.415 165.5,242.5C 166.08,240.251 167.413,238.585 169.5,237.5 Z"/></g>
<g><path style="opacity:1" fill="#a57e0e" d="M 443.5,233.5 C 443.5,234.167 443.833,234.5 444.5,234.5C 438.759,240.037 432.093,244.037 424.5,246.5C 423.833,246.5 423.167,246.5 422.5,246.5C 422.5,246.167 422.5,245.833 422.5,245.5C 425.691,244.908 428.691,243.741 431.5,242C 435.675,239.311 439.675,236.477 443.5,233.5 Z"/></g>
<g><path style="opacity:1" fill="#f0ce4d" d="M 604.5,241.5 C 599.393,246.27 593.727,250.27 587.5,253.5C 588.234,252.292 588.567,250.959 588.5,249.5C 589.5,249.5 590.5,249.5 591.5,249.5C 591.343,248.127 591.51,246.793 592,245.5C 593.516,248.051 594.349,247.718 594.5,244.5C 595.833,244.5 597.167,244.5 598.5,244.5C 598.5,243.5 598.5,242.5 598.5,241.5C 600.5,241.5 602.5,241.5 604.5,241.5 Z"/></g>
<g><path style="opacity:1" fill="#3a85b7" d="M 177.5,231.5 C 176.24,234.596 174.074,236.929 171,238.5C 169.066,240.419 169.233,241.919 171.5,243C 169.048,243.29 166.715,243.956 164.5,245C 161.279,249.28 158.446,253.78 156,258.5C 155.617,257.944 155.117,257.611 154.5,257.5C 156.96,251.565 160.627,246.565 165.5,242.5C 167.587,241.415 168.92,239.749 169.5,237.5C 171.373,234.551 174.039,232.551 177.5,231.5 Z"/></g>
<g><path style="opacity:0.788" fill="#4a90b8" d="M 330.5,232.5 C 330.414,233.496 330.748,234.329 331.5,235C 330.151,235.772 329.318,236.939 329,238.5C 327.955,242.632 327.122,246.798 326.5,251C 327.721,255.769 328.554,260.602 329,265.5C 330.989,267.812 332.156,270.478 332.5,273.5C 327.251,267.238 324.917,259.905 325.5,251.5C 325.766,247.14 326.266,242.807 327,238.5C 327.941,236.273 329.108,234.273 330.5,232.5 Z"/></g>
<g><path style="opacity:1" fill="#5193bf" d="M 274.5,244.5 C 278.097,244.697 280.763,246.363 282.5,249.5C 282.833,248.833 283.167,248.167 283.5,247.5C 285.105,251.79 288.105,254.124 292.5,254.5C 290.979,256.529 288.979,257.362 286.5,257C 282.97,252.305 278.97,248.138 274.5,244.5 Z"/></g>
<g><path style="opacity:0.714" fill="#5193b5" d="M 292.5,237.5 C 296.161,240.165 299.161,243.498 301.5,247.5C 298.773,250.232 295.773,252.566 292.5,254.5C 292.5,253.5 292.5,252.5 292.5,251.5C 294.984,250.766 296.984,249.266 298.5,247C 296.265,243.942 294.265,240.775 292.5,237.5 Z"/></g>
<g><path style="opacity:0.278" fill="#a5a59b" d="M 422.5,246.5 C 423.167,246.5 423.833,246.5 424.5,246.5C 424.5,246.833 424.5,247.167 424.5,247.5C 421.233,249.732 417.566,250.565 413.5,250C 416.309,248.259 419.309,247.092 422.5,246.5 Z"/></g>
<g><path style="opacity:1" fill="#edc32d" d="M 457.5,245.5 C 456.552,247.46 456.386,249.46 457,251.5C 454.834,253.121 452.334,253.955 449.5,254C 451.167,255.667 452.833,257.333 454.5,259C 454.167,259.333 453.833,259.667 453.5,260C 457.749,261.126 462.082,261.792 466.5,262C 465.833,262.667 465.167,263.333 464.5,264C 468.511,265.461 472.344,267.294 476,269.5C 493.69,272.2 511.524,273.2 529.5,272.5C 529.5,272.833 529.5,273.167 529.5,273.5C 513.123,275.043 496.79,274.543 480.5,272C 476.837,271.428 473.503,270.262 470.5,268.5C 466.079,265.488 461.079,263.821 455.5,263.5C 452.256,262.537 449.256,261.204 446.5,259.5C 444.721,258.33 443.721,256.664 443.5,254.5C 446.625,252.307 449.625,249.974 452.5,247.5C 454.167,246.833 455.833,246.167 457.5,245.5 Z"/></g>
<g><path style="opacity:0.698" fill="#cdb45f" d="M 432.5,251.5 C 434.435,252.15 436.435,252.483 438.5,252.5C 437.713,254.104 436.38,254.771 434.5,254.5C 433.833,253.5 433.167,252.5 432.5,251.5 Z"/></g>
<g><path style="opacity:1" fill="#67551f" d="M 457.5,240.5 C 456.024,242.5 454.191,244.167 452,245.5C 451.308,246.437 451.475,247.103 452.5,247.5C 449.625,249.974 446.625,252.307 443.5,254.5C 441.938,254.733 440.605,255.4 439.5,256.5C 437.694,255.976 436.028,255.309 434.5,254.5C 436.38,254.771 437.713,254.104 438.5,252.5C 444.851,248.473 451.184,244.473 457.5,240.5 Z"/></g>
<g><path style="opacity:0.996" fill="#ebcb53" d="M 587.5,253.5 C 585.163,255.396 582.496,256.73 579.5,257.5C 580.598,256.603 580.598,255.77 579.5,255C 582.168,254.433 584.834,253.933 587.5,253.5 Z"/></g>
<g><path style="opacity:0.976" fill="#dac268" d="M 443.5,254.5 C 443.721,256.664 444.721,258.33 446.5,259.5C 444.167,258.833 441.833,258.167 439.5,257.5C 439.5,257.167 439.5,256.833 439.5,256.5C 440.605,255.4 441.938,254.733 443.5,254.5 Z"/></g>
<g><path style="opacity:1" fill="#3486bd" d="M 195.5,239.5 C 189.898,243.927 184.398,248.593 179,253.5C 174.057,259.726 169.891,266.393 166.5,273.5C 166.682,271.409 166.348,269.409 165.5,267.5C 166.325,266.614 167.325,266.281 168.5,266.5C 168.286,264.856 168.62,263.356 169.5,262C 168.288,259.577 166.954,257.244 165.5,255C 167.896,250.883 170.229,250.716 172.5,254.5C 171.975,255.192 171.308,255.692 170.5,256C 171.646,256.645 172.646,257.478 173.5,258.5C 174.132,256.263 175.465,254.597 177.5,253.5C 176.687,252.186 175.687,251.019 174.5,250C 176.9,249.814 179.234,249.314 181.5,248.5C 182.309,246.929 182.643,245.262 182.5,243.5C 184.144,243.286 185.644,243.62 187,244.5C 189.044,241.585 191.877,239.918 195.5,239.5 Z"/></g>
<g><path style="opacity:0.902" fill="#5e5b57" d="M 434.5,254.5 C 436.028,255.309 437.694,255.976 439.5,256.5C 439.5,256.833 439.5,257.167 439.5,257.5C 438.167,257.833 436.833,258.167 435.5,258.5C 433.847,258.66 432.514,259.326 431.5,260.5C 430.432,261.434 429.099,261.768 427.5,261.5C 424.615,261.806 421.948,261.473 419.5,260.5C 424.383,258.226 429.383,256.226 434.5,254.5 Z"/></g>
<g><path style="opacity:0.059" fill="#cbc9c7" d="M 435.5,258.5 C 434.713,260.104 433.38,260.771 431.5,260.5C 432.514,259.326 433.847,258.66 435.5,258.5 Z"/></g>
<g><path style="opacity:0.063" fill="#f2db78" d="M 567.5,263.5 C 560.943,266.896 553.943,269.229 546.5,270.5C 553.262,267.72 560.262,265.386 567.5,263.5 Z"/></g>
<g><path style="opacity:0.949" fill="#757471" d="M 419.5,260.5 C 421.948,261.473 424.615,261.806 427.5,261.5C 415.503,266.757 402.836,269.09 389.5,268.5C 386.287,268.81 383.287,268.477 380.5,267.5C 385.985,266.673 391.652,266.173 397.5,266C 404.921,264.351 412.254,262.518 419.5,260.5 Z"/></g>
<g><path style="opacity:0.631" fill="#e8cd5d" d="M 455.5,263.5 C 461.079,263.821 466.079,265.488 470.5,268.5C 465.085,267.806 460.085,266.14 455.5,263.5 Z"/></g>
<g><path style="opacity:0.196" fill="#abaeb0" d="M 380.5,267.5 C 383.287,268.477 386.287,268.81 389.5,268.5C 384.32,269.815 378.986,269.815 373.5,268.5C 375.743,267.526 378.076,267.192 380.5,267.5 Z"/></g>
<g><path style="opacity:0.224" fill="#ecce67" d="M 546.5,270.5 C 541.092,272.224 535.425,273.224 529.5,273.5C 529.5,273.167 529.5,272.833 529.5,272.5C 535.07,271.103 540.736,270.437 546.5,270.5 Z"/></g>
<g><path style="opacity:0.867" fill="#3e87b3" d="M 154.5,257.5 C 154.554,262.435 153.054,266.769 150,270.5C 149.943,276.474 148.443,281.807 145.5,286.5C 146.377,276.056 149.377,266.389 154.5,257.5 Z"/></g>
<g><path style="opacity:0.998" fill="#4f92bc" d="M 332.5,274.5 C 335.971,276.151 339.305,277.984 342.5,280C 343.833,280.667 343.833,281.333 342.5,282C 346.542,284.848 349.875,288.348 352.5,292.5C 347.452,289.634 342.786,286.134 338.5,282C 336.666,279.337 334.666,276.837 332.5,274.5 Z"/></g>
<g><path style="opacity:1" fill="#0d7cc0" d="M 354.5,215.5 C 354.833,215.5 355.167,215.5 355.5,215.5C 361.509,215.334 367.509,215.501 373.5,216C 380.433,219.801 387.433,223.301 394.5,226.5C 394.833,226.5 395.167,226.5 395.5,226.5C 395.526,229.951 397.026,232.618 400,234.5C 400.383,233.944 400.883,233.611 401.5,233.5C 402.929,236.308 403.595,239.308 403.5,242.5C 402.5,242.5 401.5,242.5 400.5,242.5C 400.5,243.5 400.5,244.5 400.5,245.5C 400.167,245.5 399.833,245.5 399.5,245.5C 394.58,247.527 390.913,246.194 388.5,241.5C 389.562,238.897 389.728,236.23 389,233.5C 387.047,237.422 385.881,237.088 385.5,232.5C 381.021,232.816 377.187,231.482 374,228.5C 367.969,228.956 362.136,229.956 356.5,231.5C 351.039,231.581 347.706,234.248 346.5,239.5C 340.817,252.892 343.817,264.059 355.5,273C 360.269,276.04 364.603,279.54 368.5,283.5C 370.498,285.833 371.832,288.5 372.5,291.5C 376.241,290.599 378.241,291.932 378.5,295.5C 380.288,295.215 381.955,295.548 383.5,296.5C 384.993,298.67 386.993,300.004 389.5,300.5C 389.833,300.5 390.167,300.5 390.5,300.5C 389.843,303.841 391.176,305.841 394.5,306.5C 395.309,308.071 395.643,309.738 395.5,311.5C 397.292,311.366 398.958,311.699 400.5,312.5C 400.999,316.49 401.499,320.49 402,324.5C 403,323.167 404,323.167 405,324.5C 405.985,326.366 406.485,328.366 406.5,330.5C 406.418,337.482 406.085,344.482 405.5,351.5C 402.94,355.082 401.273,359.082 400.5,363.5C 398.833,363.5 397.167,363.5 395.5,363.5C 395.762,364.978 395.429,366.311 394.5,367.5C 391.506,369.496 388.339,371.163 385,372.5C 384.667,372.167 384.333,371.833 384,371.5C 383.167,373 382,374.167 380.5,375C 380.833,375.333 381.167,375.667 381.5,376C 379.119,376.223 377.453,377.39 376.5,379.5C 376.5,379.833 376.5,380.167 376.5,380.5C 368.167,380.5 359.833,380.5 351.5,380.5C 351.5,380.167 351.5,379.833 351.5,379.5C 353.56,377.852 355.893,376.352 358.5,375C 355.183,374.502 351.85,374.335 348.5,374.5C 348.215,372.712 348.548,371.045 349.5,369.5C 352.264,371.608 355.264,371.941 358.5,370.5C 356.631,369.376 354.631,368.543 352.5,368C 352.833,367.667 353.167,367.333 353.5,367C 358.684,366.826 363.684,366.326 368.5,365.5C 370.027,365.573 371.027,364.906 371.5,363.5C 375.524,362.962 379.524,362.295 383.5,361.5C 383.281,362.675 383.614,363.675 384.5,364.5C 385.578,362.525 385.245,360.692 383.5,359C 386.793,355.553 389.96,352.053 393,348.5C 393.172,344.129 393.672,339.796 394.5,335.5C 395.895,336.815 396.895,336.481 397.5,334.5C 394.898,333.565 392.898,331.898 391.5,329.5C 390.114,326.225 388.28,323.225 386,320.5C 385.37,318.097 386.203,316.263 388.5,315C 385.785,314.125 384.452,312.292 384.5,309.5C 381.134,309.788 377.8,309.954 374.5,310C 374.04,305.783 371.706,303.949 367.5,304.5C 361.898,301.229 356.898,297.229 352.5,292.5C 349.875,288.348 346.542,284.848 342.5,282C 343.833,281.333 343.833,280.667 342.5,280C 339.305,277.984 335.971,276.151 332.5,274.5C 332.5,274.167 332.5,273.833 332.5,273.5C 332.156,270.478 330.989,267.812 329,265.5C 328.554,260.602 327.721,255.769 326.5,251C 327.122,246.798 327.955,242.632 329,238.5C 329.318,236.939 330.151,235.772 331.5,235C 330.748,234.329 330.414,233.496 330.5,232.5C 331.256,229.606 332.923,227.606 335.5,226.5C 336.88,225.294 338.047,225.627 339,227.5C 341.27,222.099 345.436,219.266 351.5,219C 352.365,217.641 353.365,216.474 354.5,215.5 Z"/></g>
<g><path style="opacity:0.961" fill="#68a3c3" d="M 356.5,231.5 C 357.833,231.5 359.167,231.5 360.5,231.5C 355.016,232.58 350.349,235.247 346.5,239.5C 347.706,234.248 351.039,231.581 356.5,231.5 Z"/></g>
<g><path style="opacity:0.122" fill="#96d3ed" d="M 360.5,231.5 C 364.29,230.098 367.956,230.431 371.5,232.5C 367.865,231.886 364.198,231.552 360.5,231.5 Z"/></g>
<g><path style="opacity:1" fill="#067cc1" d="M 37.5,218.5 C 56.186,219.097 74.8526,220.097 93.5,221.5C 94.287,223.104 95.6203,223.771 97.5,223.5C 97.5,224.833 97.5,226.167 97.5,227.5C 98.8734,227.343 100.207,227.51 101.5,228C 105.406,231.136 108.072,235.136 109.5,240C 111.342,239.932 113.009,240.099 114.5,240.5C 118.868,246.155 120.535,252.655 119.5,260C 120.08,269.084 117.746,277.251 112.5,284.5C 111.5,284.5 110.5,284.5 109.5,284.5C 109.5,285.5 109.5,286.5 109.5,287.5C 104.571,287.436 101.904,289.77 101.5,294.5C 96.8213,295.319 92.8213,297.319 89.5,300.5C 89.1667,300.5 88.8333,300.5 88.5,300.5C 80.149,300.482 71.8156,300.815 63.5,301.5C 53.1547,301.244 42.8214,301.078 32.5,301C 32,301.5 31.5,302 31,302.5C 31.1635,307.458 31.6635,312.458 32.5,317.5C 32.4435,318.737 31.9435,319.737 31,320.5C 30.3333,335.833 30.3333,351.167 31,366.5C 32.3654,367.593 32.6987,368.926 32,370.5C 30.2041,369.233 28.3707,369.233 26.5,370.5C 25.8076,369.975 25.3076,369.308 25,368.5C 24.6322,369.91 23.7989,370.91 22.5,371.5C 21.5001,321.504 21.1667,271.504 21.5,221.5C 26.3973,218.932 31.7307,217.932 37.5,218.5 Z M 85.5,236.5 C 97.3168,242.458 102.65,252.125 101.5,265.5C 99.1421,272.531 95.1421,278.531 89.5,283.5C 87.901,283.232 86.5676,283.566 85.5,284.5C 82.6275,284.802 79.9608,285.469 77.5,286.5C 63.8333,286.5 50.1667,286.5 36.5,286.5C 36.5,269.167 36.5,251.833 36.5,234.5C 52.9088,234.006 69.2422,234.672 85.5,236.5 Z"/></g>
<g><path style="opacity:0.949" fill="#4c90b5" d="M 101.5,265.5 C 101.758,273.664 98.4243,279.664 91.5,283.5C 90.8333,283.5 90.1667,283.5 89.5,283.5C 95.1421,278.531 99.1421,272.531 101.5,265.5 Z"/></g>
<g><path style="opacity:0.892" fill="#3d87b5" d="M 85.5,236.5 C 69.2422,234.672 52.9088,234.006 36.5,234.5C 36.5,251.833 36.5,269.167 36.5,286.5C 50.1667,286.5 63.8333,286.5 77.5,286.5C 80.5533,286.889 83.22,286.223 85.5,284.5C 86.5676,283.566 87.901,283.232 89.5,283.5C 90.1667,283.5 90.8333,283.5 91.5,283.5C 90.7659,284.708 90.4326,286.041 90.5,287.5C 71.9512,288.789 53.4512,288.789 35,287.5C 34.5275,268.461 34.3609,249.628 34.5,231C 35.6086,230.362 36.7753,229.862 38,229.5C 39.7289,231.448 41.8956,232.448 44.5,232.5C 57.5945,230.85 70.5945,231.35 83.5,234C 84.756,234.417 85.4226,235.25 85.5,236.5 Z"/></g>
<g><path style="opacity:0.227" fill="#8ccbea" d="M 85.5,284.5 C 83.22,286.223 80.5533,286.889 77.5,286.5C 79.9608,285.469 82.6275,284.802 85.5,284.5 Z"/></g>
<g><path style="opacity:0.998" fill="#488cbe" d="M 112.5,284.5 C 107.044,292.947 99.3775,298.281 89.5,300.5C 92.8213,297.319 96.8213,295.319 101.5,294.5C 101.904,289.77 104.571,287.436 109.5,287.5C 109.5,286.5 109.5,285.5 109.5,284.5C 110.5,284.5 111.5,284.5 112.5,284.5 Z"/></g>
<g><path style="opacity:1" fill="#4189b5" d="M 368.5,283.5 C 375.208,287.359 381.541,291.859 387.5,297C 388.305,298.113 388.972,299.279 389.5,300.5C 386.993,300.004 384.993,298.67 383.5,296.5C 381.955,295.548 380.288,295.215 378.5,295.5C 378.241,291.932 376.241,290.599 372.5,291.5C 371.832,288.5 370.498,285.833 368.5,283.5 Z"/></g>
<g><path style="opacity:0.848" fill="#428db9" d="M 88.5,300.5 C 81.3499,302.098 74.0166,303.431 66.5,304.5C 67.6302,305.622 68.2969,306.956 68.5,308.5C 65.1305,307.441 63.4639,305.108 63.5,301.5C 71.8156,300.815 80.149,300.482 88.5,300.5 Z"/></g>
<g><path style="opacity:0.855" fill="#448fb7" d="M 390.5,300.5 C 394.308,304.122 397.641,308.122 400.5,312.5C 398.958,311.699 397.292,311.366 395.5,311.5C 395.643,309.738 395.309,308.071 394.5,306.5C 391.176,305.841 389.843,303.841 390.5,300.5 Z"/></g>
<g><path style="opacity:1" fill="#0c7cc0" d="M 283.5,229.5 C 287.105,231.472 290.105,234.139 292.5,237.5C 294.265,240.775 296.265,243.942 298.5,247C 296.984,249.266 294.984,250.766 292.5,251.5C 292.5,252.5 292.5,253.5 292.5,254.5C 288.105,254.124 285.105,251.79 283.5,247.5C 283.167,248.167 282.833,248.833 282.5,249.5C 280.763,246.363 278.097,244.697 274.5,244.5C 273.386,243.115 272.386,241.615 271.5,240C 266.474,236.447 261.141,233.614 255.5,231.5C 250.208,230.505 244.875,230.172 239.5,230.5C 232.476,230.435 225.476,230.768 218.5,231.5C 215.221,230.508 211.888,230.341 208.5,231C 209.634,232.016 209.301,232.683 207.5,233C 204.123,233.452 200.789,234.118 197.5,235C 197.833,235.333 198.167,235.667 198.5,236C 196.574,236.422 195.574,237.589 195.5,239.5C 191.877,239.918 189.044,241.585 187,244.5C 185.644,243.62 184.144,243.286 182.5,243.5C 182.643,245.262 182.309,246.929 181.5,248.5C 179.234,249.314 176.9,249.814 174.5,250C 175.687,251.019 176.687,252.186 177.5,253.5C 175.465,254.597 174.132,256.263 173.5,258.5C 172.646,257.478 171.646,256.645 170.5,256C 171.308,255.692 171.975,255.192 172.5,254.5C 170.229,250.716 167.896,250.883 165.5,255C 166.954,257.244 168.288,259.577 169.5,262C 168.62,263.356 168.286,264.856 168.5,266.5C 167.325,266.281 166.325,266.614 165.5,267.5C 166.348,269.409 166.682,271.409 166.5,273.5C 165.533,274.806 164.199,275.473 162.5,275.5C 162.665,279.182 162.499,282.848 162,286.5C 161.465,284.729 160.631,284.396 159.5,285.5C 159.526,303.813 163.359,321.147 171,337.5C 172.734,339.451 174.901,340.451 177.5,340.5C 177.357,342.262 177.691,343.929 178.5,345.5C 183.419,347.009 185.419,350.342 184.5,355.5C 187.482,355.037 190.482,354.704 193.5,354.5C 193.897,356.662 195.231,357.995 197.5,358.5C 197.291,359.086 196.957,359.586 196.5,360C 198.473,360.495 200.473,360.662 202.5,360.5C 202.36,362.124 203.027,363.29 204.5,364C 219.416,366.331 234.416,366.997 249.5,366C 253.971,364.843 257.971,362.843 261.5,360C 268.208,358.85 273.875,355.85 278.5,351C 279.448,350.517 280.448,350.351 281.5,350.5C 281.5,349.5 281.5,348.5 281.5,347.5C 284.436,348.406 287.436,349.072 290.5,349.5C 290.376,347.048 289.376,345.048 287.5,343.5C 287.833,342.833 288.167,342.167 288.5,341.5C 290.577,343.082 292.91,344.082 295.5,344.5C 297.123,347.215 297.79,350.215 297.5,353.5C 294.463,357.537 290.797,360.871 286.5,363.5C 282.429,364.472 278.762,366.305 275.5,369C 272.8,369.253 270.133,369.253 267.5,369C 267.167,369.333 266.833,369.667 266.5,370C 268.044,370.29 269.377,370.956 270.5,372C 264.991,373.87 259.657,376.037 254.5,378.5C 252.833,379.167 251.167,379.833 249.5,380.5C 237.167,380.5 224.833,380.5 212.5,380.5C 212.5,380.167 212.5,379.833 212.5,379.5C 210.287,377.688 207.953,377.355 205.5,378.5C 195.037,375.935 185.704,371.269 177.5,364.5C 173.637,359.476 169.303,354.809 164.5,350.5C 161.505,344.863 157.839,339.863 153.5,335.5C 146.181,319.909 143.515,303.576 145.5,286.5C 148.443,281.807 149.943,276.474 150,270.5C 153.054,266.769 154.554,262.435 154.5,257.5C 155.117,257.611 155.617,257.944 156,258.5C 158.446,253.78 161.279,249.28 164.5,245C 166.715,243.956 169.048,243.29 171.5,243C 169.233,241.919 169.066,240.419 171,238.5C 174.074,236.929 176.24,234.596 177.5,231.5C 180.057,228.208 183.391,225.874 187.5,224.5C 189.284,224.107 190.95,223.441 192.5,222.5C 201.564,220.484 210.564,218.317 219.5,216C 230.939,215.035 242.272,215.702 253.5,218C 263.507,222.153 273.507,225.987 283.5,229.5 Z"/></g>
<g><path style="opacity:0.729" fill="#5195bc" d="M 239.5,230.5 C 244.875,230.172 250.208,230.505 255.5,231.5C 261.141,233.614 266.474,236.447 271.5,240C 272.386,241.615 273.386,243.115 274.5,244.5C 269.486,240.355 263.82,237.188 257.5,235C 251.399,233.382 245.399,231.882 239.5,230.5 Z"/></g>
<g><path style="opacity:1" fill="#438abb" d="M 218.5,231.5 C 210.6,233.273 202.933,235.94 195.5,239.5C 195.574,237.589 196.574,236.422 198.5,236C 198.167,235.667 197.833,235.333 197.5,235C 200.789,234.118 204.123,233.452 207.5,233C 209.301,232.683 209.634,232.016 208.5,231C 211.888,230.341 215.221,230.508 218.5,231.5 Z"/></g>
<g><path style="opacity:1" fill="#2c81b9" d="M 367.5,304.5 C 371.706,303.949 374.04,305.783 374.5,310C 377.8,309.954 381.134,309.788 384.5,309.5C 384.452,312.292 385.785,314.125 388.5,315C 386.203,316.263 385.37,318.097 386,320.5C 388.28,323.225 390.114,326.225 391.5,329.5C 392.898,331.898 394.898,333.565 397.5,334.5C 396.895,336.481 395.895,336.815 394.5,335.5C 393.672,339.796 393.172,344.129 393,348.5C 389.96,352.053 386.793,355.553 383.5,359C 385.245,360.692 385.578,362.525 384.5,364.5C 383.614,363.675 383.281,362.675 383.5,361.5C 379.524,362.295 375.524,362.962 371.5,363.5C 375.458,361.234 379.458,358.901 383.5,356.5C 385.587,355.415 386.92,353.749 387.5,351.5C 387.733,349.938 388.4,348.605 389.5,347.5C 390.913,344.618 391.579,341.451 391.5,338C 391.494,335.967 391.161,334.134 390.5,332.5C 388.565,327.978 386.065,323.645 383,319.5C 377.369,314.808 372.202,309.808 367.5,304.5 Z"/></g>
<g><path style="opacity:1" fill="#0e7cbe" d="M 21.5,221.5 C 21.1667,271.504 21.5001,321.504 22.5,371.5C 23.7989,370.91 24.6322,369.91 25,368.5C 25.3076,369.308 25.8076,369.975 26.5,370.5C 28.3707,369.233 30.2041,369.233 32,370.5C 32.6987,368.926 32.3654,367.593 31,366.5C 30.3333,351.167 30.3333,335.833 31,320.5C 31.9435,319.737 32.4435,318.737 32.5,317.5C 31.6635,312.458 31.1635,307.458 31,302.5C 31.5,302 32,301.5 32.5,301C 42.8214,301.078 53.1547,301.244 63.5,301.5C 63.4639,305.108 65.1305,307.441 68.5,308.5C 72.2464,311.41 75.4131,314.743 78,318.5C 84.356,327.676 90.856,336.676 97.5,345.5C 96.9232,348.55 98.0899,350.55 101,351.5C 102.187,355.098 103.687,358.431 105.5,361.5C 106.833,361.5 108.167,361.5 109.5,361.5C 109.131,363.993 109.797,364.66 111.5,363.5C 111.146,366.421 112.146,368.754 114.5,370.5C 113.5,371.167 112.5,371.833 111.5,372.5C 113.167,373.167 114.833,373.833 116.5,374.5C 111.533,375.662 106.533,375.829 101.5,375C 100.506,373.671 99.5061,372.338 98.5,371C 99.5038,369.202 100.004,367.368 100,365.5C 99,366.167 98,366.833 97,367.5C 95.0209,365.435 93.1875,363.268 91.5,361C 90.255,360.209 88.9217,359.709 87.5,359.5C 79.4812,349.809 71.8146,339.809 64.5,329.5C 64.1077,327.821 63.6077,326.154 63,324.5C 60,321.167 57,317.833 54,314.5C 53.5172,313.552 53.3505,312.552 53.5,311.5C 52.5,311.5 51.5,311.5 50.5,311.5C 48.1468,309.14 46.1468,306.473 44.5,303.5C 41.5,302.167 38.5,302.167 35.5,303.5C 34.9479,326.704 34.1145,350.038 33,373.5C 32.5,374 32,374.5 31.5,375C 27.8484,375.499 24.1817,375.665 20.5,375.5C 20.1678,323.997 20.5011,272.664 21.5,221.5 Z"/></g>
<g><path style="opacity:0.922" fill="#5398bb" d="M 50.5,311.5 C 51.5,311.5 52.5,311.5 53.5,311.5C 53.3505,312.552 53.5172,313.552 54,314.5C 57,317.833 60,321.167 63,324.5C 63.6077,326.154 64.1077,327.821 64.5,329.5C 59.3613,323.901 54.6946,317.901 50.5,311.5 Z"/></g>
<g><path style="opacity:1" fill="#3c8ab9" d="M 166.5,273.5 C 164.848,281.264 163.514,289.098 162.5,297C 163.356,305.614 164.856,314.114 167,322.5C 169.86,328.962 173.36,334.962 177.5,340.5C 174.901,340.451 172.734,339.451 171,337.5C 163.359,321.147 159.526,303.813 159.5,285.5C 160.631,284.396 161.465,284.729 162,286.5C 162.499,282.848 162.665,279.182 162.5,275.5C 164.199,275.473 165.533,274.806 166.5,273.5 Z"/></g>
<g><path style="opacity:0.318" fill="#74afcc" d="M 44.5,303.5 C 41.8333,303.5 39.1667,303.5 36.5,303.5C 36.5,328.167 36.5,352.833 36.5,377.5C 30.642,377.822 24.9753,377.489 19.5,376.5C 24.8333,376.5 30.1667,376.5 35.5,376.5C 35.5,352.167 35.5,327.833 35.5,303.5C 38.5,302.167 41.5,302.167 44.5,303.5 Z"/></g>
<g><path style="opacity:0.996" fill="#3381b5" d="M 400.5,312.5 C 404.701,316.571 407.034,321.571 407.5,327.5C 408.307,333.464 408.64,339.464 408.5,345.5C 407.977,352.538 405.311,358.538 400.5,363.5C 401.273,359.082 402.94,355.082 405.5,351.5C 406.085,344.482 406.418,337.482 406.5,330.5C 406.485,328.366 405.985,326.366 405,324.5C 404,323.167 403,323.167 402,324.5C 401.499,320.49 400.999,316.49 400.5,312.5 Z"/></g>
<g><path style="opacity:0.388" fill="#68adcd" d="M 407.5,327.5 C 409.03,330.695 409.696,334.195 409.5,338C 409.497,340.69 409.164,343.19 408.5,345.5C 408.64,339.464 408.307,333.464 407.5,327.5 Z"/></g>
<g><path style="opacity:0.971" fill="#5e9cbc" d="M 332.5,343.5 C 330.971,342.653 329.304,341.986 327.5,341.5C 324.381,342.559 321.381,343.893 318.5,345.5C 321.787,341.258 325.954,339.258 331,339.5C 331.791,340.745 332.291,342.078 332.5,343.5 Z"/></g>
<g><path style="opacity:0.145" fill="#a6d9ee" d="M 390.5,332.5 C 391.161,334.134 391.494,335.967 391.5,338C 391.579,341.451 390.913,344.618 389.5,347.5C 390.164,342.527 390.497,337.527 390.5,332.5 Z"/></g>
<g><path style="opacity:1" fill="#237fba" d="M 332.5,343.5 C 335.185,346.19 337.518,349.19 339.5,352.5C 337.097,352.607 335.264,351.607 334,349.5C 333.311,350.357 332.478,351.023 331.5,351.5C 330.949,349.587 330.782,347.587 331,345.5C 330.632,346.91 329.799,347.91 328.5,348.5C 325.788,346.74 322.788,346.073 319.5,346.5C 319.5,347.5 319.5,348.5 319.5,349.5C 321.5,349.5 323.5,349.5 325.5,349.5C 325.5,351.167 325.5,352.833 325.5,354.5C 324.448,354.351 323.448,354.517 322.5,355C 323.861,356.584 324.528,358.418 324.5,360.5C 321.203,357.264 318.37,353.597 316,349.5C 315.09,347.055 315.924,345.722 318.5,345.5C 321.381,343.893 324.381,342.559 327.5,341.5C 329.304,341.986 330.971,342.653 332.5,343.5 Z"/></g>
<g><path style="opacity:0.541" fill="#5395bc" d="M 153.5,335.5 C 157.839,339.863 161.505,344.863 164.5,350.5C 169.303,354.809 173.637,359.476 177.5,364.5C 166.604,357.267 158.604,347.601 153.5,335.5 Z"/></g>
<g><path style="opacity:0.988" fill="#5196b9" d="M 295.5,344.5 C 301.119,346.627 301.786,349.627 297.5,353.5C 297.79,350.215 297.123,347.215 295.5,344.5 Z"/></g>
<g><path style="opacity:0.11" fill="#91c6db" d="M 23.5,217.5 C 22.4324,218.434 21.099,218.768 19.5,218.5C 19.5,271.167 19.5,323.833 19.5,376.5C 18.5011,323.669 18.1677,270.669 18.5,217.5C 20.1667,217.5 21.8333,217.5 23.5,217.5 Z"/></g>
<g><path style="opacity:1" fill="#3585ba" d="M 177.5,340.5 C 182.563,345.568 187.896,350.235 193.5,354.5C 190.482,354.704 187.482,355.037 184.5,355.5C 185.419,350.342 183.419,347.009 178.5,345.5C 177.691,343.929 177.357,342.262 177.5,340.5 Z"/></g>
<g><path style="opacity:1" fill="#037bc1" d="M 339.5,352.5 C 339.5,354.5 339.5,356.5 339.5,358.5C 346.488,359.138 347.154,361.472 341.5,365.5C 340.353,365.182 339.519,364.516 339,363.5C 338.667,364.5 338.333,365.5 338,366.5C 336.204,365.233 334.371,365.233 332.5,366.5C 330.167,365.5 328.5,363.833 327.5,361.5C 326.583,360.873 325.583,360.539 324.5,360.5C 324.528,358.418 323.861,356.584 322.5,355C 323.448,354.517 324.448,354.351 325.5,354.5C 325.5,352.833 325.5,351.167 325.5,349.5C 323.5,349.5 321.5,349.5 319.5,349.5C 319.5,348.5 319.5,347.5 319.5,346.5C 322.788,346.073 325.788,346.74 328.5,348.5C 329.799,347.91 330.632,346.91 331,345.5C 330.782,347.587 330.949,349.587 331.5,351.5C 332.478,351.023 333.311,350.357 334,349.5C 335.264,351.607 337.097,352.607 339.5,352.5 Z"/></g>
<g><path style="opacity:0.216" fill="#90cadd" d="M 387.5,351.5 C 386.92,353.749 385.587,355.415 383.5,356.5C 384.08,354.251 385.413,352.585 387.5,351.5 Z"/></g>
<g><path style="opacity:1" fill="#418ab5" d="M 97.5,345.5 C 103.122,350.737 107.789,356.737 111.5,363.5C 109.797,364.66 109.131,363.993 109.5,361.5C 108.167,361.5 106.833,361.5 105.5,361.5C 103.687,358.431 102.187,355.098 101,351.5C 98.0899,350.55 96.9232,348.55 97.5,345.5 Z"/></g>
<g><path style="opacity:0.537" fill="#3d87b6" d="M 295.5,344.5 C 292.91,344.082 290.577,343.082 288.5,341.5C 288.167,342.167 287.833,342.833 287.5,343.5C 289.376,345.048 290.376,347.048 290.5,349.5C 287.436,349.072 284.436,348.406 281.5,347.5C 281.5,348.5 281.5,349.5 281.5,350.5C 280.448,350.351 279.448,350.517 278.5,351C 273.875,355.85 268.208,358.85 261.5,360C 257.971,362.843 253.971,364.843 249.5,366C 234.416,366.997 219.416,366.331 204.5,364C 203.027,363.29 202.36,362.124 202.5,360.5C 200.473,360.662 198.473,360.495 196.5,360C 196.957,359.586 197.291,359.086 197.5,358.5C 195.231,357.995 193.897,356.662 193.5,354.5C 217.875,367.223 242.541,367.723 267.5,356C 274.389,351.38 280.723,346.047 286.5,340C 290.355,339.733 293.355,341.233 295.5,344.5 Z"/></g>
<g><path style="opacity:0.816" fill="#5598b8" d="M 371.5,363.5 C 371.027,364.906 370.027,365.573 368.5,365.5C 365.287,365.81 362.287,365.477 359.5,364.5C 363.519,364.354 367.519,364.021 371.5,363.5 Z"/></g>
<g><path style="opacity:0.999" fill="#4891be" d="M 286.5,363.5 C 277.212,371.141 266.545,376.141 254.5,378.5C 259.657,376.037 264.991,373.87 270.5,372C 269.377,370.956 268.044,370.29 266.5,370C 266.833,369.667 267.167,369.333 267.5,369C 270.133,369.253 272.8,369.253 275.5,369C 278.762,366.305 282.429,364.472 286.5,363.5 Z"/></g>
<g><path style="opacity:0.051" fill="#b8e5ec" d="M 329.5,367.5 C 331.027,367.427 332.027,368.094 332.5,369.5C 330.973,369.573 329.973,368.906 329.5,367.5 Z"/></g>
<g><path style="opacity:1" fill="#3785ba" d="M 400.5,363.5 C 394.384,371.609 386.384,376.943 376.5,379.5C 377.453,377.39 379.119,376.223 381.5,376C 381.167,375.667 380.833,375.333 380.5,375C 382,374.167 383.167,373 384,371.5C 384.333,371.833 384.667,372.167 385,372.5C 388.339,371.163 391.506,369.496 394.5,367.5C 395.429,366.311 395.762,364.978 395.5,363.5C 397.167,363.5 398.833,363.5 400.5,363.5 Z"/></g>
<g><path style="opacity:1" fill="#227fbc" d="M 339.5,352.5 C 343,355.831 346.666,358.998 350.5,362C 353.678,362.66 356.678,363.493 359.5,364.5C 362.287,365.477 365.287,365.81 368.5,365.5C 363.684,366.326 358.684,366.826 353.5,367C 353.167,367.333 352.833,367.667 352.5,368C 354.631,368.543 356.631,369.376 358.5,370.5C 355.264,371.941 352.264,371.608 349.5,369.5C 348.548,371.045 348.215,372.712 348.5,374.5C 351.85,374.335 355.183,374.502 358.5,375C 355.893,376.352 353.56,377.852 351.5,379.5C 344.126,377.981 337.793,374.648 332.5,369.5C 332.027,368.094 331.027,367.427 329.5,367.5C 327.113,365.742 325.446,363.409 324.5,360.5C 325.583,360.539 326.583,360.873 327.5,361.5C 328.5,363.833 330.167,365.5 332.5,366.5C 334.371,365.233 336.204,365.233 338,366.5C 338.333,365.5 338.667,364.5 339,363.5C 339.519,364.516 340.353,365.182 341.5,365.5C 347.154,361.472 346.488,359.138 339.5,358.5C 339.5,356.5 339.5,354.5 339.5,352.5 Z"/></g>
<g><path style="opacity:0.824" fill="#2e81b0" d="M 87.5,359.5 C 88.9217,359.709 90.255,360.209 91.5,361C 93.1875,363.268 95.0209,365.435 97,367.5C 98,366.833 99,366.167 100,365.5C 100.004,367.368 99.5038,369.202 98.5,371C 99.5061,372.338 100.506,373.671 101.5,375C 106.533,375.829 111.533,375.662 116.5,374.5C 114.833,373.833 113.167,373.167 111.5,372.5C 112.5,371.833 113.5,371.167 114.5,370.5C 112.146,368.754 111.146,366.421 111.5,363.5C 115.262,366.929 118.262,370.929 120.5,375.5C 114.355,376.49 108.022,376.823 101.5,376.5C 96.1379,371.465 91.4712,365.798 87.5,359.5 Z"/></g>
<g><path style="opacity:0.212" fill="#75b8d5" d="M 120.5,375.5 C 121.043,375.56 121.376,375.893 121.5,376.5C 114.678,377.818 108.011,377.818 101.5,376.5C 108.022,376.823 114.355,376.49 120.5,375.5 Z"/></g>
<g><path style="opacity:0.251" fill="#72b5da" d="M 205.5,378.5 C 207.953,377.355 210.287,377.688 212.5,379.5C 210.097,379.552 207.764,379.219 205.5,378.5 Z"/></g>
</svg>
