<svg xmlns="http://www.w3.org/2000/svg" version="1.1" xmlns:xlink="http://www.w3.org/1999/xlink" width="512" height="512" x="0" y="0" viewBox="0 0 24 24" style="enable-background:new 0 0 512 512" xml:space="preserve" class=""><g><path fill="#f8c301" d="M12.001 22.753a3.504 3.504 0 0 1-1.889-.558c-2.661-1.7-7.126-5.274-7.126-10.099V6.455a3.06 3.06 0 0 1 1.978-2.852l5.565-2.087a4.186 4.186 0 0 1 2.944 0l5.567 2.087a3.06 3.06 0 0 1 1.975 2.852v5.641c0 4.825-4.465 8.398-7.126 10.099a3.5 3.5 0 0 1-1.888.559zm-1.081-1.822a1.983 1.983 0 0 0 2.16 0c2.403-1.536 6.435-4.725 6.435-8.835V6.455c0-.641-.402-1.223-1.002-1.448L12.946 2.92a2.686 2.686 0 0 0-1.89 0L5.49 5.007a1.553 1.553 0 0 0-1.004 1.448v5.641c0 4.11 4.031 7.299 6.435 8.835z" opacity="1" data-original="#514fff"></path><path fill="#325a9c" d="M10.859 14.481a1.994 1.994 0 0 1-1.413-.584L7.83 12.281a.75.75 0 1 1 1.061-1.061l1.616 1.616a.501.501 0 0 0 .707 0l4.117-4.116a.75.75 0 1 1 1.061 1.061l-4.117 4.117c-.391.39-.902.584-1.415.584z" opacity="1" data-original="#9099a0" class=""></path></g></svg>