<svg xmlns="http://www.w3.org/2000/svg" version="1.1" xmlns:xlink="http://www.w3.org/1999/xlink" width="512" height="512" x="0" y="0" viewBox="0 0 1000 1000" style="enable-background:new 0 0 512 512" xml:space="preserve" class=""><g><path fill="#f8c301" d="M500 466a16 16 0 0 1-14.1-8.44l-42.85-79.88H319.17a16 16 0 0 1-16-16V100a16 16 0 0 1 16-16h361.66a16 16 0 0 1 16 16v261.68a16 16 0 0 1-16 16H557l-42.9 79.88A16 16 0 0 1 500 466zM335.17 345.68h117.45a16 16 0 0 1 14.1 8.44l33.28 62 33.28-62a16 16 0 0 1 14.1-8.44h117.45V116H335.17z" opacity="1" data-original="#ec2e18" class=""></path><path fill="#f8c301" d="M597.18 181.42H402.82a16 16 0 0 1 0-32h194.36a16 16 0 0 1 0 32zM597.18 246.84H402.82a16 16 0 0 1 0-32h194.36a16 16 0 0 1 0 32zM597.18 312.26H402.82a16 16 0 1 1 0-32h194.36a16 16 0 0 1 0 32z" opacity="1" data-original="#ec2e18" class=""></path><g fill="#56060d"><path d="M721.5 623.84a91 91 0 0 1-91-90.82c0-50.07 40.82-90.81 91-90.81s91 40.74 91 90.81a91 91 0 0 1-91 90.82zm0-149.63a58.82 58.82 0 1 0 59 58.81 59 59 0 0 0-59-58.81zM900 916H543a16 16 0 0 1-16-16V774.19c0-72.14 58.69-130.82 130.82-130.82h127.36c72.13 0 130.82 58.68 130.82 130.82V900a16 16 0 0 1-16 16zm-341-32h325V774.19a98.93 98.93 0 0 0-98.82-98.82H657.82A98.93 98.93 0 0 0 559 774.19z" fill="#027bbd" opacity="1" data-original="#56060d" class=""></path><path d="M609.24 916a16 16 0 0 1-16-16V779.39a16 16 0 0 1 32 0V900a16 16 0 0 1-16 16zM833.76 916a16 16 0 0 1-16-16V779.39a16 16 0 0 1 32 0V900a16 16 0 0 1-16 16zM278.5 624a91 91 0 1 1 91-91 91.1 91.1 0 0 1-91 91zm0-150a59 59 0 1 0 59 59 59.07 59.07 0 0 0-59-59zM457 916H100a16 16 0 0 1-16-16V773.74c0-72.21 58.75-131 131-131h127c72.21 0 131 58.75 131 131V900a16 16 0 0 1-16 16zm-341-32h325V773.74a99.07 99.07 0 0 0-99-99H215a99.07 99.07 0 0 0-99 99z" fill="#027bbd" opacity="1" data-original="#56060d" class=""></path><path d="M166.24 916a16 16 0 0 1-16-16V779.39a16 16 0 0 1 32 0V900a16 16 0 0 1-16 16zM390.76 916a16 16 0 0 1-16-16V779.39a16 16 0 0 1 32 0V900a16 16 0 0 1-16 16z" fill="#027bbd" opacity="1" data-original="#56060d" class=""></path></g></g></svg>