<svg xmlns="http://www.w3.org/2000/svg" version="1.1" xmlns:xlink="http://www.w3.org/1999/xlink" width="512" height="512" x="0" y="0" viewBox="0 0 512 512" style="enable-background:new 0 0 512 512" xml:space="preserve" class=""><g><g fill="#115181"><path d="M275.786 503.989h-39.572c-13.139 0-23.522-9.77-27.099-25.497l-3.938-17.288a7.995 7.995 0 0 1 15.588-3.552l3.939 17.292c.894 3.929 3.801 13.058 11.51 13.058h39.572c7.709 0 10.616-9.129 11.509-13.054l9.837-43.202a7.993 7.993 0 0 1 5.672-5.933 174.542 174.542 0 0 0 40.143-16.669 7.99 7.99 0 0 1 8.22.178l37.502 23.613c3.416 2.155 11.932 6.565 17.387 1.112l28.01-27.981c5.423-5.443 1.023-13.977-1.121-17.392l-23.607-37.493a7.994 7.994 0 0 1-.179-8.22 173.062 173.062 0 0 0 16.637-40.153 7.993 7.993 0 0 1 5.942-5.691l43.2-9.808c3.931-.894 13.079-3.806 13.079-11.509v-39.6c0-7.677-9.148-10.586-13.082-11.481l-43.202-9.836a7.998 7.998 0 0 1-5.937-5.686c-3.815-13.956-9.415-27.469-16.642-40.164a7.995 7.995 0 0 1 .183-8.214l23.613-37.502c2.138-3.405 6.537-11.933 1.112-17.357l-28.007-28.006c-5.436-5.436-13.976-1.029-17.396 1.118l-37.493 23.607a7.994 7.994 0 0 1-8.22.179 173.234 173.234 0 0 0-40.129-16.637 7.993 7.993 0 0 1-5.686-5.937l-9.836-43.2C286.399 33.148 283.488 24 275.785 24h-39.572c-7.703 0-10.614 9.149-11.509 13.083l-9.837 43.202a7.995 7.995 0 0 1-5.686 5.937 173.227 173.227 0 0 0-40.129 16.637 7.994 7.994 0 0 1-8.22-.179L123.33 79.067c-3.41-2.142-11.951-6.547-17.387-1.112l-28.006 28.006c-5.426 5.426-1.025 13.952 1.117 17.366l23.607 37.494a7.997 7.997 0 0 1 .183 8.214 175.417 175.417 0 0 0-16.646 40.177 7.994 7.994 0 0 1-5.933 5.672l-43.199 9.835c-3.936.896-13.085 3.805-13.085 11.482v39.6c0 7.703 9.149 10.615 13.083 11.51l17.257 3.91a7.993 7.993 0 1 1-3.533 15.591L33.525 302.9c-15.751-3.582-25.532-13.965-25.532-27.1v-39.6c0-13.117 9.781-23.49 25.526-27.07l38.602-8.789a191.406 191.406 0 0 1 14.496-34.997l-21.098-33.509c-8.583-13.67-8.154-27.914 1.112-37.181l28.006-28.006c9.272-9.274 23.527-9.701 37.2-1.118l33.514 21.102a189.311 189.311 0 0 1 34.974-14.501l8.788-38.596c3.579-15.742 13.963-25.523 27.098-25.523h39.572c13.135 0 23.519 9.781 27.099 25.525l8.787 38.594a189.363 189.363 0 0 1 34.974 14.501l33.505-21.096c13.682-8.589 27.937-8.161 37.209 1.112l28.007 28.006c9.266 9.266 9.694 23.509 1.118 37.171l-21.104 33.518a190.151 190.151 0 0 1 14.504 34.999l38.597 8.788c15.742 3.581 25.523 13.954 25.523 27.07v39.6c0 13.134-9.781 23.518-25.525 27.099l-38.593 8.762a189.104 189.104 0 0 1-14.504 35l21.097 33.505c8.575 13.661 8.15 27.911-1.102 37.198l-28.021 27.992c-9.295 9.296-23.557 9.721-37.213 1.105l-33.498-21.092a190.599 190.599 0 0 1-34.972 14.521l-8.79 38.604c-3.575 15.725-13.959 25.495-27.098 25.495z" fill="#f8c301" opacity="1" data-original="#115181"></path><path d="M256 396.811c-4.442 0-9.096-.221-13.829-.657l1.467-15.92c4.248.392 8.407.59 12.362.59 68.836 0 124.838-55.989 124.838-124.81S324.836 131.176 256 131.176s-124.809 56.002-124.809 124.838c0 4.236.196 8.378.584 12.312l-15.91 1.568a142.141 142.141 0 0 1-.662-13.88c0-77.651 63.161-140.825 140.797-140.825s140.826 63.174 140.826 140.825S333.651 396.811 256 396.811z" fill="#f8c301" opacity="1" data-original="#115181"></path><path d="M361.251 346.439h-15.988v-29.027c0-28.26-22.99-51.25-51.25-51.25h-76.025c-14.481 0-28.389 6.244-38.156 17.131l-11.9-10.677c12.796-14.262 31.04-22.441 50.057-22.441h76.025c37.075 0 67.238 30.163 67.238 67.238v29.027z" fill="#f8c301" opacity="1" data-original="#115181"></path><path d="M256 266.162c-31.041 0-56.296-25.267-56.296-56.324s25.255-56.296 56.296-56.296 56.297 25.254 56.297 56.296-25.255 56.324-56.297 56.324zm0-96.633c-22.226 0-40.308 18.083-40.308 40.309s18.082 40.337 40.308 40.337 40.309-18.095 40.309-40.337-18.082-40.309-40.309-40.309z" fill="#f8c301" opacity="1" data-original="#115181"></path></g><path fill="#325a9c" d="M129.519 503.989c-67.008 0-121.522-54.501-121.522-121.493s54.515-121.521 121.522-121.521S251.04 315.489 251.04 382.496s-54.515 121.493-121.521 121.493zm0-227.027c-58.192 0-105.534 47.342-105.534 105.534s47.342 105.505 105.534 105.505 105.533-47.33 105.533-105.505-47.342-105.534-105.533-105.534z" opacity="1" data-original="#ea4b23" class=""></path><path fill="#325a9c" d="M164.024 451.178c-2.659 0-5.334-.699-7.789-2.11L129.518 433.6l-26.694 15.455c-5.438 3.125-11.918 2.773-16.947-.9-5.039-3.631-7.38-9.682-6.11-15.805l6.443-30.194-22.928-20.635c-4.628-4.166-6.321-10.44-4.419-16.375 1.999-5.999 7.057-10.065 13.229-10.7l30.658-3.204 12.549-28.182c2.535-5.703 7.984-9.249 14.22-9.249s11.712 3.546 14.249 9.254l12.523 28.176 30.666 3.205c6.154.627 11.215 4.693 13.188 10.61 1.943 6.063.236 12.351-4.427 16.496l-22.892 20.603 6.434 30.148c1.281 6.167-1.061 12.22-6.103 15.851-2.748 2.007-5.93 3.022-9.133 3.022zm-89.363-80.925 25.679 23.111a7.995 7.995 0 0 1 2.47 7.61l-7.211 33.791 29.915-17.319a7.99 7.99 0 0 1 8.01 0l29.913 17.318-7.21-33.79a7.992 7.992 0 0 1 2.47-7.61l25.68-23.111-34.344-3.589a7.994 7.994 0 0 1-6.474-4.704l-14.026-31.559-14.056 31.564a7.995 7.995 0 0 1-6.472 4.698l-34.344 3.589zm110.661.099h.01z" opacity="1" data-original="#ea4b23" class=""></path></g></svg>