<svg xmlns="http://www.w3.org/2000/svg" version="1.1" xmlns:xlink="http://www.w3.org/1999/xlink" width="512" height="512" x="0" y="0" viewBox="0 0 32 32" style="enable-background:new 0 0 512 512" xml:space="preserve" class=""><g><circle cx="14.703" cy="21.165" r=".822" fill="#027bbd" opacity="1" data-original="#6621ba"></circle><path fill="#027bbd" d="M27.41 15.17a.9.9 0 0 0-.9.9v6.25c0 .64-.521 1.16-1.16 1.16H4.06c-.64 0-1.16-.521-1.16-1.16V8.17c0-.634.521-1.15 1.16-1.15h9.18a.9.9 0 0 0 0-1.8H4.06A2.958 2.958 0 0 0 1.1 8.17v14.15a2.964 2.964 0 0 0 2.96 2.96h6.516v3.242H8.5a.9.9 0 0 0 0 1.8h12.406a.9.9 0 0 0 0-1.8H18.83V25.28h6.52a2.964 2.964 0 0 0 2.961-2.96v-6.25a.9.9 0 0 0-.901-.9zM17.029 28.522h-4.654V25.28h4.654z" opacity="1" data-original="#6621ba"></path><path fill="#f8c301" d="m30.28 5.376-5.885-3.419a2.067 2.067 0 0 0-2.073 0l-5.884 3.419a1.25 1.25 0 0 0-.62 1.077c0 .442.238.854.62 1.076l1.553.902v2.705c0 .725.391 1.4 1.019 1.761l2.456 1.416c.584.337 1.239.505 1.894.505s1.311-.168 1.895-.505l2.455-1.416a2.037 2.037 0 0 0 1.02-1.762V8.431l1.552-.902c.38-.221.618-.633.618-1.076s-.238-.855-.62-1.077zm-7.053-1.862a.264.264 0 0 1 .265 0l5.059 2.939-5.059 2.939a.264.264 0 0 1-.265 0l-5.059-2.939zm3.7 7.623c0 .083-.044.16-.116.202l-2.456 1.416a2 2 0 0 1-1.991 0l-2.457-1.417a.232.232 0 0 1-.115-.201V9.478l2.531 1.471a2.068 2.068 0 0 0 2.073 0l2.531-1.471z" opacity="1" data-original="#f98a17" class=""></path></g></svg>