<svg xmlns="http://www.w3.org/2000/svg" version="1.1" xmlns:xlink="http://www.w3.org/1999/xlink" width="512" height="512" x="0" y="0" viewBox="0 0 512 512" style="enable-background:new 0 0 512 512" xml:space="preserve" class=""><g><g fill-rule="evenodd"><path fill="#f8c301" d="M256.001 418.838a6.997 6.997 0 0 1-7.004-6.999l.002-84.191c0-3.85 3.138-6.999 6.998-6.999a7 7 0 0 1 7 7l.002 84.189c0 3.88-3.122 7-7.002 7zm0-137.14c-3.861 0-7.004-3.15-7.004-7l.002-40.901a6.994 6.994 0 0 1 6.998-7.009c3.883 0 7 3.12 7 7.01l.002 40.9c0 3.85-3.122 7-7.002 7zM227.736 418.838a6.975 6.975 0 0 1-6.999-6.999l.002-53.43-29.799-41.111a6.872 6.872 0 0 1-1.333-4.109v-43.25c.001-3.86 3.15-7 7-7 3.86-.001 7 3.14 7 7v40.989l29.8 41.13a6.938 6.938 0 0 1 1.33 4.081l.002 55.699c0 3.88-3.152 7-7.003 7zM284.288 418.838a6.977 6.977 0 0 1-7.001-6.999l.003-55.7c0-1.481.446-2.89 1.326-4.08l29.792-41.131v-40.989c0-3.86 3.119-7 6.969-7a6.994 6.994 0 0 1 7.01 7l.003 43.249a6.906 6.906 0 0 1-1.342 4.111l-29.757 41.11v53.43c0 3.88-3.153 7-7.003 7h.001z" opacity="1" data-original="#f2535f" class=""></path><path fill="#325a9c" d="M208.18 456.738a6.94 6.94 0 0 1-1.672-.199c-22.479-5.44-43.77-14.54-63.19-27.04-1.188-.771-2.64-.6-3.63.4l-13.83 13.8c-6.089 6.12-15.761 6.66-22.51 1.28-7.077-5.7-13.94-11.82-20.38-18.26-6.398-6.41-12.56-13.27-18.23-20.38-5.376-6.72-4.839-16.41 1.251-22.51l13.812-13.83c1.022-.99 1.158-2.41.388-3.63-13.397-20.83-22.87-43.74-28.17-68.06-.307-1.39-1.421-2.27-2.841-2.27h-19.53c-8.64 0-15.84-6.46-16.81-15.05a244.473 244.473 0 0 1 0-54.59c.943-8.59 8.17-15.06 16.78-15.06h19.56c1.422 0 2.551-.87 2.841-2.26 5.3-24.32 14.77-47.23 28.17-68.09.773-1.19.63-2.61-.39-3.63l-13.808-13.801c-6.088-6.1-6.632-15.789-1.252-22.51a243.923 243.923 0 0 1 18.23-20.38c6.44-6.441 13.3-12.59 20.38-18.26 6.751-5.361 16.421-4.85 22.51 1.25l13.833 13.829c.99.99 2.407 1.16 3.627.4 20.862-13.41 43.77-22.88 68.06-28.18 1.392-.31 2.3-1.41 2.3-2.86l.002-19.531c0-8.62 6.458-15.849 15.018-16.809a248.129 248.129 0 0 1 54.62 0c8.563.96 15.03 8.19 15.03 16.81l.004 19.56c0 1.42.906 2.521 2.286 2.83 24.304 5.3 47.2 14.77 68.06 28.18 1.19.759 2.61.59 3.631-.4l13.809-13.83a16.918 16.918 0 0 1 22.531-1.25 242.238 242.238 0 0 1 20.359 18.26 237.767 237.767 0 0 1 18.251 20.38c5.391 6.72 4.849 16.41-1.251 22.51l-13.828 13.8c-.99 1.019-1.162 2.44-.402 3.66 13.411 20.83 22.88 43.74 28.18 68.06.31 1.389 1.42 2.26 2.829 2.26h19.562c8.617 0 15.848 6.47 16.807 15.06a246.638 246.638 0 0 1 0 54.59 16.901 16.901 0 0 1-16.809 15.05h-19.559c-1.409 0-2.521.88-2.831 2.27a206.329 206.329 0 0 1-28.18 68.09c-.728 1.19-.59 2.61.43 3.6l13.8 13.829c6.102 6.1 6.64 15.791 1.251 22.511a242.494 242.494 0 0 1-18.251 20.38 243.061 243.061 0 0 1-20.359 18.26c-6.74 5.349-16.41 4.84-22.531-1.28l-13.806-13.801c-.99-1-2.444-1.169-3.634-.399a207.368 207.368 0 0 1-62.07 26.79c-3.767.93-7.57-1.36-8.51-5.11-.927-3.741 1.36-7.54 5.1-8.47 20.613-5.13 40.09-13.52 57.92-24.97 6.743-4.34 15.419-3.41 21.09 2.26l13.831 13.81c1.049 1.07 2.658 1.16 3.848.22a233.795 233.795 0 0 0 19.22-17.2 224.919 224.919 0 0 0 17.21-19.22c.933-1.191.85-2.81-.2-3.88l-13.829-13.81c-5.67-5.67-6.611-14.34-2.271-21.09 12.504-19.441 21.32-40.82 26.28-63.47 1.704-7.851 8.47-13.32 16.49-13.32h19.562a2.88 2.88 0 0 0 2.888-2.58c1.9-17.09 1.899-34.44 0-51.5-.17-1.51-1.38-2.61-2.89-2.61h-19.559c-7.988 0-14.791-5.47-16.491-13.3-4.956-22.67-13.81-44.05-26.28-63.49-4.339-6.751-3.4-15.42 2.27-21.09l13.834-13.81c1.049-1.07 1.126-2.689.196-3.88-5.326-6.69-11.14-13.15-17.21-19.22a233.405 233.405 0 0 0-19.22-17.21 2.841 2.841 0 0 0-3.851.23L382.23 87.386c-5.67 5.66-14.354 6.601-21.094 2.261-19.447-12.5-40.82-21.31-63.47-26.25-7.849-1.72-13.33-8.5-13.33-16.52V27.316c0-1.5-1.07-2.719-2.57-2.889a233.456 233.456 0 0 0-51.51 0c-1.499.17-2.61 1.39-2.61 2.89l.032 19.529c0 8.02-5.472 14.831-13.322 16.531-22.678 4.96-44.02 13.77-63.47 26.27-6.778 4.34-15.42 3.4-21.09-2.26l-13.827-13.811c-1.053-1.08-2.704-1.159-3.894-.229a240.985 240.985 0 0 0-19.219 17.21c-6.029 6.069-11.84 12.53-17.17 19.22-.968 1.19-.881 2.81.189 3.88l13.814 13.81c5.697 5.67 6.597 14.34 2.297 21.09-12.507 19.469-21.35 40.82-26.28 63.49-1.698 7.83-8.51 13.3-16.53 13.3h-19.53c-1.53 0-2.75 1.1-2.92 2.58-1.9 17.089-1.9 34.41 0 51.53.202 1.479 1.42 2.58 2.89 2.58h19.56c8.024 0 14.831 5.47 16.53 13.3 4.93 22.669 13.77 44.02 26.28 63.49 4.3 6.75 3.4 15.42-2.271 21.09l-13.836 13.809c-1.071 1.07-1.163 2.691-.193 3.881 5.331 6.69 11.139 13.15 17.17 19.22a236.12 236.12 0 0 0 19.219 17.2c1.193.939 2.81.85 3.89-.22l13.832-13.811c5.67-5.67 14.308-6.599 21.088-2.259a193.735 193.735 0 0 0 58.93 25.22c3.741.909 6.069 4.68 5.16 8.45a7.014 7.014 0 0 1-6.8 5.33h.003z" opacity="1" data-original="#052f81" class=""></path><path fill="#325a9c" d="M302.968 418.838H209.03c-14.629 0-26.563-11.899-26.563-26.559v-18.6c0-18.19-5.25-22.669-14.74-30.809-5.956-5.101-13.35-11.45-20.469-22.48-13.458-20.86-20.581-45.07-20.581-70.01.003-71.29 58.03-129.32 129.32-129.32 71.32 0 129.309 58.03 129.309 129.32.002 24.94-7.109 49.15-20.569 70.01-7.09 11.03-14.52 17.38-20.44 22.48-9.496 8.14-14.74 12.62-14.74 30.81v18.599c.001 14.66-11.94 26.561-26.59 26.561h.001zm-46.967-283.781c-63.581 0-115.325 51.741-115.325 115.321.003 22.25 6.351 43.82 18.35 62.42 6.003 9.32 12.01 14.45 17.83 19.44 10.092 8.649 19.61 16.81 19.61 41.44l.004 18.599c0 6.92 5.636 12.561 12.556 12.561h93.941c6.939 0 12.579-5.64 12.579-12.56l.003-18.6c0-24.63 9.527-32.789 19.617-41.44 5.812-4.99 11.79-10.12 17.799-19.44 12.02-18.6 18.34-40.17 18.34-62.42.034-63.581-51.699-115.32-115.309-115.32H256z" opacity="1" data-original="#052f81" class=""></path><path fill="#325a9c" d="M268.75 502.998h-25.479c-21.942 0-39.774-16.409-39.774-36.589l.003-54.571c0-3.86 3.117-7 6.998-7a7.006 7.006 0 0 1 6.999 7l.002 54.57c0 12.439 11.568 22.59 25.769 22.59h25.482c14.211 0 25.767-10.15 25.767-22.59l.004-54.571c0-3.86 3.146-7 6.996-7 3.862 0 7 3.14 7 7l.003 54.57c0 20.179-17.854 36.59-39.773 36.59h.003z" opacity="1" data-original="#052f81" class=""></path><path fill="#325a9c" d="M301.519 464.589h-91.022c-3.879 0-7-3.12-7-7 .003-3.851 3.12-7 7-7h91.022c3.861 0 6.998 3.15 6.998 7 .003 3.879-3.14 7-7 7z" opacity="1" data-original="#052f81" class=""></path><g fill="#f2535f"><path d="M256.001 240.798c-14.35 0-26.024-11.679-26.024-26.029.001-14.371 11.67-26.05 26.02-26.05 14.372 0 26.049 11.68 26.049 26.05 0 14.349-11.709 26.03-26.049 26.03h.004zm0-38.071c-6.633 0-12.024 5.381-12.024 12.041 0 6.609 5.389 12.02 12.02 12.02 6.66 0 12.05-5.38 12.05-12.02s-5.39-12.04-12.05-12.04h.004zM315.379 276.939c-14.342 0-26.022-11.68-26.022-26.02.002-14.38 11.68-26.03 26.02-26.03 14.384 0 26.05 11.65 26.05 26.03.002 14.34-11.671 26.02-26.05 26.02zm0-38.07c-6.602 0-12.013 5.41-12.013 12.05.002 6.629 5.41 12.02 12.01 12.02 6.67-.001 12.05-5.39 12.05-12.02.003-6.641-5.38-12.02-12.05-12.05h.002zM196.61 276.939c-14.342 0-26.024-11.68-26.024-26.02s11.68-26.03 26.02-26.03c14.354 0 26.02 11.65 26.02 26.03.002 14.34-11.671 26.02-26.02 26.02h.003zm0-38.07c-6.633 0-12.023 5.41-12.023 12.05.004 6.629 5.39 12.02 12.02 12.02 6.64-.001 12.05-5.39 12.05-12.02s-5.41-12.02-12.05-12.05zM256.001 334.649c-18.464 0-33.484-15.02-33.484-33.48.004-18.45 15.02-33.47 33.48-33.47s33.48 15.02 33.48 33.47c.004 18.46-15.03 33.48-33.48 33.48zm0-52.951c-10.742 0-19.484 8.73-19.484 19.471.003 10.749 8.74 19.48 19.48 19.48 10.741 0 19.47-8.73 19.47-19.48.001-10.741-8.73-19.47-19.47-19.47h.004z" fill="#f8c301" opacity="1" data-original="#f2535f" class=""></path></g></g></g></svg>